<svg width="60" height="60" viewBox="0 0 60 60" fill="none" xmlns="http://www.w3.org/2000/svg">
<g clip-path="url(#clip0_1858_9623)">
<path fill-rule="evenodd" clip-rule="evenodd" d="M0.4375 0H59.5616V60H0.4375V0Z" fill="#D94F00"/>
<path fill-rule="evenodd" clip-rule="evenodd" d="M34.0732 11.6347H49.2298V26.8633H34.0732V11.6347ZM15.7499 34.5663V36.0561H18.3621V43.9378H20.1633V35.9959H22.5954V34.5061L15.7499 34.5674V34.5663ZM14.4046 36.4133V34.9235C12.9595 34.2684 11.2977 34.0704 9.59627 34.9235C6.80594 36.1745 6.70621 42.3694 9.49756 43.5806C11.1003 44.3949 14.4432 44.0173 14.7801 43.302V38.398H11.4565V39.6888H12.9198V42.2704C8.11156 44.6133 7.22113 33.3551 14.4046 36.4133ZM25.5252 39.6092H27.246C28.6707 39.6694 29.0472 42.3694 27.187 42.349H25.5252V39.6092ZM25.5252 35.8174H27.246C28.6707 36.0755 28.1568 38.2 27.187 38.2592H25.5252V35.8174ZM23.7443 34.3684V43.8582H28.4732C30.8871 42.9847 30.9868 39.2327 28.4732 38.8347C30.7883 38.5776 30.9074 34.3082 26.9102 34.3082L23.7443 34.3684ZM32.094 37.0286V38.4378C33.3599 38.0806 36.1105 37.0878 35.8531 39.1929C33.4393 39.0337 31.7968 39.4704 31.52 40.9786C31.0651 44.2357 34.5475 44.5531 36.0118 42.9449V43.7194H37.6736V38.001C37.2584 36.1541 34.5088 35.9163 32.094 37.0286ZM33.4983 40.702C33.8748 40.2051 35.0817 40.2245 35.8928 40.4633V41.7143C34.5678 43.1429 32.4308 42.4888 33.4993 40.701L33.4983 40.702ZM41.1173 38.7163C41.5528 38.2398 43.8679 37.3459 44.2241 38.7163V43.7592H46.0833V38.4184C45.6874 36.1939 43.5697 35.7969 40.9982 37.3061V36.4725H39.2377V43.799H41.0969L41.1173 38.7163ZM51.9204 36.3929L49.4872 39.6684L52.0598 43.699L54.2955 43.6398L51.4665 39.7684L54.0187 36.452L51.9214 36.3929H51.9204ZM47.4693 33.9898H49.3092V43.699H47.4683V33.9908L47.4693 33.9898Z" fill="white"/>
<path fill-rule="evenodd" clip-rule="evenodd" d="M34.0781 11.6347H49.2347V26.8633H34.0781V11.6347Z" fill="white"/>
</g>
<defs>
<clipPath id="clip0_1858_9623">
<rect width="59.1241" height="60" fill="white" transform="translate(0.4375)"/>
</clipPath>
</defs>
</svg>
