<svg width="90" height="90" viewBox="0 0 90 90" fill="none" xmlns="http://www.w3.org/2000/svg">
<circle cx="45" cy="45" r="45" fill="#5B68E8"/>
<path d="M52.9154 24.6042C52.0612 23.75 50.582 24.3334 50.582 25.5209V32.7917C50.582 35.8334 53.1654 38.3542 56.3112 38.3542C58.2904 38.375 61.0404 38.375 63.3945 38.375C64.582 38.375 65.207 36.9792 64.3737 36.1459C61.3737 33.125 55.9987 27.6875 52.9154 24.6042Z" fill="white"/>
<path d="M62.707 41.2292H56.6862C51.7487 41.2292 47.7279 37.2084 47.7279 32.2709V26.25C47.7279 25.1042 46.7904 24.1667 45.6445 24.1667H36.8112C30.3945 24.1667 25.207 28.3334 25.207 35.7709V54.2292C25.207 61.6667 30.3945 65.8334 36.8112 65.8334H53.1862C59.6029 65.8334 64.7904 61.6667 64.7904 54.2292V43.3125C64.7904 42.1667 63.8529 41.2292 62.707 41.2292ZM43.957 56.9792H35.6237C34.7695 56.9792 34.0612 56.2709 34.0612 55.4167C34.0612 54.5625 34.7695 53.8542 35.6237 53.8542H43.957C44.8112 53.8542 45.5195 54.5625 45.5195 55.4167C45.5195 56.2709 44.8112 56.9792 43.957 56.9792ZM48.1237 48.6459H35.6237C34.7695 48.6459 34.0612 47.9375 34.0612 47.0834C34.0612 46.2292 34.7695 45.5209 35.6237 45.5209H48.1237C48.9779 45.5209 49.6862 46.2292 49.6862 47.0834C49.6862 47.9375 48.9779 48.6459 48.1237 48.6459Z" fill="white"/>
</svg>
