<svg width="182" height="24" viewBox="0 0 182 24" fill="none" xmlns="http://www.w3.org/2000/svg">
<path fill-rule="evenodd" clip-rule="evenodd" d="M22.332 2.10049C21.833 2.03438 21.3239 2.00024 20.8067 2.00024C16.2652 2.00024 12.3429 4.63213 10.5036 8.44314C7.3551 9.53156 5.09572 12.5039 5.09572 16C5.09572 18.3874 6.14935 20.5306 7.82024 21.9964C3.47976 21.8707 0 18.3387 0 13.9999C0 10.5048 2.25807 7.53321 5.40516 6.44401C7.24425 2.63241 11.1668 0 15.7088 0C18.178 0 20.4641 0.777993 22.332 2.10049Z" fill="#60C7EB"/>
<path opacity="0.5" fill-rule="evenodd" clip-rule="evenodd" d="M8.05771 22.0001C8.14756 22.0001 8.23706 21.9987 8.3262 21.9958V22.0003H24.4455V21.9876C24.5764 21.996 24.7085 22.0003 24.8415 22.0003C28.18 22.0003 30.8863 19.314 30.8863 16.0003C30.8863 13.4749 29.3144 11.3139 27.0888 10.4287C26.8155 6.99449 25 3.991 22.3296 2.10044C21.8308 2.03436 21.3218 2.00024 20.8047 2.00024C16.2632 2.00024 12.3409 4.63214 10.5016 8.44314C7.35313 9.53156 5.09375 12.5039 5.09375 16C5.09375 18.3876 6.1475 20.5309 7.81856 21.9967C7.89799 21.999 7.97772 22.0001 8.05771 22.0001Z" fill="#4A56EE"/>
<path opacity="0.88" fill-rule="evenodd" clip-rule="evenodd" d="M13.4239 23.9956C13.3347 23.9985 13.2452 24 13.1554 24C8.70414 24 5.0957 20.4182 5.0957 16C5.0957 12.5039 7.35508 9.53156 10.5036 8.44314C12.3429 4.63213 16.2651 2.00024 20.8067 2.00024C26.8065 2.00024 31.7255 6.59371 32.1889 12.4309C34.4112 13.3177 35.9802 15.477 35.9802 18.0001C35.9802 21.3138 33.2739 24.0001 29.9354 24.0001C29.8037 24.0001 29.6729 23.9959 29.5432 23.9876V24.0001H24.6744C24.6742 24.0001 24.674 24.0002 24.6739 24.0002H16.9395C16.9393 24.0002 16.9392 24.0001 16.939 24.0001H13.4239V23.9956Z" fill="#4A56EE"/>
<path d="M42.668 15.0864C42.668 20.8394 45.9266 23.9999 53.5301 23.9999C60.4177 23.9999 63.8738 21.3579 64.3182 16.3456H59.8005C59.3808 19.1604 57.2084 20.2715 53.5301 20.2715C49.0371 20.2715 47.1116 18.6419 47.1116 15.0864C47.1116 11.5555 49.0124 9.95059 53.5301 9.95059C57.2331 9.95059 59.3808 11.037 59.8005 13.8271H64.3182C63.8738 8.83948 60.4177 6.22221 53.5301 6.22221C45.9266 6.22221 42.668 9.358 42.668 15.0864Z" fill="#4A56EE"/>
<path d="M66.3055 4V23.753H70.5269V4H66.3055Z" fill="#4A56EE"/>
<path d="M82.4529 23.9999C88.4517 23.9999 92.525 21.8271 92.525 16.4938C92.525 11.1358 88.4517 8.96294 82.4529 8.96294C76.4293 8.96294 72.3807 11.1358 72.3807 16.4938C72.3807 21.8271 76.4293 23.9999 82.4529 23.9999ZM82.4529 20.4691C78.5277 20.4691 76.6021 19.5061 76.6021 16.4938C76.6021 13.4567 78.5277 12.4938 82.4529 12.4938C86.3533 12.4938 88.2789 13.4567 88.2789 16.4938C88.2789 19.5061 86.3533 20.4691 82.4529 20.4691Z" fill="#4A56EE"/>
<path d="M110.376 9.20985V17.358C109.067 18.8888 106.006 20.3456 103.167 20.3456C99.6865 20.3456 98.6496 18.7407 98.6496 15.6543V9.20985H94.4035L94.3541 17.2592C94.4035 22.6172 98.0325 23.9999 101.908 23.9999C105.438 23.9999 108.302 22.8394 110.376 21.2098V23.753H114.597V9.20985H110.376Z" fill="#4A56EE"/>
<path d="M132.385 4V11.4814C130.805 9.82713 128.262 8.96294 125.127 8.96294C120.461 8.96294 116.462 10.9382 116.462 16.4938C116.462 22.0493 120.461 23.9999 125.127 23.9999C128.262 23.9999 130.805 23.1357 132.385 21.4814V23.753H136.606V4H132.385ZM126.534 20.4691C122.757 20.4691 120.708 19.358 120.708 16.4938C120.708 13.6049 122.757 12.4938 126.534 12.4938C130.311 12.4938 132.385 13.6049 132.385 16.4938C132.385 19.358 130.311 20.4691 126.534 20.4691Z" fill="#4A56EE"/>
<path d="M148.576 8.96294C145.539 8.96294 142.626 9.50615 139.664 10.4691L141.17 13.5555C144.157 12.6666 146.477 12.4938 148.378 12.4938C150.353 12.4938 153.908 12.716 153.908 15.4814C152.007 14.8395 149.711 14.4444 147.218 14.4444C142.602 14.4444 138.454 15.6296 138.454 19.4073C138.454 22.6913 140.997 23.9999 145.07 23.9999C148.502 23.9999 151.341 23.2098 153.908 21.9505V23.753H158.154V16.4197C158.105 10.9135 154.649 8.96294 148.576 8.96294ZM153.908 19.2345C151.736 20.1728 148.576 20.8888 146.28 20.8888C144.083 20.8888 142.676 20.7654 142.676 19.2345C142.676 17.753 144.576 17.2098 147.736 17.2098C150.427 17.2098 152.427 17.6296 153.908 18.0987V19.2345Z" fill="#4A56EE"/>
<path d="M159.313 23.753H164.991L170.324 18.9382L175.656 23.753H181.334L173.138 16.4938L181.334 9.20985H175.656L170.324 14.0246L164.991 9.20985H159.313L167.485 16.4938L159.313 23.753Z" fill="#4A56EE"/>
</svg>
