<svg width="90" height="90" viewBox="0 0 90 90" fill="none" xmlns="http://www.w3.org/2000/svg">
<circle cx="45" cy="45" r="45" fill="#5B68E8"/>
<path d="M59.5625 36.6668V41.0418C58.6458 40.9168 57.6042 40.8543 56.4375 40.8334V36.6668C56.4375 30.1042 54.5833 25.7292 45.5 25.7292C36.4167 25.7292 34.5625 30.1042 34.5625 36.6668V40.8334C33.3958 40.8543 32.3542 40.9168 31.4375 41.0418V36.6668C31.4375 30.6251 32.8958 22.6042 45.5 22.6042C58.1042 22.6042 59.5625 30.6251 59.5625 36.6668Z" fill="white"/>
<path d="M59.5638 41.0416C58.6471 40.9166 57.6055 40.8541 56.4388 40.8333H34.5638C33.3971 40.8541 32.3555 40.9166 31.4388 41.0416C26.1263 41.6874 24.668 44.2916 24.668 51.2499V55.4166C24.668 63.7499 26.7513 65.8333 35.0846 65.8333H55.918C64.2513 65.8333 66.3346 63.7499 66.3346 55.4166V51.2499C66.3346 44.2916 64.8763 41.6874 59.5638 41.0416ZM38.6471 54.8124C38.2513 55.1874 37.7096 55.4166 37.168 55.4166C36.8971 55.4166 36.6263 55.3541 36.3763 55.2499C36.1055 55.1458 35.8971 54.9999 35.6888 54.8124C35.3138 54.4166 35.0846 53.8749 35.0846 53.3333C35.0846 53.0624 35.1471 52.7916 35.2513 52.5416C35.3555 52.2916 35.5013 52.0624 35.6888 51.8541C35.8971 51.6666 36.1055 51.5208 36.3763 51.4166C37.1471 51.0833 38.0638 51.2708 38.6471 51.8541C38.8346 52.0624 38.9805 52.2916 39.0846 52.5416C39.1888 52.7916 39.2513 53.0624 39.2513 53.3333C39.2513 53.8749 39.0221 54.4166 38.6471 54.8124ZM47.418 54.1249C47.3138 54.3749 47.168 54.6041 46.9805 54.8124C46.5846 55.1874 46.043 55.4166 45.5013 55.4166C44.9388 55.4166 44.418 55.1874 44.0221 54.8124C43.8346 54.6041 43.6888 54.3749 43.5846 54.1249C43.4805 53.8749 43.418 53.6041 43.418 53.3333C43.418 52.7708 43.6471 52.2499 44.0221 51.8541C44.793 51.0833 46.1888 51.0833 46.9805 51.8541C47.3555 52.2499 47.5846 52.7708 47.5846 53.3333C47.5846 53.6041 47.5221 53.8749 47.418 54.1249ZM55.3138 54.8124C54.918 55.1874 54.3763 55.4166 53.8346 55.4166C53.293 55.4166 52.7513 55.1874 52.3555 54.8124C51.9805 54.4166 51.7513 53.8958 51.7513 53.3333C51.7513 52.7708 51.9805 52.2499 52.3555 51.8541C53.1471 51.0833 54.543 51.0833 55.3138 51.8541C55.3971 51.9583 55.4805 52.0624 55.5638 52.1874C55.6471 52.2916 55.7096 52.4166 55.7513 52.5416C55.8138 52.6666 55.8555 52.7916 55.8763 52.9166C55.8971 53.0624 55.918 53.2083 55.918 53.3333C55.918 53.8749 55.6888 54.4166 55.3138 54.8124Z" fill="white"/>
</svg>
