<svg width="90" height="90" viewBox="0 0 90 90" fill="none" xmlns="http://www.w3.org/2000/svg">
<circle cx="45" cy="45" r="45" fill="#5B68E8"/>
<path d="M65.7721 58.1875C65.7721 58.9375 65.6055 59.7083 65.2513 60.4583C64.8971 61.2083 64.4388 61.9166 63.8346 62.5833C62.8138 63.7083 61.6888 64.5208 60.418 65.0416C59.168 65.5625 57.8138 65.8333 56.3555 65.8333C54.2305 65.8333 51.9596 65.3333 49.5638 64.3125C47.168 63.2916 44.7721 61.9166 42.3971 60.1875C40.0013 58.4375 37.7305 56.5 35.5638 54.3541C33.418 52.1875 31.4805 49.9166 29.7513 47.5416C28.043 45.1666 26.668 42.7916 25.668 40.4375C24.668 38.0625 24.168 35.7916 24.168 33.625C24.168 32.2083 24.418 30.8541 24.918 29.6041C25.418 28.3333 26.2096 27.1666 27.3138 26.125C28.6471 24.8125 30.1055 24.1666 31.6471 24.1666C32.2305 24.1666 32.8138 24.2916 33.3346 24.5416C33.8763 24.7916 34.3555 25.1666 34.7305 25.7083L39.5638 32.5208C39.9388 33.0416 40.2096 33.5208 40.3971 33.9791C40.5846 34.4166 40.6888 34.8541 40.6888 35.25C40.6888 35.75 40.543 36.25 40.2513 36.7291C39.9805 37.2083 39.5846 37.7083 39.0846 38.2083L37.5013 39.8541C37.2721 40.0833 37.168 40.3541 37.168 40.6875C37.168 40.8541 37.1888 41 37.2305 41.1666C37.293 41.3333 37.3555 41.4583 37.3971 41.5833C37.7721 42.2708 38.418 43.1666 39.3346 44.25C40.2721 45.3333 41.2721 46.4375 42.3555 47.5416C43.4805 48.6458 44.5638 49.6666 45.668 50.6041C46.7513 51.5208 47.6471 52.1458 48.3555 52.5208C48.4596 52.5625 48.5846 52.625 48.7305 52.6875C48.8971 52.75 49.0638 52.7708 49.2513 52.7708C49.6055 52.7708 49.8763 52.6458 50.1055 52.4166L51.6888 50.8541C52.2096 50.3333 52.7096 49.9375 53.1888 49.6875C53.668 49.3958 54.1471 49.25 54.668 49.25C55.0638 49.25 55.4805 49.3333 55.9388 49.5208C56.3971 49.7083 56.8763 49.9791 57.3971 50.3333L64.293 55.2291C64.8346 55.6041 65.2096 56.0416 65.4388 56.5625C65.6471 57.0833 65.7721 57.6041 65.7721 58.1875Z" fill="white"/>
<path d="M58.5417 38.7499C58.5417 37.4999 57.5625 35.5833 56.1042 34.0208C54.7708 32.5833 53 31.4583 51.25 31.4583" stroke="white" stroke-width="1.5" stroke-linecap="round" stroke-linejoin="round"/>
<path d="M65.8333 38.75C65.8333 30.6875 59.3125 24.1666 51.25 24.1666" stroke="white" stroke-width="1.5" stroke-linecap="round" stroke-linejoin="round"/>
</svg>
