<svg width="40" height="40" viewBox="0 0 40 40" fill="none" xmlns="http://www.w3.org/2000/svg">
<circle cx="20" cy="20" r="20" fill="white"/>
<path d="M15.6849 25C15.4909 25 15.3281 24.9342 15.1966 24.8027C15.0655 24.6717 15 24.5091 15 24.3151V18.8356C15 18.6416 15.0655 18.4788 15.1966 18.3473C15.3281 18.2162 15.4909 18.1507 15.6849 18.1507C15.879 18.1507 16.0418 18.2162 16.1733 18.3473C16.3043 18.4788 16.3699 18.6416 16.3699 18.8356V22.6712L23.8527 15.1884C23.9783 15.0628 24.1324 15 24.3151 15C24.4977 15 24.6575 15.0685 24.7945 15.2055C24.9201 15.3311 24.9829 15.4909 24.9829 15.6849C24.9829 15.879 24.9201 16.0388 24.7945 16.1644L17.3288 23.6301H21.1644C21.3584 23.6301 21.5212 23.6959 21.6527 23.8274C21.7838 23.9584 21.8493 24.121 21.8493 24.3151C21.8493 24.5091 21.7838 24.6717 21.6527 24.8027C21.5212 24.9342 21.3584 25 21.1644 25H15.6849Z" fill="#767A7F"/>
</svg>
