<svg width="48" height="48" viewBox="0 0 48 48" fill="none" xmlns="http://www.w3.org/2000/svg">
<circle cx="24" cy="24" r="24" fill="#5B68E8"/>
<path d="M26.3478 14H21.6478C20.6078 14 19.7578 14.84 19.7578 15.88V16.82C19.7578 17.86 20.5978 18.7 21.6378 18.7H26.3478C27.3878 18.7 28.2278 17.86 28.2278 16.82V15.88C28.2378 14.84 27.3878 14 26.3478 14Z" fill="white"/>
<path d="M29.2391 16.82C29.2391 18.41 27.9391 19.71 26.3491 19.71H21.6491C20.0591 19.71 18.7591 18.41 18.7591 16.82C18.7591 16.26 18.1591 15.91 17.6591 16.17C16.2491 16.92 15.2891 18.41 15.2891 20.12V29.53C15.2891 31.99 17.2991 34 19.7591 34H28.2391C30.6991 34 32.7091 31.99 32.7091 29.53V20.12C32.7091 18.41 31.7491 16.92 30.3391 16.17C29.8391 15.91 29.2391 16.26 29.2391 16.82ZM27.3391 24.73L23.3391 28.73C23.1891 28.88 22.9991 28.95 22.8091 28.95C22.6191 28.95 22.4291 28.88 22.2791 28.73L20.7791 27.23C20.4891 26.94 20.4891 26.46 20.7791 26.17C21.0691 25.88 21.5491 25.88 21.8391 26.17L22.8091 27.14L26.2791 23.67C26.5691 23.38 27.0491 23.38 27.3391 23.67C27.6291 23.96 27.6291 24.44 27.3391 24.73Z" fill="white"/>
</svg>
