<svg width="90" height="90" viewBox="0 0 90 90" fill="none" xmlns="http://www.w3.org/2000/svg">
<circle cx="45" cy="45" r="45" fill="#5B68E8"/>
<path d="M59.1276 28.6872L47.6693 24.3955C46.4818 23.958 44.5443 23.958 43.3568 24.3955L31.8984 28.6872C29.6901 29.5205 27.8984 32.1038 27.8984 34.458V51.333C27.8984 53.0205 29.0026 55.2497 30.3568 56.2497L41.8151 64.8122C43.8359 66.333 47.1484 66.333 49.1693 64.8122L60.6276 56.2497C61.9818 55.2288 63.086 53.0205 63.086 51.333V34.458C63.1068 32.1038 61.3151 29.5205 59.1276 28.6872ZM47.0651 46.8122V52.2913C47.0651 53.1455 46.3568 53.8538 45.5026 53.8538C44.6484 53.8538 43.9401 53.1455 43.9401 52.2913V46.8122C41.8359 46.1455 40.2943 44.1872 40.2943 41.8747C40.2943 38.9997 42.6276 36.6663 45.5026 36.6663C48.3776 36.6663 50.7109 38.9997 50.7109 41.8747C50.7109 44.208 49.1693 46.1455 47.0651 46.8122Z" fill="white"/>
</svg>
