<svg width="47" height="47" viewBox="0 0 47 47" fill="none" xmlns="http://www.w3.org/2000/svg">
<circle cx="23.5" cy="23.5" r="23.5" fill="#5B68E8"/>
<path d="M30 14H18C15.79 14 14 15.78 14 17.97V28.03C14 30.22 15.79 32 18 32H30C32.21 32 34 30.22 34 28.03V17.97C34 15.78 32.21 14 30 14ZM20.5 18.17C21.77 18.17 22.81 19.21 22.81 20.48C22.81 21.75 21.77 22.79 20.5 22.79C19.23 22.79 18.19 21.75 18.19 20.48C18.19 19.21 19.23 18.17 20.5 18.17ZM24.37 27.66C24.28 27.76 24.14 27.82 24 27.82H17C16.86 27.82 16.72 27.76 16.63 27.66C16.54 27.56 16.49 27.42 16.5 27.28C16.67 25.6 18.01 24.27 19.69 24.11C20.22 24.06 20.77 24.06 21.3 24.11C22.98 24.27 24.33 25.6 24.49 27.28C24.51 27.42 24.46 27.56 24.37 27.66ZM31 27.75H29C28.59 27.75 28.25 27.41 28.25 27C28.25 26.59 28.59 26.25 29 26.25H31C31.41 26.25 31.75 26.59 31.75 27C31.75 27.41 31.41 27.75 31 27.75ZM31 23.75H27C26.59 23.75 26.25 23.41 26.25 23C26.25 22.59 26.59 22.25 27 22.25H31C31.41 22.25 31.75 22.59 31.75 23C31.75 23.41 31.41 23.75 31 23.75ZM31 19.75H26C25.59 19.75 25.25 19.41 25.25 19C25.25 18.59 25.59 18.25 26 18.25H31C31.41 18.25 31.75 18.59 31.75 19C31.75 19.41 31.41 19.75 31 19.75Z" fill="white"/>
</svg>
