<svg width="90" height="90" viewBox="0 0 90 90" fill="none" xmlns="http://www.w3.org/2000/svg">
<circle cx="45" cy="45" r="45" fill="#5B68E8"/>
<path d="M59.0625 36.6665V41.0415C58.1458 40.9165 57.1042 40.854 55.9375 40.8332V36.6665C55.9375 30.104 54.0833 25.729 45 25.729C35.9167 25.729 34.0625 30.104 34.0625 36.6665V40.8332C32.8958 40.854 31.8542 40.9165 30.9375 41.0415V36.6665C30.9375 30.6248 32.3958 22.604 45 22.604C57.6042 22.604 59.0625 30.6248 59.0625 36.6665Z" fill="white"/>
<path d="M59.0599 41.0418C58.1432 40.9168 57.1016 40.8543 55.9349 40.8335H34.0599C32.8932 40.8543 31.8516 40.9168 30.9349 41.0418C25.6224 41.6877 24.1641 44.2918 24.1641 51.2502V55.4168C24.1641 63.7502 26.2474 65.8335 34.5807 65.8335H55.4141C63.7474 65.8335 65.8307 63.7502 65.8307 55.4168V51.2502C65.8307 44.2918 64.3724 41.6877 59.0599 41.0418ZM38.1432 54.8127C37.7474 55.1877 37.2057 55.4168 36.6641 55.4168C36.3932 55.4168 36.1224 55.3543 35.8724 55.2502C35.6016 55.146 35.3932 55.0002 35.1849 54.8127C34.8099 54.4168 34.5807 53.8752 34.5807 53.3335C34.5807 53.0627 34.6432 52.7918 34.7474 52.5418C34.8516 52.2918 34.9974 52.0627 35.1849 51.8543C35.3932 51.6668 35.6016 51.521 35.8724 51.4168C36.6432 51.0835 37.5599 51.271 38.1432 51.8543C38.3307 52.0627 38.4766 52.2918 38.5807 52.5418C38.6849 52.7918 38.7474 53.0627 38.7474 53.3335C38.7474 53.8752 38.5182 54.4168 38.1432 54.8127ZM46.9141 54.1252C46.8099 54.3752 46.6641 54.6043 46.4766 54.8127C46.0807 55.1877 45.5391 55.4168 44.9974 55.4168C44.4349 55.4168 43.9141 55.1877 43.5182 54.8127C43.3307 54.6043 43.1849 54.3752 43.0807 54.1252C42.9766 53.8752 42.9141 53.6043 42.9141 53.3335C42.9141 52.771 43.1432 52.2502 43.5182 51.8543C44.2891 51.0835 45.6849 51.0835 46.4766 51.8543C46.8516 52.2502 47.0807 52.771 47.0807 53.3335C47.0807 53.6043 47.0182 53.8752 46.9141 54.1252ZM54.8099 54.8127C54.4141 55.1877 53.8724 55.4168 53.3307 55.4168C52.7891 55.4168 52.2474 55.1877 51.8516 54.8127C51.4766 54.4168 51.2474 53.896 51.2474 53.3335C51.2474 52.771 51.4766 52.2502 51.8516 51.8543C52.6432 51.0835 54.0391 51.0835 54.8099 51.8543C54.8932 51.9585 54.9766 52.0627 55.0599 52.1877C55.1432 52.2918 55.2057 52.4168 55.2474 52.5418C55.3099 52.6668 55.3516 52.7918 55.3724 52.9168C55.3932 53.0627 55.4141 53.2085 55.4141 53.3335C55.4141 53.8752 55.1849 54.4168 54.8099 54.8127Z" fill="white"/>
</svg>
