<svg width="55" height="55" viewBox="0 0 55 55" fill="none" xmlns="http://www.w3.org/2000/svg">
<ellipse cx="27.3324" cy="27.1213" rx="27.3324" ry="27.1213" fill="white"/>
<path d="M38.7145 22.094C38.7145 22.8399 38.0995 23.4501 37.3479 23.4501H17.3041C16.5525 23.4501 15.9375 22.8399 15.9375 22.094V22.0827C15.9375 19.4949 18.0444 17.4043 20.6523 17.4043H33.9883C36.5962 17.4043 38.7145 19.5062 38.7145 22.094Z" fill="#2B2E32"/>
<path d="M15.9375 26.4996V32.1612C15.9375 34.749 18.0444 36.8396 20.6523 36.8396H33.9883C36.5962 36.8396 38.7145 34.7377 38.7145 32.1499V26.4996C38.7145 25.7538 38.0995 25.1436 37.3479 25.1436H17.3041C16.5525 25.1436 15.9375 25.7538 15.9375 26.4996ZM22.7706 33.0539H20.4929C20.026 33.0539 19.6388 32.6697 19.6388 32.2064C19.6388 31.7431 20.026 31.3589 20.4929 31.3589H22.7706C23.2375 31.3589 23.6247 31.7431 23.6247 32.2064C23.6247 32.6697 23.2375 33.0539 22.7706 33.0539ZM30.1731 33.0539H25.6177C25.1508 33.0539 24.7636 32.6697 24.7636 32.2064C24.7636 31.7431 25.1508 31.3589 25.6177 31.3589H30.1731C30.6401 31.3589 31.0273 31.7431 31.0273 32.2064C31.0273 32.6697 30.6401 33.0539 30.1731 33.0539Z" fill="#2B2E32"/>
</svg>
