<svg width="40" height="40" viewBox="0 0 40 40" fill="none" xmlns="http://www.w3.org/2000/svg">
<circle cx="20" cy="20" r="20" fill="url(#paint0_linear_1742_9398)"/>
<path d="M29.7101 17.8999L27.3101 13.0799C26.8401 12.1299 25.5901 11.3599 24.5301 11.3599H15.4701C14.4101 11.3599 13.1601 12.1299 12.6901 13.0799L10.2901 17.8999C9.71009 19.0599 10.0301 20.7099 10.9801 21.5799L17.9101 27.8699C19.0601 28.9099 20.9301 28.9099 22.0801 27.8699L29.0101 21.5799C29.9701 20.7099 30.2901 19.0499 29.7101 17.8999ZM24.0001 17.2499H20.7501V22.4999C20.7501 22.9099 20.4101 23.2499 20.0001 23.2499C19.5901 23.2499 19.2501 22.9099 19.2501 22.4999V17.2499H16.0001C15.5901 17.2499 15.2501 16.9099 15.2501 16.4999C15.2501 16.0899 15.5901 15.7499 16.0001 15.7499H24.0001C24.4101 15.7499 24.7501 16.0899 24.7501 16.4999C24.7501 16.9099 24.4101 17.2499 24.0001 17.2499Z" fill="#F9F9FB"/>
<defs>
<linearGradient id="paint0_linear_1742_9398" x1="7" y1="40" x2="40" y2="4.5" gradientUnits="userSpaceOnUse">
<stop stop-color="#2BA529"/>
<stop offset="1" stop-color="#69D159" stop-opacity="0.69"/>
</linearGradient>
</defs>
</svg>
