<svg width="47" height="47" viewBox="0 0 47 47" fill="none" xmlns="http://www.w3.org/2000/svg">
<circle cx="23.5" cy="23.5" r="23.5" fill="#5B68E8"/>
<path d="M33.0736 16.23C31.4636 16.07 29.8536 15.95 28.2336 15.86V15.85L28.0136 14.55C27.8636 13.63 27.6436 12.25 25.3036 12.25H22.6836C20.3536 12.25 20.1336 13.57 19.9736 14.54L19.7636 15.82C18.8336 15.88 17.9036 15.94 16.9736 16.03L14.9336 16.23C14.5136 16.27 14.2136 16.64 14.2536 17.05C14.2936 17.46 14.6536 17.76 15.0736 17.72L17.1136 17.52C22.3536 17 27.6336 17.2 32.9336 17.73C32.9636 17.73 32.9836 17.73 33.0136 17.73C33.3936 17.73 33.7236 17.44 33.7636 17.05C33.7936 16.64 33.4936 16.27 33.0736 16.23Z" fill="white"/>
<path d="M31.2317 19.14C30.9917 18.89 30.6617 18.75 30.3217 18.75H17.6817C17.3417 18.75 17.0017 18.89 16.7717 19.14C16.5417 19.39 16.4117 19.73 16.4317 20.08L17.0517 30.34C17.1617 31.86 17.3017 33.76 20.7917 33.76H27.2117C30.7017 33.76 30.8417 31.87 30.9517 30.34L31.5717 20.09C31.5917 19.73 31.4617 19.39 31.2317 19.14ZM25.6617 28.75H22.3317C21.9217 28.75 21.5817 28.41 21.5817 28C21.5817 27.59 21.9217 27.25 22.3317 27.25H25.6617C26.0717 27.25 26.4117 27.59 26.4117 28C26.4117 28.41 26.0717 28.75 25.6617 28.75ZM26.5017 24.75H21.5017C21.0917 24.75 20.7517 24.41 20.7517 24C20.7517 23.59 21.0917 23.25 21.5017 23.25H26.5017C26.9117 23.25 27.2517 23.59 27.2517 24C27.2517 24.41 26.9117 24.75 26.5017 24.75Z" fill="white"/>
</svg>
