<svg width="90" height="90" viewBox="0 0 90 90" fill="none" xmlns="http://www.w3.org/2000/svg">
<circle cx="45" cy="45" r="45" fill="#5B68E8"/>
<path d="M59.0625 36.667V41.042C58.1458 40.917 57.1042 40.8545 55.9375 40.8337V36.667C55.9375 30.1045 54.0833 25.7295 45 25.7295C35.9167 25.7295 34.0625 30.1045 34.0625 36.667V40.8337C32.8958 40.8545 31.8542 40.917 30.9375 41.042V36.667C30.9375 30.6253 32.3958 22.6045 45 22.6045C57.6042 22.6045 59.0625 30.6253 59.0625 36.667Z" fill="white"/>
<path d="M59.0599 41.0413C58.1432 40.9163 57.1016 40.8538 55.9349 40.833H34.0599C32.8932 40.8538 31.8516 40.9163 30.9349 41.0413C25.6224 41.6872 24.1641 44.2913 24.1641 51.2497V55.4163C24.1641 63.7497 26.2474 65.833 34.5807 65.833H55.4141C63.7474 65.833 65.8307 63.7497 65.8307 55.4163V51.2497C65.8307 44.2913 64.3724 41.6872 59.0599 41.0413ZM38.1432 54.8122C37.7474 55.1872 37.2057 55.4163 36.6641 55.4163C36.3932 55.4163 36.1224 55.3538 35.8724 55.2497C35.6016 55.1455 35.3932 54.9997 35.1849 54.8122C34.8099 54.4163 34.5807 53.8747 34.5807 53.333C34.5807 53.0622 34.6432 52.7913 34.7474 52.5413C34.8516 52.2913 34.9974 52.0622 35.1849 51.8538C35.3932 51.6663 35.6016 51.5205 35.8724 51.4163C36.6432 51.083 37.5599 51.2705 38.1432 51.8538C38.3307 52.0622 38.4766 52.2913 38.5807 52.5413C38.6849 52.7913 38.7474 53.0622 38.7474 53.333C38.7474 53.8747 38.5182 54.4163 38.1432 54.8122ZM46.9141 54.1247C46.8099 54.3747 46.6641 54.6038 46.4766 54.8122C46.0807 55.1872 45.5391 55.4163 44.9974 55.4163C44.4349 55.4163 43.9141 55.1872 43.5182 54.8122C43.3307 54.6038 43.1849 54.3747 43.0807 54.1247C42.9766 53.8747 42.9141 53.6038 42.9141 53.333C42.9141 52.7705 43.1432 52.2497 43.5182 51.8538C44.2891 51.083 45.6849 51.083 46.4766 51.8538C46.8516 52.2497 47.0807 52.7705 47.0807 53.333C47.0807 53.6038 47.0182 53.8747 46.9141 54.1247ZM54.8099 54.8122C54.4141 55.1872 53.8724 55.4163 53.3307 55.4163C52.7891 55.4163 52.2474 55.1872 51.8516 54.8122C51.4766 54.4163 51.2474 53.8955 51.2474 53.333C51.2474 52.7705 51.4766 52.2497 51.8516 51.8538C52.6432 51.083 54.0391 51.083 54.8099 51.8538C54.8932 51.958 54.9766 52.0622 55.0599 52.1872C55.1432 52.2913 55.2057 52.4163 55.2474 52.5413C55.3099 52.6663 55.3516 52.7913 55.3724 52.9163C55.3932 53.0622 55.4141 53.208 55.4141 53.333C55.4141 53.8747 55.1849 54.4163 54.8099 54.8122Z" fill="white"/>
</svg>
