<svg width="54" height="54" viewBox="0 0 54 54" fill="none" xmlns="http://www.w3.org/2000/svg">
<circle opacity="0.07" cx="27" cy="27" r="27" fill="#F6A609"/>
<path d="M27 15.75C20.8012 15.75 15.75 20.8012 15.75 27C15.75 33.1987 20.8012 38.25 27 38.25C33.1987 38.25 38.25 33.1987 38.25 27C38.25 20.8012 33.1987 15.75 27 15.75ZM26.1562 22.5C26.1562 22.0387 26.5387 21.6562 27 21.6562C27.4612 21.6562 27.8437 22.0387 27.8437 22.5V28.125C27.8437 28.5862 27.4612 28.9687 27 28.9687C26.5387 28.9687 26.1562 28.5862 26.1562 28.125V22.5ZM28.035 31.9275C27.9787 32.0737 27.9 32.1862 27.7987 32.2987C27.6862 32.4 27.5625 32.4787 27.4275 32.535C27.2925 32.5912 27.1462 32.625 27 32.625C26.8537 32.625 26.7075 32.5912 26.5725 32.535C26.4375 32.4787 26.3137 32.4 26.2012 32.2987C26.1 32.1862 26.0212 32.0737 25.965 31.9275C25.9087 31.7925 25.875 31.6462 25.875 31.5C25.875 31.3537 25.9087 31.2075 25.965 31.0725C26.0212 30.9375 26.1 30.8137 26.2012 30.7012C26.3137 30.6 26.4375 30.5212 26.5725 30.465C26.8425 30.3525 27.1575 30.3525 27.4275 30.465C27.5625 30.5212 27.6862 30.6 27.7987 30.7012C27.9 30.8137 27.9787 30.9375 28.035 31.0725C28.0912 31.2075 28.125 31.3537 28.125 31.5C28.125 31.6462 28.0912 31.7925 28.035 31.9275Z" fill="#F6A609"/>
</svg>
