<svg width="90" height="90" viewBox="0 0 90 90" fill="none" xmlns="http://www.w3.org/2000/svg">
<circle cx="45" cy="45" r="45" fill="#5B68E8"/>
<path d="M61.2281 28.7916C55.0614 22.6458 45.0614 22.6458 38.9364 28.7916C34.6239 33.0625 33.3322 39.2083 34.9989 44.625L25.2072 54.4166C24.5197 55.125 24.0405 56.5208 24.1864 57.5208L24.8114 62.0625C25.0405 63.5625 26.4364 64.9791 27.9364 65.1875L32.478 65.8125C33.478 65.9583 34.8739 65.5 35.5822 64.7708L37.2905 63.0625C37.7072 62.6666 37.7072 62 37.2905 61.5833L33.2489 57.5416C32.6447 56.9375 32.6447 55.9375 33.2489 55.3333C33.853 54.7291 34.853 54.7291 35.4572 55.3333L39.5197 59.3958C39.9155 59.7916 40.5822 59.7916 40.978 59.3958L45.3947 55C50.7905 56.6875 56.9364 55.375 61.2281 51.1041C67.3739 44.9583 67.3739 34.9375 61.2281 28.7916ZM50.2072 45C47.3322 45 44.9989 42.6666 44.9989 39.7916C44.9989 36.9166 47.3322 34.5833 50.2072 34.5833C53.0822 34.5833 55.4155 36.9166 55.4155 39.7916C55.4155 42.6666 53.0822 45 50.2072 45Z" fill="white"/>
</svg>
