<svg width="47" height="47" viewBox="0 0 47 47" fill="none" xmlns="http://www.w3.org/2000/svg">
<circle cx="23.5" cy="23.5" r="23.5" fill="#5B68E8"/>
<path d="M33.2483 29.47L31.5983 29.86C31.2283 29.95 30.9383 30.23 30.8583 30.6L30.5083 32.07C30.3183 32.87 29.2983 33.12 28.7683 32.49L25.7783 29.05C25.5383 28.77 25.6683 28.33 26.0283 28.24C27.7983 27.81 29.3883 26.82 30.5583 25.41C30.7483 25.18 31.0883 25.15 31.2983 25.36L33.5183 27.58C34.2783 28.34 34.0083 29.29 33.2483 29.47Z" fill="#F8FEFF"/>
<path d="M14.6992 29.47L16.3492 29.86C16.7192 29.95 17.0092 30.23 17.0892 30.6L17.4392 32.07C17.6292 32.87 18.6492 33.12 19.1792 32.49L22.1692 29.05C22.4092 28.77 22.2792 28.33 21.9192 28.24C20.1492 27.81 18.5592 26.82 17.3892 25.41C17.1992 25.18 16.8592 25.15 16.6492 25.36L14.4292 27.58C13.6692 28.34 13.9392 29.29 14.6992 29.47Z" fill="#F8FEFF"/>
<path d="M24 13C20.13 13 17 16.13 17 20C17 21.45 17.43 22.78 18.17 23.89C19.25 25.49 20.96 26.62 22.95 26.91C23.29 26.97 23.64 27 24 27C24.36 27 24.71 26.97 25.05 26.91C27.04 26.62 28.75 25.49 29.83 23.89C30.57 22.78 31 21.45 31 20C31 16.13 27.87 13 24 13ZM27.06 19.78L26.23 20.61C26.09 20.75 26.01 21.02 26.06 21.22L26.3 22.25C26.49 23.06 26.06 23.38 25.34 22.95L24.34 22.36C24.16 22.25 23.86 22.25 23.68 22.36L22.68 22.95C21.96 23.37 21.53 23.06 21.72 22.25L21.96 21.22C22 21.03 21.93 20.75 21.79 20.61L20.94 19.78C20.45 19.29 20.61 18.8 21.29 18.69L22.36 18.51C22.54 18.48 22.75 18.32 22.83 18.16L23.42 16.98C23.74 16.34 24.26 16.34 24.58 16.98L25.17 18.16C25.25 18.32 25.46 18.48 25.65 18.51L26.72 18.69C27.39 18.8 27.55 19.29 27.06 19.78Z" fill="#F8FEFF"/>
</svg>
