<svg width="55" height="55" viewBox="0 0 55 55" fill="none" xmlns="http://www.w3.org/2000/svg">
<ellipse cx="27.3324" cy="27.1213" rx="27.3324" ry="27.1213" fill="white"/>
<path d="M38.7145 22.0935C38.7145 22.8393 38.0995 23.4495 37.3479 23.4495H17.3041C16.5525 23.4495 15.9375 22.8393 15.9375 22.0935V22.0822C15.9375 19.4943 18.0444 17.4037 20.6523 17.4037H33.9883C36.5962 17.4037 38.7145 19.5056 38.7145 22.0935Z" fill="#2B2E32"/>
<path d="M15.9375 26.5006V32.1622C15.9375 34.75 18.0444 36.8406 20.6523 36.8406H33.9883C36.5962 36.8406 38.7145 34.7387 38.7145 32.1509V26.5006C38.7145 25.7548 38.0995 25.1446 37.3479 25.1446H17.3041C16.5525 25.1446 15.9375 25.7548 15.9375 26.5006ZM22.7706 33.055H20.4929C20.026 33.055 19.6388 32.6707 19.6388 32.2074C19.6388 31.7441 20.026 31.3599 20.4929 31.3599H22.7706C23.2375 31.3599 23.6247 31.7441 23.6247 32.2074C23.6247 32.6707 23.2375 33.055 22.7706 33.055ZM30.1731 33.055H25.6177C25.1508 33.055 24.7636 32.6707 24.7636 32.2074C24.7636 31.7441 25.1508 31.3599 25.6177 31.3599H30.1731C30.6401 31.3599 31.0273 31.7441 31.0273 32.2074C31.0273 32.6707 30.6401 33.055 30.1731 33.055Z" fill="#2B2E32"/>
</svg>
