<svg width="40" height="41" viewBox="0 0 40 41" fill="none" xmlns="http://www.w3.org/2000/svg">
<circle cx="20" cy="20.5" r="20" fill="url(#paint0_linear_1808_13355)"/>
<path d="M16.81 26.875V28.4375C16.81 28.61 16.95 28.75 17.1225 28.75H18.3725C18.4554 28.75 18.5349 28.7171 18.5935 28.6585C18.6521 28.5999 18.685 28.5204 18.685 28.4375V26.875H19.31V28.4375C19.31 28.61 19.45 28.75 19.6225 28.75H20.8725C20.9554 28.75 21.0349 28.7171 21.0935 28.6585C21.1521 28.5999 21.185 28.5204 21.185 28.4375V26.875H21.29C23.78 26.875 25.56 25.5838 25.56 23.35C25.56 21.4725 24.3013 20.4462 22.8275 20.3V20.19C24.04 19.8875 24.9312 18.9725 24.9312 17.4525C24.9312 15.5375 23.4938 14.375 21.3 14.375H21.185V12.8125C21.185 12.7296 21.1521 12.6501 21.0935 12.5915C21.0349 12.5329 20.9554 12.5 20.8725 12.5H19.6225C19.5396 12.5 19.4601 12.5329 19.4015 12.5915C19.3429 12.6501 19.31 12.7296 19.31 12.8125V14.375H18.5938V12.8125C18.5938 12.7296 18.5608 12.6501 18.5022 12.5915C18.4436 12.5329 18.3641 12.5 18.2812 12.5H17.1225C17.0396 12.5 16.9601 12.5329 16.9015 12.5915C16.8429 12.6501 16.81 12.7296 16.81 12.8125V14.375L14.3125 14.3887C14.2296 14.3887 14.1501 14.4217 14.0915 14.4803C14.0329 14.5389 14 14.6184 14 14.7012V15.9375C14 16.1088 14.1375 16.25 14.31 16.25L15.2538 16.2437C15.5013 16.2454 15.7382 16.3449 15.9126 16.5205C16.0871 16.6962 16.185 16.9337 16.185 17.1812V24.0625C16.185 24.3111 16.0862 24.5496 15.9104 24.7254C15.7346 24.9012 15.4961 25 15.2475 25L14.3125 25.0138C14.2296 25.0138 14.1501 25.0467 14.0915 25.1053C14.0329 25.1639 14 25.2434 14 25.3263V26.5763C14 26.7487 14.14 26.8888 14.3125 26.8888L16.81 26.875ZM18.5938 16.2337H20.7425C21.875 16.2337 22.54 16.8562 22.54 17.8737C22.54 18.9625 21.8212 19.5762 20.1937 19.5762H18.5938V16.2337ZM18.5938 21.2975H20.8938C22.315 21.2975 23.0887 22.0225 23.0887 23.2025C23.0887 24.3938 22.3062 25.015 20.3912 25.015H18.5938V21.2987V21.2975Z" fill="#F8FEFF"/>
<defs>
<linearGradient id="paint0_linear_1808_13355" x1="4.5" y1="35.5" x2="47.5" y2="0.5" gradientUnits="userSpaceOnUse">
<stop stop-color="#FF9900"/>
<stop offset="1" stop-color="#FF9900" stop-opacity="0.46"/>
</linearGradient>
</defs>
</svg>
