<svg width="55" height="55" viewBox="0 0 55 55" fill="none" xmlns="http://www.w3.org/2000/svg">
<ellipse cx="27.3324" cy="27.1213" rx="27.3324" ry="27.1213" fill="white"/>
<path d="M38.7145 22.094C38.7145 22.8399 38.0995 23.4501 37.3479 23.4501H17.3041C16.5525 23.4501 15.9375 22.8399 15.9375 22.094V22.0827C15.9375 19.4949 18.0444 17.4043 20.6523 17.4043H33.9883C36.5962 17.4043 38.7145 19.5062 38.7145 22.094Z" fill="#2B2E32"/>
<path d="M15.9375 26.5025V32.1641C15.9375 34.7519 18.0444 36.8425 20.6523 36.8425H33.9883C36.5962 36.8425 38.7145 34.7406 38.7145 32.1528V26.5025C38.7145 25.7567 38.0995 25.1465 37.3479 25.1465H17.3041C16.5525 25.1465 15.9375 25.7567 15.9375 26.5025ZM22.7706 33.0569H20.4929C20.026 33.0569 19.6388 32.6726 19.6388 32.2093C19.6388 31.746 20.026 31.3618 20.4929 31.3618H22.7706C23.2375 31.3618 23.6247 31.746 23.6247 32.2093C23.6247 32.6726 23.2375 33.0569 22.7706 33.0569ZM30.1731 33.0569H25.6177C25.1508 33.0569 24.7636 32.6726 24.7636 32.2093C24.7636 31.746 25.1508 31.3618 25.6177 31.3618H30.1731C30.6401 31.3618 31.0273 31.746 31.0273 32.2093C31.0273 32.6726 30.6401 33.0569 30.1731 33.0569Z" fill="#2B2E32"/>
</svg>
