<svg width="49" height="48" viewBox="0 0 49 48" fill="none" xmlns="http://www.w3.org/2000/svg">
<circle cx="24.375" cy="24" r="24" fill="white"/>
<path d="M29.375 15.5H19.375C16.375 15.5 14.375 17 14.375 20.5V27.5C14.375 31 16.375 32.5 19.375 32.5H29.375C32.375 32.5 34.375 31 34.375 27.5V20.5C34.375 17 32.375 15.5 29.375 15.5ZM29.845 21.59L26.715 24.09C26.055 24.62 25.215 24.88 24.375 24.88C23.535 24.88 22.685 24.62 22.035 24.09L18.905 21.59C18.585 21.33 18.535 20.85 18.785 20.53C19.045 20.21 19.515 20.15 19.835 20.41L22.965 22.91C23.725 23.52 25.015 23.52 25.775 22.91L28.905 20.41C29.225 20.15 29.705 20.2 29.955 20.53C30.215 20.85 30.165 21.33 29.845 21.59Z" fill="#5B68E8"/>
</svg>
