<svg width="80" height="80" viewBox="0 0 80 80" fill="none" xmlns="http://www.w3.org/2000/svg">
<circle cx="40" cy="40" r="40" fill="#5B68E8"/>
<path d="M39.925 27.7623L36.9125 34.7748H33.9C33.4 34.7748 32.9125 34.8123 32.4375 34.9123L33.6875 31.9123L33.7375 31.7998L33.8125 31.5998C33.85 31.5123 33.875 31.4373 33.9125 31.3748C35.3625 28.0123 36.9875 26.9623 39.925 27.7623Z" fill="white"/>
<path d="M48.4109 35.1124L48.3859 35.0999C47.6359 34.8874 46.8734 34.7749 46.0984 34.7749H38.2734L41.0859 28.2374L41.1234 28.1499C41.2984 28.2124 41.4859 28.2999 41.6734 28.3624L44.4359 29.5249C45.9734 30.1624 47.0484 30.8249 47.7109 31.6249C47.8234 31.7749 47.9234 31.9124 48.0234 32.0749C48.1359 32.2499 48.2234 32.4249 48.2734 32.6124C48.3234 32.7249 48.3609 32.8249 48.3859 32.9374C48.5734 33.5749 48.5859 34.2999 48.4109 35.1124Z" fill="white"/>
<path d="M47.8633 36.8999C47.3008 36.7374 46.7133 36.6499 46.1008 36.6499H33.9008C33.0508 36.6499 32.2508 36.8124 31.5008 37.1374C29.3258 38.0749 27.8008 40.2374 27.8008 42.7499V45.1874C27.8008 45.4874 27.8258 45.7749 27.8633 46.0749C28.1383 50.0499 30.2633 52.1749 34.2383 52.4374C34.5258 52.4749 34.8133 52.4999 35.1258 52.4999H44.8758C49.5008 52.4999 51.9383 50.2999 52.1758 45.9249C52.1883 45.6874 52.2008 45.4374 52.2008 45.1874V42.7499C52.2008 39.9874 50.3633 37.6624 47.8633 36.8999ZM43.1258 45.2374H40.9383V47.4999C40.9383 48.0124 40.5133 48.4374 40.0008 48.4374C39.4883 48.4374 39.0633 48.0124 39.0633 47.4999V45.2374H36.8758C36.3633 45.2374 35.9383 44.8249 35.9383 44.2999C35.9383 43.7874 36.3633 43.3624 36.8758 43.3624H39.0633V41.2499C39.0633 40.7374 39.4883 40.3124 40.0008 40.3124C40.5133 40.3124 40.9383 40.7374 40.9383 41.2499V43.3624H43.1258C43.6383 43.3624 44.0633 43.7874 44.0633 44.2999C44.0633 44.8249 43.6383 45.2374 43.1258 45.2374Z" fill="white"/>
</svg>
