<svg width="91" height="90" viewBox="0 0 91 90" fill="none" xmlns="http://www.w3.org/2000/svg">
<circle cx="45.5" cy="45" r="45" fill="#5B68E8"/>
<path d="M55.918 27.2916H35.0846C28.8346 27.2916 24.668 30.4166 24.668 37.7083V52.2916C24.668 59.5833 28.8346 62.7083 35.0846 62.7083H55.918C62.168 62.7083 66.3346 59.5833 66.3346 52.2916V37.7083C66.3346 30.4166 62.168 27.2916 55.918 27.2916ZM56.8971 39.9791L50.3763 45.1875C49.0013 46.2916 47.2513 46.8333 45.5013 46.8333C43.7513 46.8333 41.9805 46.2916 40.6263 45.1875L34.1055 39.9791C33.4388 39.4375 33.3346 38.4375 33.8555 37.7708C34.3971 37.1041 35.3763 36.9791 36.043 37.5208L42.5638 42.7291C44.1471 44 46.8346 44 48.418 42.7291L54.9388 37.5208C55.6055 36.9791 56.6055 37.0833 57.1263 37.7708C57.668 38.4375 57.5638 39.4375 56.8971 39.9791Z" fill="white"/>
</svg>
