<svg width="90" height="90" viewBox="0 0 90 90" fill="none" xmlns="http://www.w3.org/2000/svg">
<circle cx="45" cy="45" r="45" fill="#5B68E8"/>
<path d="M61.232 28.7916C55.0653 22.6458 45.0653 22.6458 38.9403 28.7916C34.6278 33.0625 33.3361 39.2083 35.0028 44.625L25.2111 54.4166C24.5236 55.125 24.0445 56.5208 24.1903 57.5208L24.8153 62.0625C25.0445 63.5625 26.4403 64.9791 27.9403 65.1875L32.482 65.8125C33.482 65.9583 34.8778 65.5 35.5861 64.7708L37.2945 63.0625C37.7111 62.6666 37.7111 62 37.2945 61.5833L33.2528 57.5416C32.6486 56.9375 32.6486 55.9375 33.2528 55.3333C33.857 54.7291 34.857 54.7291 35.4611 55.3333L39.5236 59.3958C39.9195 59.7916 40.5861 59.7916 40.982 59.3958L45.3986 55C50.7945 56.6875 56.9403 55.375 61.232 51.1041C67.3778 44.9583 67.3778 34.9375 61.232 28.7916ZM50.2111 45C47.3361 45 45.0028 42.6666 45.0028 39.7916C45.0028 36.9166 47.3361 34.5833 50.2111 34.5833C53.0861 34.5833 55.4195 36.9166 55.4195 39.7916C55.4195 42.6666 53.0861 45 50.2111 45Z" fill="white"/>
</svg>
