<svg width="48" height="48" viewBox="0 0 48 48" fill="none" xmlns="http://www.w3.org/2000/svg">
<circle cx="24" cy="24" r="24" fill="white"/>
<path d="M34.47 30.33C34.47 30.69 34.39 31.06 34.22 31.42C34.05 31.78 33.83 32.12 33.54 32.44C33.05 32.98 32.51 33.37 31.9 33.62C31.3 33.87 30.65 34 29.95 34C28.93 34 27.84 33.76 26.69 33.27C25.54 32.78 24.39 32.12 23.25 31.29C22.1 30.45 21.01 29.52 19.97 28.49C18.94 27.45 18.01 26.36 17.18 25.22C16.36 24.08 15.7 22.94 15.22 21.81C14.74 20.67 14.5 19.58 14.5 18.54C14.5 17.86 14.62 17.21 14.86 16.61C15.1 16 15.48 15.44 16.01 14.94C16.65 14.31 17.35 14 18.09 14C18.37 14 18.65 14.06 18.9 14.18C19.16 14.3 19.39 14.48 19.57 14.74L21.89 18.01C22.07 18.26 22.2 18.49 22.29 18.71C22.38 18.92 22.43 19.13 22.43 19.32C22.43 19.56 22.36 19.8 22.22 20.03C22.09 20.26 21.9 20.5 21.66 20.74L20.9 21.53C20.79 21.64 20.74 21.77 20.74 21.93C20.74 22.01 20.75 22.08 20.77 22.16C20.8 22.24 20.83 22.3 20.85 22.36C21.03 22.69 21.34 23.12 21.78 23.64C22.23 24.16 22.71 24.69 23.23 25.22C23.77 25.75 24.29 26.24 24.82 26.69C25.34 27.13 25.77 27.43 26.11 27.61C26.16 27.63 26.22 27.66 26.29 27.69C26.37 27.72 26.45 27.73 26.54 27.73C26.71 27.73 26.84 27.67 26.95 27.56L27.71 26.81C27.96 26.56 28.2 26.37 28.43 26.25C28.66 26.11 28.89 26.04 29.14 26.04C29.33 26.04 29.53 26.08 29.75 26.17C29.97 26.26 30.2 26.39 30.45 26.56L33.76 28.91C34.02 29.09 34.2 29.3 34.31 29.55C34.41 29.8 34.47 30.05 34.47 30.33Z" fill="#2AC769"/>
<path d="M31 21C31 20.4 30.53 19.48 29.83 18.73C29.19 18.04 28.34 17.5 27.5 17.5" stroke="#2AC769" stroke-width="1.5" stroke-linecap="round" stroke-linejoin="round"/>
<path d="M34.5 21C34.5 17.13 31.37 14 27.5 14" stroke="#2AC769" stroke-width="1.5" stroke-linecap="round" stroke-linejoin="round"/>
</svg>
