<svg width="48" height="48" viewBox="0 0 48 48" fill="none" xmlns="http://www.w3.org/2000/svg">
<circle cx="24" cy="24" r="24" fill="white"/>
<path d="M29 25.4V28.4C29 32.4 27.4 34 23.4 34H19.6C15.6 34 14 32.4 14 28.4V24.6C14 20.6 15.6 19 19.6 19H22.6" stroke="#0F94F2" stroke-width="1.5" stroke-linecap="round" stroke-linejoin="round"/>
<path d="M29.0016 25.4H25.8016C23.4016 25.4 22.6016 24.6 22.6016 22.2V19L29.0016 25.4Z" stroke="#0F94F2" stroke-width="1.5" stroke-linecap="round" stroke-linejoin="round"/>
<path d="M23.6016 14H27.6016" stroke="#0F94F2" stroke-width="1.5" stroke-linecap="round" stroke-linejoin="round"/>
<path d="M19 17C19 15.34 20.34 14 22 14H24.62" stroke="#0F94F2" stroke-width="1.5" stroke-linecap="round" stroke-linejoin="round"/>
<path d="M34.0014 20V26.19C34.0014 27.74 32.7414 29 31.1914 29" stroke="#0F94F2" stroke-width="1.5" stroke-linecap="round" stroke-linejoin="round"/>
<path d="M34 20H31C28.75 20 28 19.25 28 17V14L34 20Z" stroke="#0F94F2" stroke-width="1.5" stroke-linecap="round" stroke-linejoin="round"/>
</svg>
