<svg width="81" height="80" viewBox="0 0 81 80" fill="none" xmlns="http://www.w3.org/2000/svg">
<circle cx="40.5" cy="40" r="40" fill="#5B68E8"/>
<path d="M46.8026 23.3333H34.2026C27.9026 23.3333 26.3359 25.0167 26.3359 31.7333V50.5C26.3359 54.9333 28.7693 55.9833 31.7193 52.8167L31.7359 52.8C33.1026 51.35 35.1859 51.4667 36.3693 53.05L38.0526 55.3C39.4026 57.0833 41.5859 57.0833 42.9359 55.3L44.6193 53.05C45.8193 51.45 47.9026 51.3333 49.2693 52.8C52.2359 55.9667 54.6526 54.9167 54.6526 50.4833V31.7333C54.6693 25.0167 53.1026 23.3333 46.8026 23.3333ZM45.0859 37.9167H35.9193C35.2359 37.9167 34.6693 37.35 34.6693 36.6667C34.6693 35.9833 35.2359 35.4167 35.9193 35.4167H45.0859C45.7693 35.4167 46.3359 35.9833 46.3359 36.6667C46.3359 37.35 45.7693 37.9167 45.0859 37.9167Z" fill="white"/>
</svg>
