<svg width="40" height="40" viewBox="0 0 40 40" fill="none" xmlns="http://www.w3.org/2000/svg">
<circle cx="20" cy="20" r="20" fill="white"/>
<path d="M19.9836 10.197C14.5816 10.197 10.1797 14.599 10.1797 20.0009C10.1797 25.4029 14.5816 29.8049 19.9836 29.8049C25.3856 29.8049 29.7875 25.4029 29.7875 20.0009C29.7875 14.599 25.3856 10.197 19.9836 10.197ZM19.2483 16.0794C19.2483 15.6774 19.5816 15.3441 19.9836 15.3441C20.3856 15.3441 20.7189 15.6774 20.7189 16.0794V20.9813C20.7189 21.3833 20.3856 21.7166 19.9836 21.7166C19.5816 21.7166 19.2483 21.3833 19.2483 20.9813V16.0794ZM20.8856 24.2951C20.8365 24.4225 20.7679 24.5205 20.6797 24.6186C20.5816 24.7068 20.4738 24.7755 20.3562 24.8245C20.2385 24.8735 20.1111 24.9029 19.9836 24.9029C19.8562 24.9029 19.7287 24.8735 19.6111 24.8245C19.4934 24.7755 19.3856 24.7068 19.2875 24.6186C19.1993 24.5205 19.1307 24.4225 19.0816 24.2951C19.0326 24.1774 19.0032 24.05 19.0032 23.9225C19.0032 23.7951 19.0326 23.6676 19.0816 23.55C19.1307 23.4323 19.1993 23.3245 19.2875 23.2264C19.3856 23.1382 19.4934 23.0696 19.6111 23.0205C19.8464 22.9225 20.1209 22.9225 20.3562 23.0205C20.4738 23.0696 20.5816 23.1382 20.6797 23.2264C20.7679 23.3245 20.8365 23.4323 20.8856 23.55C20.9346 23.6676 20.964 23.7951 20.964 23.9225C20.964 24.05 20.9346 24.1774 20.8856 24.2951Z" fill="#F6A609"/>
</svg>
