<svg width="40" height="40" viewBox="0 0 40 40" fill="none" xmlns="http://www.w3.org/2000/svg">
<circle cx="20" cy="20" r="20" fill="#5B68E8"/>
<path d="M24.9988 14.9998C24.4905 14.9998 24.0238 14.7082 23.7905 14.2582L23.1905 13.0498C22.8072 12.2915 21.8072 11.6665 20.9572 11.6665H19.0488C18.1905 11.6665 17.1905 12.2915 16.8072 13.0498L16.2072 14.2582C15.9738 14.7082 15.5072 14.9998 14.9988 14.9998C13.1905 14.9998 11.7572 16.5248 11.8738 18.3248L12.3072 25.2082C12.4072 26.9248 13.3322 28.3332 15.6322 28.3332H24.3655C26.6655 28.3332 27.5822 26.9248 27.6905 25.2082L28.1238 18.3248C28.2405 16.5248 26.8072 14.9998 24.9988 14.9998ZM18.7488 16.0415H21.2488C21.5905 16.0415 21.8738 16.3248 21.8738 16.6665C21.8738 17.0082 21.5905 17.2915 21.2488 17.2915H18.7488C18.4072 17.2915 18.1238 17.0082 18.1238 16.6665C18.1238 16.3248 18.4072 16.0415 18.7488 16.0415ZM19.9988 25.0998C18.4488 25.0998 17.1822 23.8415 17.1822 22.2832C17.1822 20.7248 18.4405 19.4665 19.9988 19.4665C21.5572 19.4665 22.8155 20.7248 22.8155 22.2832C22.8155 23.8415 21.5488 25.0998 19.9988 25.0998Z" fill="white"/>
</svg>
