<svg width="48" height="48" viewBox="0 0 48 48" fill="none" xmlns="http://www.w3.org/2000/svg">
<circle cx="24" cy="24" r="24" fill="#F9F9FA"/>
<path d="M21.1586 22.87C21.0586 22.86 20.9386 22.86 20.8286 22.87C18.4486 22.79 16.5586 20.84 16.5586 18.44C16.5586 15.99 18.5386 14 20.9986 14C23.4486 14 25.4386 15.99 25.4386 18.44C25.4286 20.84 23.5386 22.79 21.1586 22.87Z" stroke="#2B2E32" stroke-width="1.5" stroke-linecap="round" stroke-linejoin="round"/>
<path d="M28.4112 16C30.3512 16 31.9112 17.57 31.9112 19.5C31.9112 21.39 30.4113 22.93 28.5413 23C28.4613 22.99 28.3713 22.99 28.2812 23" stroke="#2B2E32" stroke-width="1.5" stroke-linecap="round" stroke-linejoin="round"/>
<path d="M16.1588 26.56C13.7387 28.18 13.7387 30.82 16.1588 32.43C18.9088 34.27 23.4188 34.27 26.1688 32.43C28.5888 30.81 28.5888 28.17 26.1688 26.56C23.4288 24.73 18.9188 24.73 16.1588 26.56Z" stroke="#2B2E32" stroke-width="1.5" stroke-linecap="round" stroke-linejoin="round"/>
<path d="M30.3398 32C31.0598 31.85 31.7398 31.56 32.2998 31.13C33.8598 29.96 33.8598 28.03 32.2998 26.86C31.7498 26.44 31.0798 26.16 30.3698 26" stroke="#2B2E32" stroke-width="1.5" stroke-linecap="round" stroke-linejoin="round"/>
</svg>
