<svg width="90" height="90" viewBox="0 0 90 90" fill="none" xmlns="http://www.w3.org/2000/svg">
<circle cx="45" cy="45" r="45" fill="#5B68E8"/>
<path d="M59.0625 36.6665V41.0415C58.1458 40.9165 57.1042 40.854 55.9375 40.8332V36.6665C55.9375 30.104 54.0833 25.729 45 25.729C35.9167 25.729 34.0625 30.104 34.0625 36.6665V40.8332C32.8958 40.854 31.8542 40.9165 30.9375 41.0415V36.6665C30.9375 30.6248 32.3958 22.604 45 22.604C57.6042 22.604 59.0625 30.6248 59.0625 36.6665Z" fill="white"/>
<path d="M59.0638 41.0418C58.1471 40.9168 57.1055 40.8543 55.9388 40.8335H34.0638C32.8971 40.8543 31.8555 40.9168 30.9388 41.0418C25.6263 41.6877 24.168 44.2918 24.168 51.2502V55.4168C24.168 63.7502 26.2513 65.8335 34.5846 65.8335H55.418C63.7513 65.8335 65.8346 63.7502 65.8346 55.4168V51.2502C65.8346 44.2918 64.3763 41.6877 59.0638 41.0418ZM38.1471 54.8127C37.7513 55.1877 37.2096 55.4168 36.668 55.4168C36.3971 55.4168 36.1263 55.3543 35.8763 55.2502C35.6055 55.146 35.3971 55.0002 35.1888 54.8127C34.8138 54.4168 34.5846 53.8752 34.5846 53.3335C34.5846 53.0627 34.6471 52.7918 34.7513 52.5418C34.8555 52.2918 35.0013 52.0627 35.1888 51.8543C35.3971 51.6668 35.6055 51.521 35.8763 51.4168C36.6471 51.0835 37.5638 51.271 38.1471 51.8543C38.3346 52.0627 38.4805 52.2918 38.5846 52.5418C38.6888 52.7918 38.7513 53.0627 38.7513 53.3335C38.7513 53.8752 38.5221 54.4168 38.1471 54.8127ZM46.918 54.1252C46.8138 54.3752 46.668 54.6043 46.4805 54.8127C46.0846 55.1877 45.543 55.4168 45.0013 55.4168C44.4388 55.4168 43.918 55.1877 43.5221 54.8127C43.3346 54.6043 43.1888 54.3752 43.0846 54.1252C42.9805 53.8752 42.918 53.6043 42.918 53.3335C42.918 52.771 43.1471 52.2502 43.5221 51.8543C44.293 51.0835 45.6888 51.0835 46.4805 51.8543C46.8555 52.2502 47.0846 52.771 47.0846 53.3335C47.0846 53.6043 47.0221 53.8752 46.918 54.1252ZM54.8138 54.8127C54.418 55.1877 53.8763 55.4168 53.3346 55.4168C52.793 55.4168 52.2513 55.1877 51.8555 54.8127C51.4805 54.4168 51.2513 53.896 51.2513 53.3335C51.2513 52.771 51.4805 52.2502 51.8555 51.8543C52.6471 51.0835 54.043 51.0835 54.8138 51.8543C54.8971 51.9585 54.9805 52.0627 55.0638 52.1877C55.1471 52.2918 55.2096 52.4168 55.2513 52.5418C55.3138 52.6668 55.3555 52.7918 55.3763 52.9168C55.3971 53.0627 55.418 53.2085 55.418 53.3335C55.418 53.8752 55.1888 54.4168 54.8138 54.8127Z" fill="white"/>
</svg>
