<svg width="90" height="90" viewBox="0 0 90 90" fill="none" xmlns="http://www.w3.org/2000/svg">
<circle cx="45" cy="45" r="45" fill="#5B68E8"/>
<path d="M64.2699 58.4791L60.8324 59.2916C60.0615 59.4791 59.4574 60.0624 59.2907 60.8332L58.5615 63.8957C58.1657 65.5624 56.0407 66.0832 54.9365 64.7707L48.7074 57.6041C48.2074 57.0207 48.4782 56.1041 49.2282 55.9166C52.9157 55.0207 56.2282 52.9582 58.6657 50.0207C59.0615 49.5416 59.7699 49.4791 60.2074 49.9166L64.8324 54.5416C66.4157 56.1249 65.8532 58.1041 64.2699 58.4791Z" fill="white"/>
<path d="M25.6266 58.4791L29.0641 59.2916C29.8349 59.4791 30.4391 60.0624 30.6057 60.8332L31.3349 63.8957C31.7307 65.5624 33.8557 66.0832 34.9599 64.7707L41.1891 57.6041C41.6891 57.0207 41.4182 56.1041 40.6682 55.9166C36.9807 55.0207 33.6682 52.9582 31.2307 50.0207C30.8349 49.5416 30.1266 49.4791 29.6891 49.9166L25.0641 54.5416C23.4807 56.1249 24.0432 58.1041 25.6266 58.4791Z" fill="white"/>
<path d="M45.0013 24.1665C36.9388 24.1665 30.418 30.6873 30.418 38.7498C30.418 41.7707 31.3138 44.5415 32.8555 46.854C35.1055 50.1873 38.668 52.5415 42.8138 53.1457C43.5221 53.2707 44.2513 53.3332 45.0013 53.3332C45.7513 53.3332 46.4805 53.2707 47.1888 53.1457C51.3346 52.5415 54.8971 50.1873 57.1471 46.854C58.6888 44.5415 59.5846 41.7707 59.5846 38.7498C59.5846 30.6873 53.0638 24.1665 45.0013 24.1665ZM51.3763 38.2915L49.6471 40.0207C49.3555 40.3123 49.1888 40.8748 49.293 41.2915L49.793 43.4373C50.1888 45.1248 49.293 45.7915 47.793 44.8957L45.7096 43.6665C45.3346 43.4373 44.7096 43.4373 44.3346 43.6665L42.2513 44.8957C40.7513 45.7707 39.8555 45.1248 40.2513 43.4373L40.7513 41.2915C40.8346 40.8957 40.6888 40.3123 40.3971 40.0207L38.6263 38.2915C37.6055 37.2707 37.9388 36.2498 39.3555 36.0207L41.5846 35.6457C41.9596 35.5832 42.3971 35.2498 42.5638 34.9165L43.793 32.4582C44.4596 31.1248 45.543 31.1248 46.2096 32.4582L47.4388 34.9165C47.6055 35.2498 48.043 35.5832 48.4388 35.6457L50.668 36.0207C52.0638 36.2498 52.3971 37.2707 51.3763 38.2915Z" fill="white"/>
</svg>
