<svg width="48" height="48" viewBox="0 0 48 48" fill="none" xmlns="http://www.w3.org/2000/svg">
<circle cx="24" cy="24" r="24" fill="#5B68E8"/>
<path d="M26.3478 14H21.6478C20.6078 14 19.7578 14.84 19.7578 15.88V16.82C19.7578 17.86 20.5978 18.7 21.6378 18.7H26.3478C27.3878 18.7 28.2278 17.86 28.2278 16.82V15.88C28.2378 14.84 27.3878 14 26.3478 14Z" fill="white"/>
<path d="M29.2391 16.8205C29.2391 18.4105 27.9391 19.7105 26.3491 19.7105H21.6491C20.0591 19.7105 18.7591 18.4105 18.7591 16.8205C18.7591 16.2605 18.1591 15.9105 17.6591 16.1705C16.2491 16.9205 15.2891 18.4105 15.2891 20.1205V29.5305C15.2891 31.9905 17.2991 34.0005 19.7591 34.0005H28.2391C30.6991 34.0005 32.7091 31.9905 32.7091 29.5305V20.1205C32.7091 18.4105 31.7491 16.9205 30.3391 16.1705C29.8391 15.9105 29.2391 16.2605 29.2391 16.8205ZM27.3391 24.7305L23.3391 28.7305C23.1891 28.8805 22.9991 28.9505 22.8091 28.9505C22.6191 28.9505 22.4291 28.8805 22.2791 28.7305L20.7791 27.2305C20.4891 26.9405 20.4891 26.4605 20.7791 26.1705C21.0691 25.8805 21.5491 25.8805 21.8391 26.1705L22.8091 27.1405L26.2791 23.6705C26.5691 23.3805 27.0491 23.3805 27.3391 23.6705C27.6291 23.9605 27.6291 24.4405 27.3391 24.7305Z" fill="white"/>
</svg>
