<svg width="42" height="42" viewBox="0 0 42 42" fill="none" xmlns="http://www.w3.org/2000/svg">
<circle cx="20.9058" cy="20.9507" r="20.9058" fill="url(#paint0_linear_1808_11961)"/>
<path d="M17.5701 27.6139V29.2472C17.5701 29.4275 17.7164 29.5739 17.8967 29.5739H19.2033C19.29 29.5739 19.3731 29.5394 19.4343 29.4782C19.4956 29.4169 19.53 29.3338 19.53 29.2472V27.6139H20.1833V29.2472C20.1833 29.4275 20.3296 29.5739 20.51 29.5739H21.8166C21.9032 29.5739 21.9863 29.5394 22.0475 29.4782C22.1088 29.4169 22.1432 29.3338 22.1432 29.2472V27.6139H22.253C24.8557 27.6139 26.7164 26.2642 26.7164 23.9293C26.7164 21.9668 25.4006 20.894 23.8601 20.7412V20.6262C25.1275 20.31 26.0591 19.3535 26.0591 17.7647C26.0591 15.763 24.5565 14.5478 22.2634 14.5478H22.1432V12.9145C22.1432 12.8279 22.1088 12.7448 22.0475 12.6836C21.9863 12.6223 21.9032 12.5879 21.8166 12.5879H20.51C20.4233 12.5879 20.3402 12.6223 20.279 12.6836C20.2177 12.7448 20.1833 12.8279 20.1833 12.9145V14.5478H19.4346V12.9145C19.4346 12.8279 19.4002 12.7448 19.3389 12.6836C19.2777 12.6223 19.1946 12.5879 19.108 12.5879H17.8967C17.8101 12.5879 17.727 12.6223 17.6658 12.6836C17.6045 12.7448 17.5701 12.8279 17.5701 12.9145V14.5478L14.9595 14.5622C14.8728 14.5622 14.7897 14.5966 14.7285 14.6579C14.6672 14.7191 14.6328 14.8022 14.6328 14.8888V16.1811C14.6328 16.3601 14.7765 16.5077 14.9569 16.5077L15.9433 16.5012C16.2021 16.5029 16.4497 16.6069 16.6321 16.7905C16.8144 16.9741 16.9168 17.2224 16.9168 17.4812V24.6741C16.9168 24.934 16.8135 25.1832 16.6297 25.367C16.446 25.5508 16.1967 25.654 15.9368 25.654L14.9595 25.6684C14.8728 25.6684 14.7897 25.7028 14.7285 25.7641C14.6672 25.8253 14.6328 25.9084 14.6328 25.995V27.3017C14.6328 27.482 14.7792 27.6283 14.9595 27.6283L17.5701 27.6139ZM19.4346 16.4907H21.6807C22.8645 16.4907 23.5596 17.1414 23.5596 18.205C23.5596 19.3431 22.8083 19.9846 21.1071 19.9846H19.4346V16.4907ZM19.4346 21.7838H21.8388C23.3244 21.7838 24.1332 22.5417 24.1332 23.7751C24.1332 25.0203 23.3153 25.6697 21.3135 25.6697H19.4346V21.7851V21.7838Z" fill="#F8FEFF"/>
<defs>
<linearGradient id="paint0_linear_1808_11961" x1="4.7038" y1="36.6301" x2="49.6513" y2="0.0449221" gradientUnits="userSpaceOnUse">
<stop stop-color="#FF9900"/>
<stop offset="1" stop-color="#FF9900" stop-opacity="0.46"/>
</linearGradient>
</defs>
</svg>
