<svg width="34" height="34" viewBox="0 0 34 34" fill="none" xmlns="http://www.w3.org/2000/svg">
<circle cx="17" cy="17" r="17" fill="white"/>
<path d="M16.9974 8.6665C12.4057 8.6665 8.66406 12.4082 8.66406 16.9998C8.66406 21.5915 12.4057 25.3332 16.9974 25.3332C21.5891 25.3332 25.3307 21.5915 25.3307 16.9998C25.3307 12.4082 21.5891 8.6665 16.9974 8.6665ZM16.3724 13.6665C16.3724 13.3248 16.6557 13.0415 16.9974 13.0415C17.3391 13.0415 17.6224 13.3248 17.6224 13.6665V17.8332C17.6224 18.1748 17.3391 18.4582 16.9974 18.4582C16.6557 18.4582 16.3724 18.1748 16.3724 17.8332V13.6665ZM17.7641 20.6498C17.7224 20.7582 17.6641 20.8415 17.5891 20.9248C17.5057 20.9998 17.4141 21.0582 17.3141 21.0998C17.2141 21.1415 17.1057 21.1665 16.9974 21.1665C16.8891 21.1665 16.7807 21.1415 16.6807 21.0998C16.5807 21.0582 16.4891 20.9998 16.4057 20.9248C16.3307 20.8415 16.2724 20.7582 16.2307 20.6498C16.1891 20.5498 16.1641 20.4415 16.1641 20.3332C16.1641 20.2248 16.1891 20.1165 16.2307 20.0165C16.2724 19.9165 16.3307 19.8248 16.4057 19.7415C16.4891 19.6665 16.5807 19.6082 16.6807 19.5665C16.8807 19.4832 17.1141 19.4832 17.3141 19.5665C17.4141 19.6082 17.5057 19.6665 17.5891 19.7415C17.6641 19.8248 17.7224 19.9165 17.7641 20.0165C17.8057 20.1165 17.8307 20.2248 17.8307 20.3332C17.8307 20.4415 17.8057 20.5498 17.7641 20.6498Z" fill="#F6A609"/>
</svg>
