<svg width="90" height="90" viewBox="0 0 90 90" fill="none" xmlns="http://www.w3.org/2000/svg">
<circle cx="45" cy="45" r="45" fill="#5B68E8"/>
<path d="M64.2699 58.4791L60.8324 59.2916C60.0615 59.4791 59.4574 60.0624 59.2907 60.8332L58.5615 63.8957C58.1657 65.5624 56.0407 66.0832 54.9365 64.7707L48.7074 57.6041C48.2074 57.0207 48.4782 56.1041 49.2282 55.9166C52.9157 55.0207 56.2282 52.9582 58.6657 50.0207C59.0615 49.5416 59.7699 49.4791 60.2074 49.9166L64.8324 54.5416C66.4157 56.1249 65.8532 58.1041 64.2699 58.4791Z" fill="white"/>
<path d="M25.6227 58.4791L29.0602 59.2916C29.831 59.4791 30.4352 60.0624 30.6018 60.8332L31.331 63.8957C31.7268 65.5624 33.8518 66.0832 34.956 64.7707L41.1852 57.6041C41.6852 57.0207 41.4143 56.1041 40.6643 55.9166C36.9768 55.0207 33.6643 52.9582 31.2268 50.0207C30.831 49.5416 30.1227 49.4791 29.6852 49.9166L25.0602 54.5416C23.4768 56.1249 24.0393 58.1041 25.6227 58.4791Z" fill="white"/>
<path d="M44.9974 24.1665C36.9349 24.1665 30.4141 30.6873 30.4141 38.7498C30.4141 41.7707 31.3099 44.5415 32.8516 46.854C35.1016 50.1873 38.6641 52.5415 42.8099 53.1457C43.5182 53.2707 44.2474 53.3332 44.9974 53.3332C45.7474 53.3332 46.4766 53.2707 47.1849 53.1457C51.3307 52.5415 54.8932 50.1873 57.1432 46.854C58.6849 44.5415 59.5807 41.7707 59.5807 38.7498C59.5807 30.6873 53.0599 24.1665 44.9974 24.1665ZM51.3724 38.2915L49.6432 40.0207C49.3516 40.3123 49.1849 40.8748 49.2891 41.2915L49.7891 43.4373C50.1849 45.1248 49.2891 45.7915 47.7891 44.8957L45.7057 43.6665C45.3307 43.4373 44.7057 43.4373 44.3307 43.6665L42.2474 44.8957C40.7474 45.7707 39.8516 45.1248 40.2474 43.4373L40.7474 41.2915C40.8307 40.8957 40.6849 40.3123 40.3932 40.0207L38.6224 38.2915C37.6016 37.2707 37.9349 36.2498 39.3516 36.0207L41.5807 35.6457C41.9557 35.5832 42.3932 35.2498 42.5599 34.9165L43.7891 32.4582C44.4557 31.1248 45.5391 31.1248 46.2057 32.4582L47.4349 34.9165C47.6016 35.2498 48.0391 35.5832 48.4349 35.6457L50.6641 36.0207C52.0599 36.2498 52.3932 37.2707 51.3724 38.2915Z" fill="white"/>
</svg>
