<svg width="80" height="80" viewBox="0 0 80 80" fill="none" xmlns="http://www.w3.org/2000/svg">
<circle cx="40" cy="40" r="40" fill="#5B68E8"/>
<path d="M52.5 34.4375C52.5 35.2625 51.825 35.9375 51 35.9375H29C28.175 35.9375 27.5 35.2625 27.5 34.4375V34.425C27.5 31.5625 29.8125 29.25 32.675 29.25H47.3125C50.175 29.25 52.5 31.575 52.5 34.4375Z" fill="white"/>
<path d="M27.5 39.3125V45.575C27.5 48.4375 29.8125 50.75 32.675 50.75H47.3125C50.175 50.75 52.5 48.425 52.5 45.5625V39.3125C52.5 38.4875 51.825 37.8125 51 37.8125H29C28.175 37.8125 27.5 38.4875 27.5 39.3125ZM35 46.5625H32.5C31.9875 46.5625 31.5625 46.1375 31.5625 45.625C31.5625 45.1125 31.9875 44.6875 32.5 44.6875H35C35.5125 44.6875 35.9375 45.1125 35.9375 45.625C35.9375 46.1375 35.5125 46.5625 35 46.5625ZM43.125 46.5625H38.125C37.6125 46.5625 37.1875 46.1375 37.1875 45.625C37.1875 45.1125 37.6125 44.6875 38.125 44.6875H43.125C43.6375 44.6875 44.0625 45.1125 44.0625 45.625C44.0625 46.1375 43.6375 46.5625 43.125 46.5625Z" fill="white"/>
</svg>
