<svg width="91" height="90" viewBox="0 0 91 90" fill="none" xmlns="http://www.w3.org/2000/svg">
<circle cx="45.5" cy="45" r="45" fill="#5B68E8"/>
<path d="M59.6276 28.5827L48.1693 24.291C46.9818 23.8535 45.0443 23.8535 43.8568 24.291L32.3984 28.5827C30.1901 29.416 28.3984 31.9993 28.3984 34.3535V51.2285C28.3984 52.916 29.5026 55.1452 30.8568 56.1452L42.3151 64.7077C44.3359 66.2285 47.6484 66.2285 49.6693 64.7077L61.1276 56.1452C62.4818 55.1244 63.5859 52.916 63.5859 51.2285V34.3535C63.6068 31.9993 61.8151 29.416 59.6276 28.5827ZM53.2526 40.2493L44.2943 49.2077C43.9818 49.5202 43.5859 49.666 43.1901 49.666C42.7943 49.666 42.3984 49.5202 42.0859 49.2077L38.7526 45.8327C38.1484 45.2285 38.1484 44.2285 38.7526 43.6243C39.3568 43.0202 40.3568 43.0202 40.9609 43.6243L43.2109 45.8743L51.0651 38.0202C51.6693 37.416 52.6693 37.416 53.2734 38.0202C53.8776 38.6243 53.8776 39.6452 53.2526 40.2493Z" fill="white"/>
</svg>
