<svg width="40" height="40" viewBox="0 0 40 40" fill="none" xmlns="http://www.w3.org/2000/svg">
<circle cx="20" cy="20" r="20" fill="#5B68E8"/>
<path d="M24.9988 15.0003C24.4905 15.0003 24.0238 14.7087 23.7905 14.2587L23.1905 13.0503C22.8072 12.292 21.8072 11.667 20.9572 11.667H19.0488C18.1905 11.667 17.1905 12.292 16.8072 13.0503L16.2072 14.2587C15.9738 14.7087 15.5072 15.0003 14.9988 15.0003C13.1905 15.0003 11.7572 16.5253 11.8738 18.3253L12.3072 25.2087C12.4072 26.9253 13.3322 28.3337 15.6322 28.3337H24.3655C26.6655 28.3337 27.5822 26.9253 27.6905 25.2087L28.1238 18.3253C28.2405 16.5253 26.8072 15.0003 24.9988 15.0003ZM18.7488 16.042H21.2488C21.5905 16.042 21.8738 16.3253 21.8738 16.667C21.8738 17.0087 21.5905 17.292 21.2488 17.292H18.7488C18.4072 17.292 18.1238 17.0087 18.1238 16.667C18.1238 16.3253 18.4072 16.042 18.7488 16.042ZM19.9988 25.1003C18.4488 25.1003 17.1822 23.842 17.1822 22.2837C17.1822 20.7253 18.4405 19.467 19.9988 19.467C21.5572 19.467 22.8155 20.7253 22.8155 22.2837C22.8155 23.842 21.5488 25.1003 19.9988 25.1003Z" fill="white"/>
</svg>
