<svg width="47" height="47" viewBox="0 0 47 47" fill="none" xmlns="http://www.w3.org/2000/svg">
<circle cx="23.5" cy="23.5" r="23.5" fill="#5B68E8"/>
<path d="M31.1709 17.64C30.7409 15.47 29.1309 14.52 26.8909 14.52H18.1109C15.4709 14.52 13.7109 15.84 13.7109 18.92V24.07C13.7109 26.29 14.6209 27.59 16.1209 28.15C16.3409 28.23 16.5809 28.3 16.8309 28.34C17.2309 28.43 17.6609 28.47 18.1109 28.47H26.9009C29.5409 28.47 31.3009 27.15 31.3009 24.07V18.92C31.3009 18.45 31.2609 18.03 31.1709 17.64ZM17.5309 23C17.5309 23.41 17.1909 23.75 16.7809 23.75C16.3709 23.75 16.0309 23.41 16.0309 23V20C16.0309 19.59 16.3709 19.25 16.7809 19.25C17.1909 19.25 17.5309 19.59 17.5309 20V23ZM22.5009 24.14C21.0409 24.14 19.8609 22.96 19.8609 21.5C19.8609 20.04 21.0409 18.86 22.5009 18.86C23.9609 18.86 25.1409 20.04 25.1409 21.5C25.1409 22.96 23.9609 24.14 22.5009 24.14ZM28.9609 23C28.9609 23.41 28.6209 23.75 28.2109 23.75C27.8009 23.75 27.4609 23.41 27.4609 23V20C27.4609 19.59 27.8009 19.25 28.2109 19.25C28.6209 19.25 28.9609 19.59 28.9609 20V23Z" fill="#F8FEFF"/>
<path d="M34.3017 21.92V27.07C34.3017 30.15 32.5417 31.48 29.8917 31.48H21.1117C20.3617 31.48 19.6917 31.37 19.1117 31.15C18.6417 30.98 18.2317 30.73 17.9017 30.41C17.7217 30.24 17.8617 29.97 18.1117 29.97H26.8917C30.5917 29.97 32.7917 27.77 32.7917 24.08V18.92C32.7917 18.68 33.0617 18.53 33.2317 18.71C33.9117 19.43 34.3017 20.48 34.3017 21.92Z" fill="#F8FEFF"/>
</svg>
