<svg width="47" height="47" viewBox="0 0 47 47" fill="none" xmlns="http://www.w3.org/2000/svg">
<circle cx="23.5" cy="23.5" r="23.5" fill="#5B68E8"/>
<path d="M31.7926 15.2201C28.8326 12.2701 24.0326 12.2701 21.0926 15.2201C19.0226 17.2701 18.4026 20.2201 19.2026 22.8201L14.5026 27.5201C14.1726 27.8601 13.9426 28.5301 14.0126 29.0101L14.3126 31.1901C14.4226 31.9101 15.0926 32.5901 15.8126 32.6901L17.9926 32.9901C18.4726 33.0601 19.1426 32.8401 19.4826 32.4901L20.3026 31.6701C20.5026 31.4801 20.5026 31.1601 20.3026 30.9601L18.3626 29.0201C18.0726 28.7301 18.0726 28.2501 18.3626 27.9601C18.6526 27.6701 19.1326 27.6701 19.4226 27.9601L21.3726 29.9101C21.5626 30.1001 21.8826 30.1001 22.0726 29.9101L24.1926 27.8001C26.7826 28.6101 29.7326 27.9801 31.7926 25.9301C34.7426 22.9801 34.7426 18.1701 31.7926 15.2201ZM26.5026 23.0001C25.1226 23.0001 24.0026 21.8801 24.0026 20.5001C24.0026 19.1201 25.1226 18.0001 26.5026 18.0001C27.8826 18.0001 29.0026 19.1201 29.0026 20.5001C29.0026 21.8801 27.8826 23.0001 26.5026 23.0001Z" fill="white"/>
</svg>
