<svg width="40" height="40" viewBox="0 0 40 40" fill="none" xmlns="http://www.w3.org/2000/svg">
<circle cx="20" cy="20" r="20" fill="white"/>
<path d="M24.2994 15C24.4935 15 24.6563 15.0658 24.7878 15.1973C24.9188 15.3283 24.9844 15.4909 24.9844 15.6849V21.1644C24.9844 21.3584 24.9188 21.5212 24.7878 21.6527C24.6563 21.7838 24.4935 21.8493 24.2994 21.8493C24.1054 21.8493 23.9426 21.7838 23.8111 21.6527C23.68 21.5212 23.6145 21.3584 23.6145 21.1644V17.3288L16.1316 24.8116C16.0061 24.9372 15.852 25 15.6693 25C15.4867 25 15.3268 24.9315 15.1899 24.7945C15.0643 24.6689 15.0015 24.5091 15.0015 24.3151C15.0015 24.121 15.0643 23.9612 15.1899 23.8356L22.6556 16.3699H18.82C18.6259 16.3699 18.4631 16.3041 18.3316 16.1726C18.2006 16.0416 18.1351 15.879 18.1351 15.6849C18.1351 15.4909 18.2006 15.3283 18.3316 15.1973C18.4631 15.0658 18.6259 15 18.82 15H24.2994Z" fill="#767A7F"/>
</svg>
