<svg width="90" height="90" viewBox="0 0 90 90" fill="none" xmlns="http://www.w3.org/2000/svg">
<circle cx="45" cy="45" r="45" fill="#5B68E8"/>
<path d="M59.5625 36.6667V41.0417C58.6458 40.9167 57.6042 40.8542 56.4375 40.8334V36.6667C56.4375 30.1042 54.5833 25.7292 45.5 25.7292C36.4167 25.7292 34.5625 30.1042 34.5625 36.6667V40.8334C33.3958 40.8542 32.3542 40.9167 31.4375 41.0417V36.6667C31.4375 30.625 32.8958 22.6042 45.5 22.6042C58.1042 22.6042 59.5625 30.625 59.5625 36.6667Z" fill="white"/>
<path d="M59.5618 41.0416C58.6452 40.9166 57.6035 40.8541 56.4368 40.8333H34.5618C33.3952 40.8541 32.3535 40.9166 31.4368 41.0416C26.1243 41.6875 24.666 44.2916 24.666 51.25V55.4166C24.666 63.75 26.7493 65.8333 35.0827 65.8333H55.916C64.2493 65.8333 66.3327 63.75 66.3327 55.4166V51.25C66.3327 44.2916 64.8743 41.6875 59.5618 41.0416ZM38.6452 54.8125C38.2493 55.1875 37.7077 55.4166 37.166 55.4166C36.8952 55.4166 36.6243 55.3541 36.3743 55.25C36.1035 55.1458 35.8952 55 35.6868 54.8125C35.3118 54.4166 35.0827 53.875 35.0827 53.3333C35.0827 53.0625 35.1452 52.7916 35.2493 52.5416C35.3535 52.2916 35.4993 52.0625 35.6868 51.8541C35.8952 51.6666 36.1035 51.5208 36.3743 51.4166C37.1452 51.0833 38.0618 51.2708 38.6452 51.8541C38.8327 52.0625 38.9785 52.2916 39.0827 52.5416C39.1868 52.7916 39.2493 53.0625 39.2493 53.3333C39.2493 53.875 39.0202 54.4166 38.6452 54.8125ZM47.416 54.125C47.3118 54.375 47.166 54.6041 46.9785 54.8125C46.5827 55.1875 46.041 55.4166 45.4993 55.4166C44.9368 55.4166 44.416 55.1875 44.0202 54.8125C43.8327 54.6041 43.6868 54.375 43.5827 54.125C43.4785 53.875 43.416 53.6041 43.416 53.3333C43.416 52.7708 43.6452 52.25 44.0202 51.8541C44.791 51.0833 46.1868 51.0833 46.9785 51.8541C47.3535 52.25 47.5827 52.7708 47.5827 53.3333C47.5827 53.6041 47.5202 53.875 47.416 54.125ZM55.3118 54.8125C54.916 55.1875 54.3743 55.4166 53.8327 55.4166C53.291 55.4166 52.7493 55.1875 52.3535 54.8125C51.9785 54.4166 51.7493 53.8958 51.7493 53.3333C51.7493 52.7708 51.9785 52.25 52.3535 51.8541C53.1452 51.0833 54.541 51.0833 55.3118 51.8541C55.3952 51.9583 55.4785 52.0625 55.5618 52.1875C55.6452 52.2916 55.7077 52.4166 55.7493 52.5416C55.8118 52.6666 55.8535 52.7916 55.8743 52.9166C55.8952 53.0625 55.916 53.2083 55.916 53.3333C55.916 53.875 55.6868 54.4166 55.3118 54.8125Z" fill="white"/>
</svg>
