<svg width="91" height="90" viewBox="0 0 91 90" fill="none" xmlns="http://www.w3.org/2000/svg">
<circle cx="45.5" cy="45" r="45" fill="#5B68E8"/>
<path d="M59.6256 28.5832L48.1673 24.2915C46.9798 23.854 45.0423 23.854 43.8548 24.2915L32.3965 28.5832C30.1882 29.4165 28.3965 31.9998 28.3965 34.354V51.229C28.3965 52.9165 29.5007 55.1457 30.8548 56.1457L42.3131 64.7082C44.334 66.229 47.6465 66.229 49.6673 64.7082L61.1256 56.1457C62.4798 55.1248 63.584 52.9165 63.584 51.229V34.354C63.6048 31.9998 61.8131 29.4165 59.6256 28.5832ZM53.2506 40.2498L44.2923 49.2082C43.9798 49.5207 43.584 49.6665 43.1881 49.6665C42.7923 49.6665 42.3965 49.5207 42.084 49.2082L38.7507 45.8332C38.1465 45.229 38.1465 44.229 38.7507 43.6248C39.3548 43.0207 40.3548 43.0207 40.959 43.6248L43.209 45.8748L51.0631 38.0207C51.6673 37.4165 52.6673 37.4165 53.2715 38.0207C53.8756 38.6248 53.8756 39.6457 53.2506 40.2498Z" fill="white"/>
</svg>
