<svg width="90" height="90" viewBox="0 0 90 90" fill="none" xmlns="http://www.w3.org/2000/svg">
<circle cx="45" cy="45" r="45" fill="#5B68E8"/>
<path d="M65.3307 35.7292C65.3307 37.1042 64.2057 38.2292 62.8307 38.2292H26.1641C24.7891 38.2292 23.6641 37.1042 23.6641 35.7292V35.7083C23.6641 30.9375 27.5182 27.0833 32.2891 27.0833H56.6849C61.4557 27.0833 65.3307 30.9583 65.3307 35.7292Z" fill="white"/>
<path d="M23.6641 43.8542V54.2917C23.6641 59.0625 27.5182 62.9167 32.2891 62.9167H56.6849C61.4557 62.9167 65.3307 59.0417 65.3307 54.2708V43.8542C65.3307 42.4792 64.2057 41.3542 62.8307 41.3542H26.1641C24.7891 41.3542 23.6641 42.4792 23.6641 43.8542ZM36.1641 55.9375H31.9974C31.1432 55.9375 30.4349 55.2292 30.4349 54.375C30.4349 53.5208 31.1432 52.8125 31.9974 52.8125H36.1641C37.0182 52.8125 37.7266 53.5208 37.7266 54.375C37.7266 55.2292 37.0182 55.9375 36.1641 55.9375ZM49.7057 55.9375H41.3724C40.5182 55.9375 39.8099 55.2292 39.8099 54.375C39.8099 53.5208 40.5182 52.8125 41.3724 52.8125H49.7057C50.5599 52.8125 51.2682 53.5208 51.2682 54.375C51.2682 55.2292 50.5599 55.9375 49.7057 55.9375Z" fill="white"/>
</svg>
