<svg width="40" height="40" viewBox="0 0 40 40" fill="none" xmlns="http://www.w3.org/2000/svg">
<circle cx="20" cy="20" r="20" fill="white"/>
<path d="M19.9992 10.1963C14.5973 10.1963 10.1953 14.5982 10.1953 20.0002C10.1953 25.4022 14.5973 29.8041 19.9992 29.8041C25.4012 29.8041 29.8032 25.4022 29.8032 20.0002C29.8032 14.5982 25.4012 10.1963 19.9992 10.1963ZM24.6855 17.7453L19.1267 23.3041C18.9894 23.4414 18.8032 23.5198 18.6071 23.5198C18.411 23.5198 18.2247 23.4414 18.0875 23.3041L15.313 20.5296C15.0286 20.2453 15.0286 19.7747 15.313 19.4904C15.5973 19.2061 16.0679 19.2061 16.3522 19.4904L18.6071 21.7453L23.6463 16.7061C23.9306 16.4218 24.4012 16.4218 24.6855 16.7061C24.9698 16.9904 24.9698 17.4512 24.6855 17.7453Z" fill="#2AC769"/>
</svg>
