<svg width="40" height="40" viewBox="0 0 40 40" fill="none" xmlns="http://www.w3.org/2000/svg">
<circle cx="20" cy="20" r="20" fill="url(#paint0_linear_1808_12830)"/>
<path d="M15.1175 11.5H23.9975C27.9975 11.5 29.9975 14 29.9975 17.5V20C29.9975 25 26.9975 28.5 21.4975 28.5H11.9375L12.9975 24.25H20.4375C23.9975 24.25 25.7475 22 25.7475 18.94V18.75C25.7475 17 24.9975 15.75 22.7475 15.75H14.0575L15.1175 11.5Z" fill="white"/>
<path d="M20.4076 18.23H12.6976C11.6176 18.23 10.6776 18.97 10.4076 20.01L10.1576 21.03C10.0676 21.4 10.3476 21.76 10.7276 21.76H18.4376C19.5176 21.76 20.4576 21.02 20.7276 19.98L20.9776 18.96C21.0776 18.59 20.7876 18.23 20.4076 18.23Z" fill="white"/>
<defs>
<linearGradient id="paint0_linear_1808_12830" x1="7" y1="40" x2="40" y2="4.5" gradientUnits="userSpaceOnUse">
<stop stop-color="#3C83EF"/>
<stop offset="1" stop-color="#2EAEF5" stop-opacity="0.69"/>
</linearGradient>
</defs>
</svg>
