<svg width="91" height="90" viewBox="0 0 91 90" fill="none" xmlns="http://www.w3.org/2000/svg">
<circle cx="45.5" cy="45" r="45" fill="#5B68E8"/>
<path d="M59.6276 28.5837L48.1693 24.292C46.9818 23.8545 45.0443 23.8545 43.8568 24.292L32.3984 28.5837C30.1901 29.417 28.3984 32.0003 28.3984 34.3545V51.2295C28.3984 52.917 29.5026 55.1462 30.8568 56.1462L42.3151 64.7087C44.3359 66.2295 47.6484 66.2295 49.6693 64.7087L61.1276 56.1462C62.4818 55.1253 63.5859 52.917 63.5859 51.2295V34.3545C63.6068 32.0003 61.8151 29.417 59.6276 28.5837ZM53.2526 40.2503L44.2943 49.2087C43.9818 49.5212 43.5859 49.667 43.1901 49.667C42.7943 49.667 42.3984 49.5212 42.0859 49.2087L38.7526 45.8337C38.1484 45.2295 38.1484 44.2295 38.7526 43.6253C39.3568 43.0212 40.3568 43.0212 40.9609 43.6253L43.2109 45.8753L51.0651 38.0212C51.6693 37.417 52.6693 37.417 53.2734 38.0212C53.8776 38.6253 53.8776 39.6462 53.2526 40.2503Z" fill="white"/>
</svg>
