<svg width="42" height="42" viewBox="0 0 42 42" fill="none" xmlns="http://www.w3.org/2000/svg">
<circle cx="21" cy="21" r="21" fill="#5B68E8"/>
<path d="M20.999 25.4579C21.7491 25.4579 22.3573 24.8497 22.3573 24.0995C22.3573 23.3494 21.7491 22.7412 20.999 22.7412C20.2488 22.7412 19.6406 23.3494 19.6406 24.0995C19.6406 24.8497 20.2488 25.4579 20.999 25.4579Z" fill="#5B68E8"/>
<path d="M26.2307 18.942V17.9003C26.2307 15.6503 25.6891 12.667 20.9974 12.667C16.3057 12.667 15.7641 15.6503 15.7641 17.9003V18.942C13.4307 19.2337 12.6641 20.417 12.6641 23.3253V24.8753C12.6641 28.292 13.7057 29.3337 17.1224 29.3337H24.8724C28.2891 29.3337 29.3307 28.292 29.3307 24.8753V23.3253C29.3307 20.417 28.5641 19.2337 26.2307 18.942ZM17.1224 18.867C17.0557 18.867 16.9974 18.867 16.9307 18.867V17.9003C16.9307 15.4587 17.6224 13.8337 20.9974 13.8337C24.3724 13.8337 25.0641 15.4587 25.0641 17.9003V18.8753C24.9974 18.8753 24.9391 18.8753 24.8724 18.8753H17.1224V18.867Z" fill="white"/>
<path d="M20.9938 26.8333C20.7048 26.8333 20.4778 26.5994 20.4778 26.3174C20.4778 26.0354 20.7048 25.8015 20.9938 25.8015C21.2827 25.8015 21.5097 26.0354 21.5097 26.3174C21.5097 26.5994 21.2827 26.8333 20.9938 26.8333ZM21.8605 23.9786C21.5922 24.1574 21.5097 24.2744 21.5097 24.467V24.6114C21.5097 24.8935 21.2758 25.1274 20.9938 25.1274C20.7117 25.1274 20.4778 24.8935 20.4778 24.6114V24.467C20.4778 23.669 21.0625 23.2769 21.2827 23.1256C21.5372 22.9536 21.6197 22.8367 21.6197 22.6578C21.6197 22.3139 21.3377 22.0318 20.9938 22.0318C20.6498 22.0318 20.3678 22.3139 20.3678 22.6578C20.3678 22.9399 20.1339 23.1737 19.8519 23.1737C19.5698 23.1737 19.3359 22.9399 19.3359 22.6578C19.3359 21.7429 20.0789 21 20.9938 21C21.9087 21 22.6516 21.7429 22.6516 22.6578C22.6516 23.442 22.0738 23.8341 21.8605 23.9786Z" fill="#5B68E8"/>
</svg>
