<svg width="47" height="47" viewBox="0 0 47 47" fill="none" xmlns="http://www.w3.org/2000/svg">
<circle cx="23.5" cy="23.5" r="23.5" fill="#5B68E8"/>
<path d="M30.75 19V21.1C30.31 21.04 29.81 21.01 29.25 21V19C29.25 15.85 28.36 13.75 24 13.75C19.64 13.75 18.75 15.85 18.75 19V21C18.19 21.01 17.69 21.04 17.25 21.1V19C17.25 16.1 17.95 12.25 24 12.25C30.05 12.25 30.75 16.1 30.75 19Z" fill="white"/>
<path d="M30.75 21.1C30.31 21.04 29.81 21.01 29.25 21H18.75C18.19 21.01 17.69 21.04 17.25 21.1C14.7 21.41 14 22.66 14 26V28C14 32 15 33 19 33H29C33 33 34 32 34 28V26C34 22.66 33.3 21.41 30.75 21.1ZM20.71 27.71C20.52 27.89 20.26 28 20 28C19.87 28 19.74 27.97 19.62 27.92C19.49 27.87 19.39 27.8 19.29 27.71C19.11 27.52 19 27.26 19 27C19 26.87 19.03 26.74 19.08 26.62C19.13 26.5 19.2 26.39 19.29 26.29C19.39 26.2 19.49 26.13 19.62 26.08C19.99 25.92 20.43 26.01 20.71 26.29C20.8 26.39 20.87 26.5 20.92 26.62C20.97 26.74 21 26.87 21 27C21 27.26 20.89 27.52 20.71 27.71ZM24.92 27.38C24.87 27.5 24.8 27.61 24.71 27.71C24.52 27.89 24.26 28 24 28C23.73 28 23.48 27.89 23.29 27.71C23.2 27.61 23.13 27.5 23.08 27.38C23.03 27.26 23 27.13 23 27C23 26.73 23.11 26.48 23.29 26.29C23.66 25.92 24.33 25.92 24.71 26.29C24.89 26.48 25 26.73 25 27C25 27.13 24.97 27.26 24.92 27.38ZM28.71 27.71C28.52 27.89 28.26 28 28 28C27.74 28 27.48 27.89 27.29 27.71C27.11 27.52 27 27.27 27 27C27 26.73 27.11 26.48 27.29 26.29C27.67 25.92 28.34 25.92 28.71 26.29C28.75 26.34 28.79 26.39 28.83 26.45C28.87 26.5 28.9 26.56 28.92 26.62C28.95 26.68 28.97 26.74 28.98 26.8C28.99 26.87 29 26.94 29 27C29 27.26 28.89 27.52 28.71 27.71Z" fill="white"/>
</svg>
