<svg width="49" height="48" viewBox="0 0 49 48" fill="none" xmlns="http://www.w3.org/2000/svg">
<circle cx="24.375" cy="24" r="24" fill="white"/>
<path d="M34.345 30.33C34.345 30.69 34.265 31.06 34.095 31.42C33.925 31.78 33.705 32.12 33.415 32.44C32.925 32.98 32.385 33.37 31.775 33.62C31.175 33.87 30.525 34 29.825 34C28.805 34 27.715 33.76 26.565 33.27C25.415 32.78 24.265 32.12 23.125 31.29C21.975 30.45 20.885 29.52 19.845 28.49C18.815 27.45 17.885 26.36 17.055 25.22C16.235 24.08 15.575 22.94 15.095 21.81C14.615 20.67 14.375 19.58 14.375 18.54C14.375 17.86 14.495 17.21 14.735 16.61C14.975 16 15.355 15.44 15.885 14.94C16.525 14.31 17.225 14 17.965 14C18.245 14 18.525 14.06 18.775 14.18C19.035 14.3 19.265 14.48 19.445 14.74L21.765 18.01C21.945 18.26 22.075 18.49 22.165 18.71C22.255 18.92 22.305 19.13 22.305 19.32C22.305 19.56 22.235 19.8 22.095 20.03C21.965 20.26 21.775 20.5 21.535 20.74L20.775 21.53C20.665 21.64 20.615 21.77 20.615 21.93C20.615 22.01 20.625 22.08 20.645 22.16C20.675 22.24 20.705 22.3 20.725 22.36C20.905 22.69 21.215 23.12 21.655 23.64C22.105 24.16 22.585 24.69 23.105 25.22C23.645 25.75 24.165 26.24 24.695 26.69C25.215 27.13 25.645 27.43 25.985 27.61C26.035 27.63 26.095 27.66 26.165 27.69C26.245 27.72 26.325 27.73 26.415 27.73C26.585 27.73 26.715 27.67 26.825 27.56L27.585 26.81C27.835 26.56 28.075 26.37 28.305 26.25C28.535 26.11 28.765 26.04 29.015 26.04C29.205 26.04 29.405 26.08 29.625 26.17C29.845 26.26 30.075 26.39 30.325 26.56L33.635 28.91C33.895 29.09 34.075 29.3 34.185 29.55C34.285 29.8 34.345 30.05 34.345 30.33Z" fill="#5B68E8"/>
<path d="M30.875 21C30.875 20.4 30.405 19.48 29.705 18.73C29.065 18.04 28.215 17.5 27.375 17.5" stroke="#5B68E8" stroke-width="1.5" stroke-linecap="round" stroke-linejoin="round"/>
<path d="M34.375 21C34.375 17.13 31.245 14 27.375 14" stroke="#5B68E8" stroke-width="1.5" stroke-linecap="round" stroke-linejoin="round"/>
</svg>
