<svg width="40" height="40" viewBox="0 0 40 40" fill="none" xmlns="http://www.w3.org/2000/svg">
<circle cx="20" cy="20" r="20" fill="url(#paint0_linear_1808_11986)"/>
<path d="M29.7101 17.9004L27.3101 13.0804C26.8401 12.1304 25.5901 11.3604 24.5301 11.3604H15.4701C14.4101 11.3604 13.1601 12.1304 12.6901 13.0804L10.2901 17.9004C9.71009 19.0604 10.0301 20.7104 10.9801 21.5804L17.9101 27.8703C19.0601 28.9103 20.9301 28.9103 22.0801 27.8703L29.0101 21.5804C29.9701 20.7104 30.2901 19.0504 29.7101 17.9004ZM24.0001 17.2504H20.7501V22.5004C20.7501 22.9104 20.4101 23.2504 20.0001 23.2504C19.5901 23.2504 19.2501 22.9104 19.2501 22.5004V17.2504H16.0001C15.5901 17.2504 15.2501 16.9104 15.2501 16.5004C15.2501 16.0904 15.5901 15.7504 16.0001 15.7504H24.0001C24.4101 15.7504 24.7501 16.0904 24.7501 16.5004C24.7501 16.9104 24.4101 17.2504 24.0001 17.2504Z" fill="#F9F9FB"/>
<defs>
<linearGradient id="paint0_linear_1808_11986" x1="7" y1="40" x2="40" y2="4.5" gradientUnits="userSpaceOnUse">
<stop stop-color="#2BA529"/>
<stop offset="1" stop-color="#69D159" stop-opacity="0.69"/>
</linearGradient>
</defs>
</svg>
