<svg width="48" height="48" viewBox="0 0 48 48" fill="none" xmlns="http://www.w3.org/2000/svg">
<circle cx="24" cy="24" r="24" fill="white"/>
<path d="M18 32.088V29.856C19.024 29.008 20.016 28.168 20.976 27.336C21.952 26.504 22.816 25.68 23.568 24.864C24.336 24.048 24.944 23.256 25.392 22.488C25.856 21.704 26.088 20.944 26.088 20.208C26.088 19.52 25.896 18.912 25.512 18.384C25.144 17.856 24.528 17.592 23.664 17.592C22.784 17.592 22.12 17.88 21.672 18.456C21.224 19.032 21 19.728 21 20.544H18.024C18.056 19.312 18.328 18.288 18.84 17.472C19.352 16.64 20.032 16.024 20.88 15.624C21.728 15.208 22.68 15 23.736 15C25.448 15 26.776 15.472 27.72 16.416C28.68 17.344 29.16 18.552 29.16 20.04C29.16 20.968 28.944 21.872 28.512 22.752C28.096 23.632 27.544 24.48 26.856 25.296C26.168 26.112 25.424 26.88 24.624 27.6C23.824 28.304 23.048 28.96 22.296 29.568H29.568V32.088H18Z" fill="#171A1C"/>
</svg>
