<svg width="48" height="48" viewBox="0 0 48 48" fill="none" xmlns="http://www.w3.org/2000/svg">
<circle cx="24" cy="24" r="24" fill="white"/>
<path d="M34 19.5499C34 20.2099 33.46 20.7499 32.8 20.7499H15.2C14.54 20.7499 14 20.2099 14 19.5499V19.5399C14 17.2499 15.85 15.3999 18.14 15.3999H29.85C32.14 15.3999 34 17.2599 34 19.5499Z" fill="#2B2E32"/>
<path d="M14 23.45V28.46C14 30.75 15.85 32.6 18.14 32.6H29.85C32.14 32.6 34 30.74 34 28.45V23.45C34 22.79 33.46 22.25 32.8 22.25H15.2C14.54 22.25 14 22.79 14 23.45ZM20 29.25H18C17.59 29.25 17.25 28.91 17.25 28.5C17.25 28.09 17.59 27.75 18 27.75H20C20.41 27.75 20.75 28.09 20.75 28.5C20.75 28.91 20.41 29.25 20 29.25ZM26.5 29.25H22.5C22.09 29.25 21.75 28.91 21.75 28.5C21.75 28.09 22.09 27.75 22.5 27.75H26.5C26.91 27.75 27.25 28.09 27.25 28.5C27.25 28.91 26.91 29.25 26.5 29.25Z" fill="#2B2E32"/>
</svg>
