<svg width="90" height="90" viewBox="0 0 90 90" fill="none" xmlns="http://www.w3.org/2000/svg">
<circle cx="45" cy="45" r="45" fill="#5B68E8"/>
<path d="M63.5625 43.166V34.0202C63.5625 32.3118 62.2708 30.3743 60.6667 29.7285L49.0625 24.9785C46.4583 23.916 43.5208 23.916 40.9167 24.9785L29.3125 29.7285C27.7292 30.3743 26.4375 32.3118 26.4375 34.0202V43.166C26.4375 53.3535 33.8333 62.8952 43.9375 65.6869C44.625 65.8744 45.375 65.8744 46.0625 65.6869C56.1667 62.8952 63.5625 53.3535 63.5625 43.166ZM46.5625 46.8119V52.291C46.5625 53.1452 45.8542 53.8535 45 53.8535C44.1458 53.8535 43.4375 53.1452 43.4375 52.291V46.8119C41.3333 46.1452 39.7917 44.1869 39.7917 41.8744C39.7917 38.9994 42.125 36.666 45 36.666C47.875 36.666 50.2083 38.9994 50.2083 41.8744C50.2083 44.2077 48.6667 46.1452 46.5625 46.8119Z" fill="white"/>
</svg>
