<svg width="40" height="40" viewBox="0 0 40 40" fill="none" xmlns="http://www.w3.org/2000/svg">
<circle cx="20" cy="20" r="20" fill="white"/>
<path d="M19.9992 10.196C14.5973 10.196 10.1953 14.598 10.1953 20C10.1953 25.4019 14.5973 29.8039 19.9992 29.8039C25.4012 29.8039 29.8032 25.4019 29.8032 20C29.8032 14.598 25.4012 10.196 19.9992 10.196ZM24.6855 17.7451L19.1267 23.3039C18.9894 23.4411 18.8032 23.5196 18.6071 23.5196C18.411 23.5196 18.2247 23.4411 18.0875 23.3039L15.313 20.5294C15.0286 20.2451 15.0286 19.7745 15.313 19.4902C15.5973 19.2058 16.0679 19.2058 16.3522 19.4902L18.6071 21.7451L23.6463 16.7058C23.9306 16.4215 24.4012 16.4215 24.6855 16.7058C24.9698 16.9902 24.9698 17.4509 24.6855 17.7451Z" fill="#2AC769"/>
</svg>
