<svg width="90" height="90" viewBox="0 0 90 90" fill="none" xmlns="http://www.w3.org/2000/svg">
<circle cx="45" cy="45" r="45" fill="#5B68E8"/>
<path d="M61.2281 28.7915C55.0614 22.6457 45.0614 22.6457 38.9364 28.7915C34.6239 33.0623 33.3322 39.2082 34.9989 44.6248L25.2072 54.4165C24.5197 55.1248 24.0405 56.5207 24.1864 57.5207L24.8114 62.0623C25.0405 63.5623 26.4364 64.979 27.9364 65.1873L32.478 65.8123C33.478 65.9582 34.8739 65.4998 35.5822 64.7707L37.2905 63.0623C37.7072 62.6665 37.7072 61.9998 37.2905 61.5832L33.2489 57.5415C32.6447 56.9373 32.6447 55.9373 33.2489 55.3332C33.853 54.729 34.853 54.729 35.4572 55.3332L39.5197 59.3957C39.9155 59.7915 40.5822 59.7915 40.978 59.3957L45.3947 54.9998C50.7905 56.6873 56.9364 55.3748 61.2281 51.104C67.3739 44.9582 67.3739 34.9373 61.2281 28.7915ZM50.2072 44.9998C47.3322 44.9998 44.9989 42.6665 44.9989 39.7915C44.9989 36.9165 47.3322 34.5832 50.2072 34.5832C53.0822 34.5832 55.4155 36.9165 55.4155 39.7915C55.4155 42.6665 53.0822 44.9998 50.2072 44.9998Z" fill="white"/>
</svg>
