<svg width="42" height="42" viewBox="0 0 42 42" fill="none" xmlns="http://www.w3.org/2000/svg">
<circle cx="20.9058" cy="20.951" r="20.9058" fill="url(#paint0_linear_1741_6823)"/>
<path d="M17.5701 27.6147V29.2479C17.5701 29.4282 17.7164 29.5746 17.8967 29.5746H19.2033C19.29 29.5746 19.3731 29.5402 19.4343 29.4789C19.4956 29.4176 19.53 29.3346 19.53 29.2479V27.6147H20.1833V29.2479C20.1833 29.4282 20.3296 29.5746 20.51 29.5746H21.8166C21.9032 29.5746 21.9863 29.5402 22.0475 29.4789C22.1088 29.4176 22.1432 29.3346 22.1432 29.2479V27.6147H22.253C24.8557 27.6147 26.7164 26.2649 26.7164 23.93C26.7164 21.9675 25.4006 20.8948 23.8601 20.7419V20.6269C25.1275 20.3107 26.0591 19.3543 26.0591 17.7654C26.0591 15.7637 24.5565 14.5485 22.2634 14.5485H22.1432V12.9153C22.1432 12.8286 22.1088 12.7456 22.0475 12.6843C21.9863 12.623 21.9032 12.5886 21.8166 12.5886H20.51C20.4233 12.5886 20.3402 12.623 20.279 12.6843C20.2177 12.7456 20.1833 12.8286 20.1833 12.9153V14.5485H19.4346V12.9153C19.4346 12.8286 19.4002 12.7456 19.3389 12.6843C19.2777 12.623 19.1946 12.5886 19.108 12.5886H17.8967C17.8101 12.5886 17.727 12.623 17.6658 12.6843C17.6045 12.7456 17.5701 12.8286 17.5701 12.9153V14.5485L14.9595 14.5629C14.8728 14.5629 14.7897 14.5973 14.7285 14.6586C14.6672 14.7198 14.6328 14.8029 14.6328 14.8896V16.1818C14.6328 16.3608 14.7765 16.5085 14.9569 16.5085L15.9433 16.5019C16.2021 16.5037 16.4497 16.6077 16.6321 16.7912C16.8144 16.9748 16.9168 17.2231 16.9168 17.4819V24.6748C16.9168 24.9347 16.8135 25.1839 16.6297 25.3677C16.446 25.5515 16.1967 25.6547 15.9368 25.6547L14.9595 25.6691C14.8728 25.6691 14.7897 25.7035 14.7285 25.7648C14.6672 25.8261 14.6328 25.9091 14.6328 25.9958V27.3024C14.6328 27.4827 14.7792 27.629 14.9595 27.629L17.5701 27.6147ZM19.4346 16.4915H21.6807C22.8645 16.4915 23.5596 17.1422 23.5596 18.2057C23.5596 19.3438 22.8083 19.9854 21.1071 19.9854H19.4346V16.4915ZM19.4346 21.7846H21.8388C23.3244 21.7846 24.1332 22.5424 24.1332 23.7758C24.1332 25.021 23.3153 25.6704 21.3135 25.6704H19.4346V21.7859V21.7846Z" fill="#F8FEFF"/>
<defs>
<linearGradient id="paint0_linear_1741_6823" x1="4.7038" y1="36.6303" x2="49.6513" y2="0.0451663" gradientUnits="userSpaceOnUse">
<stop stop-color="#FF9900"/>
<stop offset="1" stop-color="#FF9900" stop-opacity="0.46"/>
</linearGradient>
</defs>
</svg>
