<svg width="91" height="90" viewBox="0 0 91 90" fill="none" xmlns="http://www.w3.org/2000/svg">
<circle cx="45.5" cy="45" r="45" fill="#5B68E8"/>
<path d="M59.6276 28.5832L48.1693 24.2915C46.9818 23.854 45.0443 23.854 43.8568 24.2915L32.3984 28.5832C30.1901 29.4165 28.3984 31.9998 28.3984 34.354V51.229C28.3984 52.9165 29.5026 55.1457 30.8568 56.1457L42.3151 64.7082C44.3359 66.229 47.6484 66.229 49.6693 64.7082L61.1276 56.1457C62.4818 55.1248 63.5859 52.9165 63.5859 51.229V34.354C63.6068 31.9998 61.8151 29.4165 59.6276 28.5832ZM53.2526 40.2498L44.2943 49.2082C43.9818 49.5207 43.5859 49.6665 43.1901 49.6665C42.7943 49.6665 42.3984 49.5207 42.0859 49.2082L38.7526 45.8332C38.1484 45.229 38.1484 44.229 38.7526 43.6248C39.3568 43.0207 40.3568 43.0207 40.9609 43.6248L43.2109 45.8748L51.0651 38.0207C51.6693 37.4165 52.6693 37.4165 53.2734 38.0207C53.8776 38.6248 53.8776 39.6457 53.2526 40.2498Z" fill="white"/>
</svg>
