<svg width="90" height="90" viewBox="0 0 90 90" fill="none" xmlns="http://www.w3.org/2000/svg">
<circle cx="45" cy="45" r="45" fill="#5B68E8"/>
<path d="M61.232 28.792C55.0653 22.6462 45.0653 22.6462 38.9403 28.792C34.6278 33.0628 33.3361 39.2087 35.0028 44.6253L25.2111 54.417C24.5236 55.1253 24.0445 56.5212 24.1903 57.5212L24.8153 62.0628C25.0445 63.5628 26.4403 64.9795 27.9403 65.1878L32.482 65.8128C33.482 65.9587 34.8778 65.5003 35.5861 64.7712L37.2945 63.0628C37.7111 62.667 37.7111 62.0003 37.2945 61.5837L33.2528 57.542C32.6486 56.9378 32.6486 55.9378 33.2528 55.3337C33.857 54.7295 34.857 54.7295 35.4611 55.3337L39.5236 59.3962C39.9195 59.792 40.5861 59.792 40.982 59.3962L45.3986 55.0003C50.7945 56.6878 56.9403 55.3753 61.232 51.1045C67.3778 44.9587 67.3778 34.9378 61.232 28.792ZM50.2111 45.0003C47.3361 45.0003 45.0028 42.667 45.0028 39.792C45.0028 36.917 47.3361 34.5837 50.2111 34.5837C53.0861 34.5837 55.4195 36.917 55.4195 39.792C55.4195 42.667 53.0861 45.0003 50.2111 45.0003Z" fill="white"/>
</svg>
