<svg width="49" height="48" viewBox="0 0 49 48" fill="none" xmlns="http://www.w3.org/2000/svg">
<circle cx="24.5" cy="24" r="24" fill="white"/>
<path d="M29.5 15.5H19.5C16.5 15.5 14.5 17 14.5 20.5V27.5C14.5 31 16.5 32.5 19.5 32.5H29.5C32.5 32.5 34.5 31 34.5 27.5V20.5C34.5 17 32.5 15.5 29.5 15.5ZM29.97 21.59L26.84 24.09C26.18 24.62 25.34 24.88 24.5 24.88C23.66 24.88 22.81 24.62 22.16 24.09L19.03 21.59C18.71 21.33 18.66 20.85 18.91 20.53C19.17 20.21 19.64 20.15 19.96 20.41L23.09 22.91C23.85 23.52 25.14 23.52 25.9 22.91L29.03 20.41C29.35 20.15 29.83 20.2 30.08 20.53C30.34 20.85 30.29 21.33 29.97 21.59Z" fill="#5B68E8"/>
</svg>
