<svg width="47" height="47" viewBox="0 0 47 47" fill="none" xmlns="http://www.w3.org/2000/svg">
<circle cx="23.5" cy="23.5" r="23.5" fill="#5B68E8"/>
<path d="M29 14.5H19C16 14.5 14 16 14 19.5V26.5C14 30 16 31.5 19 31.5H29C32 31.5 34 30 34 26.5V19.5C34 16 32 14.5 29 14.5ZM29.47 20.59L26.34 23.09C25.68 23.62 24.84 23.88 24 23.88C23.16 23.88 22.31 23.62 21.66 23.09L18.53 20.59C18.21 20.33 18.16 19.85 18.41 19.53C18.67 19.21 19.14 19.15 19.46 19.41L22.59 21.91C23.35 22.52 24.64 22.52 25.4 21.91L28.53 19.41C28.85 19.15 29.33 19.2 29.58 19.53C29.84 19.85 29.79 20.33 29.47 20.59Z" fill="white"/>
</svg>
