<svg width="42" height="42" viewBox="0 0 42 42" fill="none" xmlns="http://www.w3.org/2000/svg">
<circle cx="20.9058" cy="20.9512" r="20.9058" fill="url(#paint0_linear_1808_11613)"/>
<path d="M17.5701 27.6149V29.2482C17.5701 29.4285 17.7164 29.5748 17.8967 29.5748H19.2033C19.29 29.5748 19.3731 29.5404 19.4343 29.4792C19.4956 29.4179 19.53 29.3348 19.53 29.2482V27.6149H20.1833V29.2482C20.1833 29.4285 20.3296 29.5748 20.51 29.5748H21.8166C21.9032 29.5748 21.9863 29.5404 22.0475 29.4792C22.1088 29.4179 22.1432 29.3348 22.1432 29.2482V27.6149H22.253C24.8557 27.6149 26.7164 26.2652 26.7164 23.9303C26.7164 21.9677 25.4006 20.895 23.8601 20.7421V20.6271C25.1275 20.3109 26.0591 19.3545 26.0591 17.7657C26.0591 15.7639 24.5565 14.5488 22.2634 14.5488H22.1432V12.9155C22.1432 12.8289 22.1088 12.7458 22.0475 12.6845C21.9863 12.6233 21.9032 12.5889 21.8166 12.5889H20.51C20.4233 12.5889 20.3402 12.6233 20.279 12.6845C20.2177 12.7458 20.1833 12.8289 20.1833 12.9155V14.5488H19.4346V12.9155C19.4346 12.8289 19.4002 12.7458 19.3389 12.6845C19.2777 12.6233 19.1946 12.5889 19.108 12.5889H17.8967C17.8101 12.5889 17.727 12.6233 17.6658 12.6845C17.6045 12.7458 17.5701 12.8289 17.5701 12.9155V14.5488L14.9595 14.5632C14.8728 14.5632 14.7897 14.5976 14.7285 14.6588C14.6672 14.7201 14.6328 14.8032 14.6328 14.8898V16.1821C14.6328 16.3611 14.7765 16.5087 14.9569 16.5087L15.9433 16.5022C16.2021 16.5039 16.4497 16.6079 16.6321 16.7915C16.8144 16.9751 16.9168 17.2234 16.9168 17.4821V24.675C16.9168 24.9349 16.8135 25.1842 16.6297 25.368C16.446 25.5517 16.1967 25.655 15.9368 25.655L14.9595 25.6694C14.8728 25.6694 14.7897 25.7038 14.7285 25.765C14.6672 25.8263 14.6328 25.9094 14.6328 25.996V27.3026C14.6328 27.4829 14.7792 27.6293 14.9595 27.6293L17.5701 27.6149ZM19.4346 16.4917H21.6807C22.8645 16.4917 23.5596 17.1424 23.5596 18.206C23.5596 19.3441 22.8083 19.9856 21.1071 19.9856H19.4346V16.4917ZM19.4346 21.7848H21.8388C23.3244 21.7848 24.1332 22.5426 24.1332 23.7761C24.1332 25.0213 23.3153 25.6707 21.3135 25.6707H19.4346V21.7861V21.7848Z" fill="#F8FEFF"/>
<defs>
<linearGradient id="paint0_linear_1808_11613" x1="4.7038" y1="36.6306" x2="49.6513" y2="0.0454104" gradientUnits="userSpaceOnUse">
<stop stop-color="#FF9900"/>
<stop offset="1" stop-color="#FF9900" stop-opacity="0.46"/>
</linearGradient>
</defs>
</svg>
