<svg width="42" height="42" viewBox="0 0 42 42" fill="none" xmlns="http://www.w3.org/2000/svg">
<circle cx="21" cy="21" r="21" fill="#5B68E8"/>
<path d="M20.999 25.4579C21.7491 25.4579 22.3573 24.8497 22.3573 24.0995C22.3573 23.3494 21.7491 22.7412 20.999 22.7412C20.2488 22.7412 19.6406 23.3494 19.6406 24.0995C19.6406 24.8497 20.2488 25.4579 20.999 25.4579Z" fill="white"/>
<path d="M26.2307 18.942V17.9003C26.2307 15.6503 25.6891 12.667 20.9974 12.667C16.3057 12.667 15.7641 15.6503 15.7641 17.9003V18.942C13.4307 19.2337 12.6641 20.417 12.6641 23.3253V24.8753C12.6641 28.292 13.7057 29.3337 17.1224 29.3337H24.8724C28.2891 29.3337 29.3307 28.292 29.3307 24.8753V23.3253C29.3307 20.417 28.5641 19.2337 26.2307 18.942ZM20.9974 26.617C19.6057 26.617 18.4807 25.4837 18.4807 24.1003C18.4807 22.7087 19.6141 21.5837 20.9974 21.5837C22.3807 21.5837 23.5141 22.717 23.5141 24.1003C23.5141 25.492 22.3891 26.617 20.9974 26.617ZM17.1224 18.867C17.0557 18.867 16.9974 18.867 16.9307 18.867V17.9003C16.9307 15.4587 17.6224 13.8337 20.9974 13.8337C24.3724 13.8337 25.0641 15.4587 25.0641 17.9003V18.8753C24.9974 18.8753 24.9391 18.8753 24.8724 18.8753H17.1224V18.867Z" fill="white"/>
</svg>
