<svg width="90" height="90" viewBox="0 0 90 90" fill="none" xmlns="http://www.w3.org/2000/svg">
<circle cx="45" cy="45" r="45" fill="#5B68E8"/>
<path d="M61.232 28.791C55.0653 22.6452 45.0653 22.6452 38.9403 28.791C34.6278 33.0618 33.3361 39.2077 35.0028 44.6243L25.2111 54.416C24.5236 55.1244 24.0445 56.5202 24.1903 57.5202L24.8153 62.0619C25.0445 63.5619 26.4403 64.9785 27.9403 65.1869L32.482 65.8119C33.482 65.9577 34.8778 65.4994 35.5861 64.7702L37.2945 63.0619C37.7111 62.666 37.7111 61.9994 37.2945 61.5827L33.2528 57.541C32.6486 56.9369 32.6486 55.9368 33.2528 55.3327C33.857 54.7285 34.857 54.7285 35.4611 55.3327L39.5236 59.3952C39.9195 59.791 40.5861 59.791 40.982 59.3952L45.3986 54.9993C50.7945 56.6869 56.9403 55.3744 61.232 51.1035C67.3778 44.9577 67.3778 34.9369 61.232 28.791ZM50.2111 44.9994C47.3361 44.9994 45.0028 42.666 45.0028 39.791C45.0028 36.916 47.3361 34.5827 50.2111 34.5827C53.0861 34.5827 55.4195 36.916 55.4195 39.791C55.4195 42.666 53.0861 44.9994 50.2111 44.9994Z" fill="white"/>
</svg>
