<svg width="42" height="42" viewBox="0 0 42 42" fill="none" xmlns="http://www.w3.org/2000/svg">
<circle cx="21" cy="21" r="21" fill="#5B68E8"/>
<path d="M24 13.5H18C15.375 13.5 14.25 15 14.25 17.25V24.75C14.25 27 15.375 28.5 18 28.5H24C26.625 28.5 27.75 27 27.75 24.75V17.25C27.75 15 26.625 13.5 24 13.5ZM18 21.1875H21C21.3075 21.1875 21.5625 21.4425 21.5625 21.75C21.5625 22.0575 21.3075 22.3125 21 22.3125H18C17.6925 22.3125 17.4375 22.0575 17.4375 21.75C17.4375 21.4425 17.6925 21.1875 18 21.1875ZM24 25.3125H18C17.6925 25.3125 17.4375 25.0575 17.4375 24.75C17.4375 24.4425 17.6925 24.1875 18 24.1875H24C24.3075 24.1875 24.5625 24.4425 24.5625 24.75C24.5625 25.0575 24.3075 25.3125 24 25.3125ZM25.875 18.9375H24.375C23.235 18.9375 22.3125 18.015 22.3125 16.875V15.375C22.3125 15.0675 22.5675 14.8125 22.875 14.8125C23.1825 14.8125 23.4375 15.0675 23.4375 15.375V16.875C23.4375 17.3925 23.8575 17.8125 24.375 17.8125H25.875C26.1825 17.8125 26.4375 18.0675 26.4375 18.375C26.4375 18.6825 26.1825 18.9375 25.875 18.9375Z" fill="white"/>
</svg>
