<svg width="90" height="90" viewBox="0 0 90 90" fill="none" xmlns="http://www.w3.org/2000/svg">
<circle cx="45" cy="45" r="45" fill="#2AC769"/>
<path d="M60.5833 51.25C55.9792 51.25 52.25 54.9792 52.25 59.5833C52.25 61.1458 52.6875 62.625 53.4583 63.875C54.8958 66.2917 57.5417 67.9167 60.5833 67.9167C63.625 67.9167 66.2708 66.2917 67.7083 63.875C68.4792 62.625 68.9167 61.1458 68.9167 59.5833C68.9167 54.9792 65.1875 51.25 60.5833 51.25ZM64.8958 58.6875L60.4583 62.7917C60.1667 63.0625 59.7708 63.2083 59.3958 63.2083C59 63.2083 58.6042 63.0625 58.2917 62.75L56.2292 60.6875C55.625 60.0833 55.625 59.0833 56.2292 58.4792C56.8333 57.875 57.8333 57.875 58.4375 58.4792L59.4375 59.4792L62.7708 56.3958C63.3958 55.8125 64.3958 55.8542 64.9792 56.4792C65.5625 57.1042 65.5208 58.0833 64.8958 58.6875Z" fill="white"/>
<path d="M66.8307 35.7293V36.6668C66.8307 37.8127 65.8932 38.7502 64.7474 38.7502H27.2474C26.1016 38.7502 25.1641 37.8127 25.1641 36.6668V35.7085C25.1641 30.9377 29.0182 27.0835 33.7891 27.0835H58.1849C62.9557 27.0835 66.8307 30.9585 66.8307 35.7293Z" fill="white"/>
<path d="M25.1641 43.9582V54.2915C25.1641 59.0623 29.0182 62.9165 33.7891 62.9165H46.8307C48.0391 62.9165 49.0807 61.8957 48.9766 60.6873C48.6849 57.4998 49.7057 54.0415 52.5391 51.2915C53.7057 50.1457 55.1432 49.2707 56.7057 48.7707C59.3099 47.9373 61.8307 48.0415 64.0599 48.7915C65.4141 49.2498 66.8307 48.2707 66.8307 46.8332V43.9373C66.8307 42.7915 65.8932 41.854 64.7474 41.854H27.2474C26.1016 41.8748 25.1641 42.8123 25.1641 43.9582ZM37.6641 55.9373H33.4974C32.6432 55.9373 31.9349 55.229 31.9349 54.3748C31.9349 53.5207 32.6432 52.8123 33.4974 52.8123H37.6641C38.5182 52.8123 39.2266 53.5207 39.2266 54.3748C39.2266 55.229 38.5182 55.9373 37.6641 55.9373Z" fill="white"/>
</svg>
