<svg width="40" height="40" viewBox="0 0 40 40" fill="none" xmlns="http://www.w3.org/2000/svg">
<circle cx="20" cy="20" r="20" fill="url(#paint0_linear_1741_6848)"/>
<path d="M29.7101 17.9L27.3101 13.08C26.8401 12.13 25.5901 11.36 24.5301 11.36H15.4701C14.4101 11.36 13.1601 12.13 12.6901 13.08L10.2901 17.9C9.71009 19.06 10.0301 20.71 10.9801 21.58L17.9101 27.87C19.0601 28.91 20.9301 28.91 22.0801 27.87L29.0101 21.58C29.9701 20.71 30.2901 19.05 29.7101 17.9ZM24.0001 17.25H20.7501V22.5C20.7501 22.91 20.4101 23.25 20.0001 23.25C19.5901 23.25 19.2501 22.91 19.2501 22.5V17.25H16.0001C15.5901 17.25 15.2501 16.91 15.2501 16.5C15.2501 16.09 15.5901 15.75 16.0001 15.75H24.0001C24.4101 15.75 24.7501 16.09 24.7501 16.5C24.7501 16.91 24.4101 17.25 24.0001 17.25Z" fill="#F9F9FB"/>
<defs>
<linearGradient id="paint0_linear_1741_6848" x1="7" y1="40" x2="40" y2="4.5" gradientUnits="userSpaceOnUse">
<stop stop-color="#2BA529"/>
<stop offset="1" stop-color="#69D159" stop-opacity="0.69"/>
</linearGradient>
</defs>
</svg>
