<svg width="90" height="90" viewBox="0 0 90 90" fill="none" xmlns="http://www.w3.org/2000/svg">
<circle cx="45" cy="45" r="45" fill="#5B68E8"/>
<path d="M59.0625 36.666V41.041C58.1458 40.916 57.1042 40.8535 55.9375 40.8327V36.666C55.9375 30.1035 54.0833 25.7285 45 25.7285C35.9167 25.7285 34.0625 30.1035 34.0625 36.666V40.8327C32.8958 40.8535 31.8542 40.916 30.9375 41.041V36.666C30.9375 30.6244 32.3958 22.6035 45 22.6035C57.6042 22.6035 59.0625 30.6244 59.0625 36.666Z" fill="white"/>
<path d="M59.0599 41.0423C58.1432 40.9173 57.1016 40.8548 55.9349 40.834H34.0599C32.8932 40.8548 31.8516 40.9173 30.9349 41.0423C25.6224 41.6882 24.1641 44.2923 24.1641 51.2507V55.4173C24.1641 63.7507 26.2474 65.834 34.5807 65.834H55.4141C63.7474 65.834 65.8307 63.7507 65.8307 55.4173V51.2507C65.8307 44.2923 64.3724 41.6882 59.0599 41.0423ZM38.1432 54.8131C37.7474 55.1881 37.2057 55.4173 36.6641 55.4173C36.3932 55.4173 36.1224 55.3548 35.8724 55.2507C35.6016 55.1465 35.3932 55.0006 35.1849 54.8131C34.8099 54.4173 34.5807 53.8757 34.5807 53.334C34.5807 53.0632 34.6432 52.7923 34.7474 52.5423C34.8516 52.2923 34.9974 52.0632 35.1849 51.8548C35.3932 51.6673 35.6016 51.5215 35.8724 51.4173C36.6432 51.084 37.5599 51.2715 38.1432 51.8548C38.3307 52.0632 38.4766 52.2923 38.5807 52.5423C38.6849 52.7923 38.7474 53.0632 38.7474 53.334C38.7474 53.8757 38.5182 54.4173 38.1432 54.8131ZM46.9141 54.1256C46.8099 54.3756 46.6641 54.6048 46.4766 54.8131C46.0807 55.1881 45.5391 55.4173 44.9974 55.4173C44.4349 55.4173 43.9141 55.1881 43.5182 54.8131C43.3307 54.6048 43.1849 54.3756 43.0807 54.1256C42.9766 53.8756 42.9141 53.6048 42.9141 53.334C42.9141 52.7715 43.1432 52.2507 43.5182 51.8548C44.2891 51.084 45.6849 51.084 46.4766 51.8548C46.8516 52.2507 47.0807 52.7715 47.0807 53.334C47.0807 53.6048 47.0182 53.8756 46.9141 54.1256ZM54.8099 54.8131C54.4141 55.1881 53.8724 55.4173 53.3307 55.4173C52.7891 55.4173 52.2474 55.1881 51.8516 54.8131C51.4766 54.4173 51.2474 53.8965 51.2474 53.334C51.2474 52.7715 51.4766 52.2507 51.8516 51.8548C52.6432 51.084 54.0391 51.084 54.8099 51.8548C54.8932 51.959 54.9766 52.0632 55.0599 52.1882C55.1432 52.2923 55.2057 52.4173 55.2474 52.5423C55.3099 52.6673 55.3516 52.7923 55.3724 52.9173C55.3932 53.0632 55.4141 53.209 55.4141 53.334C55.4141 53.8757 55.1849 54.4173 54.8099 54.8131Z" fill="white"/>
</svg>
