<svg width="47" height="47" viewBox="0 0 47 47" fill="none" xmlns="http://www.w3.org/2000/svg">
<circle cx="23.5" cy="23.5" r="23.5" fill="#5B68E8"/>
<path d="M30.5369 15.1201L25.0369 13.0601C24.4669 12.8501 23.5369 12.8501 22.9669 13.0601L17.4669 15.1201C16.4069 15.5201 15.5469 16.7601 15.5469 17.8901V25.9901C15.5469 26.8001 16.0769 27.8701 16.7269 28.3501L22.2269 32.4601C23.1969 33.1901 24.7869 33.1901 25.7569 32.4601L31.2569 28.3501C31.9069 27.8601 32.4369 26.8001 32.4369 25.9901V17.8901C32.4469 16.7601 31.5869 15.5201 30.5369 15.1201ZM27.4769 20.7201L23.1769 25.0201C23.0269 25.1701 22.8369 25.2401 22.6469 25.2401C22.4569 25.2401 22.2669 25.1701 22.1169 25.0201L20.5169 23.4001C20.2269 23.1101 20.2269 22.6301 20.5169 22.3401C20.8069 22.0501 21.2869 22.0501 21.5769 22.3401L22.6569 23.4201L26.4269 19.6501C26.7169 19.3601 27.1969 19.3601 27.4869 19.6501C27.7769 19.9401 27.7769 20.4301 27.4769 20.7201Z" fill="white"/>
</svg>
