<svg width="42" height="42" viewBox="0 0 42 42" fill="none" xmlns="http://www.w3.org/2000/svg">
<circle cx="21" cy="21" r="21" fill="#5B68E8"/>
<path d="M26.3762 16.9801C26.0537 15.3526 24.8463 14.6401 23.1663 14.6401H16.5813C14.6012 14.6401 13.2812 15.6301 13.2812 17.9401V21.8026C13.2812 23.4676 13.9637 24.4426 15.0887 24.8626C15.2537 24.9226 15.4337 24.9751 15.6212 25.0051C15.9212 25.0726 16.2438 25.1026 16.5813 25.1026H23.1737C25.1537 25.1026 26.4738 24.1126 26.4738 21.8026V17.9401C26.4738 17.5876 26.4437 17.2726 26.3762 16.9801ZM16.1463 21.0001C16.1463 21.3076 15.8913 21.5626 15.5838 21.5626C15.2763 21.5626 15.0213 21.3076 15.0213 21.0001V18.7501C15.0213 18.4426 15.2763 18.1876 15.5838 18.1876C15.8913 18.1876 16.1463 18.4426 16.1463 18.7501V21.0001ZM19.8737 21.8551C18.7787 21.8551 17.8938 20.9701 17.8938 19.8751C17.8938 18.7801 18.7787 17.8951 19.8737 17.8951C20.9688 17.8951 21.8538 18.7801 21.8538 19.8751C21.8538 20.9701 20.9688 21.8551 19.8737 21.8551ZM24.7187 21.0001C24.7187 21.3076 24.4637 21.5626 24.1562 21.5626C23.8487 21.5626 23.5938 21.3076 23.5938 21.0001V18.7501C23.5938 18.4426 23.8487 18.1876 24.1562 18.1876C24.4637 18.1876 24.7187 18.4426 24.7187 18.7501V21.0001Z" fill="white"/>
<path d="M28.7282 20.1902V24.0527C28.7282 26.3627 27.4082 27.3602 25.4207 27.3602H18.8357C18.2732 27.3602 17.7707 27.2777 17.3357 27.1127C16.9832 26.9852 16.6757 26.7977 16.4282 26.5577C16.2932 26.4302 16.3982 26.2277 16.5857 26.2277H23.1707C25.9457 26.2277 27.5957 24.5777 27.5957 21.8102V17.9402C27.5957 17.7602 27.7982 17.6477 27.9257 17.7827C28.4357 18.3227 28.7282 19.1102 28.7282 20.1902Z" fill="white"/>
</svg>
