<svg width="80" height="80" viewBox="0 0 80 80" fill="none" xmlns="http://www.w3.org/2000/svg">
<circle cx="40" cy="40" r="40" fill="#EDEEF7"/>
<path d="M52.9824 27.0332C48.0491 22.1165 40.0491 22.1165 35.1491 27.0332C31.6991 30.4499 30.6658 35.3665 31.9991 39.6999L24.1658 47.5332C23.6158 48.0999 23.2324 49.2165 23.3491 50.0165L23.8491 53.6499C24.0324 54.8499 25.1491 55.9832 26.3491 56.1499L29.9824 56.6499C30.7824 56.7665 31.8991 56.3999 32.4658 55.8165L33.8324 54.4499C34.1658 54.1332 34.1658 53.5999 33.8324 53.2665L30.5991 50.0332C30.1158 49.5499 30.1158 48.7499 30.5991 48.2665C31.0824 47.7832 31.8824 47.7832 32.3658 48.2665L35.6158 51.5165C35.9324 51.8332 36.4658 51.8332 36.7824 51.5165L40.3158 47.9999C44.6324 49.3499 49.5491 48.2999 52.9824 44.8832C57.8991 39.9665 57.8991 31.9499 52.9824 27.0332ZM44.1658 39.9999C41.8658 39.9999 39.9991 38.1332 39.9991 35.8332C39.9991 33.5332 41.8658 31.6665 44.1658 31.6665C46.4658 31.6665 48.3324 33.5332 48.3324 35.8332C48.3324 38.1332 46.4658 39.9999 44.1658 39.9999Z" fill="#5B68E8"/>
</svg>
