<svg width="42" height="42" viewBox="0 0 42 42" fill="none" xmlns="http://www.w3.org/2000/svg">
<circle cx="20.9058" cy="20.951" r="20.9058" fill="url(#paint0_linear_1808_12721)"/>
<path d="M17.5701 27.6147V29.248C17.5701 29.4283 17.7164 29.5746 17.8967 29.5746H19.2033C19.29 29.5746 19.3731 29.5402 19.4343 29.479C19.4956 29.4177 19.53 29.3346 19.53 29.248V27.6147H20.1833V29.248C20.1833 29.4283 20.3296 29.5746 20.51 29.5746H21.8166C21.9032 29.5746 21.9863 29.5402 22.0475 29.479C22.1088 29.4177 22.1432 29.3346 22.1432 29.248V27.6147H22.253C24.8557 27.6147 26.7164 26.265 26.7164 23.9301C26.7164 21.9675 25.4006 20.8948 23.8601 20.7419V20.627C25.1275 20.3108 26.0591 19.3543 26.0591 17.7655C26.0591 15.7637 24.5565 14.5486 22.2634 14.5486H22.1432V12.9153C22.1432 12.8287 22.1088 12.7456 22.0475 12.6844C21.9863 12.6231 21.9032 12.5887 21.8166 12.5887H20.51C20.4233 12.5887 20.3402 12.6231 20.279 12.6844C20.2177 12.7456 20.1833 12.8287 20.1833 12.9153V14.5486H19.4346V12.9153C19.4346 12.8287 19.4002 12.7456 19.3389 12.6844C19.2777 12.6231 19.1946 12.5887 19.108 12.5887H17.8967C17.8101 12.5887 17.727 12.6231 17.6658 12.6844C17.6045 12.7456 17.5701 12.8287 17.5701 12.9153V14.5486L14.9595 14.563C14.8728 14.563 14.7897 14.5974 14.7285 14.6586C14.6672 14.7199 14.6328 14.803 14.6328 14.8896V16.1819C14.6328 16.3609 14.7765 16.5085 14.9569 16.5085L15.9433 16.502C16.2021 16.5037 16.4497 16.6077 16.6321 16.7913C16.8144 16.9749 16.9168 17.2232 16.9168 17.4819V24.6748C16.9168 24.9347 16.8135 25.184 16.6297 25.3678C16.446 25.5516 16.1967 25.6548 15.9368 25.6548L14.9595 25.6692C14.8728 25.6692 14.7897 25.7036 14.7285 25.7648C14.6672 25.8261 14.6328 25.9092 14.6328 25.9958V27.3024C14.6328 27.4827 14.7792 27.6291 14.9595 27.6291L17.5701 27.6147ZM19.4346 16.4915H21.6807C22.8645 16.4915 23.5596 17.1422 23.5596 18.2058C23.5596 19.3439 22.8083 19.9854 21.1071 19.9854H19.4346V16.4915ZM19.4346 21.7846H21.8388C23.3244 21.7846 24.1332 22.5424 24.1332 23.7759C24.1332 25.0211 23.3153 25.6705 21.3135 25.6705H19.4346V21.7859V21.7846Z" fill="#F8FEFF"/>
<defs>
<linearGradient id="paint0_linear_1808_12721" x1="4.7038" y1="36.6304" x2="49.6513" y2="0.0452197" gradientUnits="userSpaceOnUse">
<stop stop-color="#FF9900"/>
<stop offset="1" stop-color="#FF9900" stop-opacity="0.46"/>
</linearGradient>
</defs>
</svg>
