<svg width="136" height="18" viewBox="0 0 136 18" fill="none" xmlns="http://www.w3.org/2000/svg">
<path fill-rule="evenodd" clip-rule="evenodd" d="M16.7533 1.57436C16.3811 1.52532 16.0014 1.50001 15.6157 1.50001C12.2101 1.50001 9.26885 3.47324 7.88904 6.33068C5.52517 7.14565 3.82835 9.37614 3.82835 12C3.82835 13.7907 4.61869 15.3982 5.87202 16.4976C2.61347 16.4068 0 13.7564 0 10.5C0 7.87613 1.69683 5.64564 4.0607 4.83067C5.44051 1.97323 8.38176 0 11.7873 0C13.6386 0 15.3527 0.583098 16.7533 1.57436Z" fill="#60C7EB"/>
<path opacity="0.5" fill-rule="evenodd" clip-rule="evenodd" d="M6.04455 16.5C6.11198 16.5 6.17916 16.4989 6.24606 16.4967V16.5H8.88647H14.6877H18.3356V16.4901C18.4355 16.4967 18.5363 16.5 18.6378 16.5C21.1417 16.5 23.1714 14.4853 23.1714 12C23.1714 10.1061 21.9927 8.48539 20.3236 7.82138C20.1186 5.24524 18.7565 2.99224 16.7531 1.57435C16.3809 1.52531 16.0011 1.5 15.6154 1.5C12.2099 1.5 9.26863 3.47323 7.88882 6.33068C5.52495 7.14564 3.82812 9.37613 3.82812 12C3.82812 13.7907 4.61847 15.3982 5.8718 16.4976C5.92919 16.4992 5.98677 16.5 6.04455 16.5Z" fill="#4A56EE"/>
<path opacity="0.88" fill-rule="evenodd" clip-rule="evenodd" d="M10.0744 17.9967C10.0075 17.9989 9.94033 18 9.8729 18C6.53446 18 3.82812 15.3137 3.82812 12C3.82812 9.37613 5.52495 7.14564 7.88882 6.33068C9.26863 3.47323 12.2099 1.5 15.6154 1.5C20.1148 1.5 23.8037 4.94425 24.152 9.32139C25.821 9.9854 26.9998 11.6061 26.9998 13.5C26.9998 15.9853 24.97 18 22.4662 18C22.3646 18 22.2639 17.9967 22.164 17.9902V18H18.5161H12.7148H10.0744V17.9967Z" fill="#4A56EE"/>
<path d="M32 11.3148C32 15.6296 34.444 18 40.1466 18C45.3124 18 47.9045 16.0185 48.2377 12.2593H44.8495C44.5347 14.3704 42.9054 15.2037 40.1466 15.2037C36.7769 15.2037 35.3327 13.9815 35.3327 11.3148C35.3327 8.66667 36.7584 7.46296 40.1466 7.46296C42.9239 7.46296 44.5347 8.27778 44.8495 10.3704H48.2377C47.9045 6.62963 45.3124 4.66667 40.1466 4.66667C34.444 4.66667 32 7.01852 32 11.3148Z" fill="#4A56EE"/>
<path d="M49.7282 3V17.8148H52.8943V3H49.7282Z" fill="#4A56EE"/>
<path d="M61.8388 18C66.338 18 69.393 16.3704 69.393 12.3704C69.393 8.35185 66.338 6.72222 61.8388 6.72222C57.3211 6.72222 54.2846 8.35185 54.2846 12.3704C54.2846 16.3704 57.3211 18 61.8388 18ZM61.8388 15.3519C58.8949 15.3519 57.4507 14.6296 57.4507 12.3704C57.4507 10.0926 58.8949 9.37037 61.8388 9.37037C64.7642 9.37037 66.2084 10.0926 66.2084 12.3704C66.2084 14.6296 64.7642 15.3519 61.8388 15.3519Z" fill="#4A56EE"/>
<path d="M82.7811 6.90741V13.0185C81.7998 14.1667 79.5039 15.2593 77.3747 15.2593C74.7641 15.2593 73.9864 14.0556 73.9864 11.7407V6.90741H70.8018L70.7648 12.9444C70.8018 16.963 73.5236 18 76.4304 18C79.0781 18 81.2258 17.1296 82.7811 15.9074V17.8148H85.9472V6.90741H82.7811Z" fill="#4A56EE"/>
<path d="M99.2879 3V8.61111C98.1029 7.37037 96.1959 6.72222 93.8445 6.72222C90.3451 6.72222 87.3457 8.2037 87.3457 12.3704C87.3457 16.537 90.3451 18 93.8445 18C96.1959 18 98.1029 17.3519 99.2879 16.1111V17.8148H102.454V3H99.2879ZM94.8998 15.3519C92.067 15.3519 90.5303 14.5185 90.5303 12.3704C90.5303 10.2037 92.067 9.37037 94.8998 9.37037C97.7326 9.37037 99.2879 10.2037 99.2879 12.3704C99.2879 14.5185 97.7326 15.3519 94.8998 15.3519Z" fill="#4A56EE"/>
<path d="M111.431 6.72222C109.154 6.72222 106.969 7.12963 104.747 7.85185L105.877 10.1667C108.117 9.5 109.857 9.37037 111.283 9.37037C112.764 9.37037 115.43 9.53704 115.43 11.6111C114.005 11.1296 112.283 10.8333 110.413 10.8333C106.951 10.8333 103.84 11.7222 103.84 14.5556C103.84 17.0185 105.747 18 108.802 18C111.376 18 113.505 17.4074 115.43 16.463V17.8148H118.615V12.3148C118.578 8.18519 115.986 6.72222 111.431 6.72222ZM115.43 14.4259C113.801 15.1296 111.431 15.6667 109.709 15.6667C108.061 15.6667 107.006 15.5741 107.006 14.4259C107.006 13.3148 108.432 12.9074 110.802 12.9074C112.82 12.9074 114.32 13.2222 115.43 13.5741V14.4259Z" fill="#4A56EE"/>
<path d="M119.485 17.8148H123.743L127.742 14.2037L131.742 17.8148H136L129.853 12.3704L136 6.90741H131.742L127.742 10.5185L123.743 6.90741H119.485L125.613 12.3704L119.485 17.8148Z" fill="#4A56EE"/>
</svg>
