<svg width="182" height="24" viewBox="0 0 182 24" fill="none" xmlns="http://www.w3.org/2000/svg">
<path fill-rule="evenodd" clip-rule="evenodd" d="M22.332 2.1005C21.8328 2.03431 21.3233 2.00013 20.8058 2.00013C16.2643 2.00013 12.342 4.63202 10.5027 8.44302C7.35421 9.53145 5.09484 12.5038 5.09484 15.9999C5.09484 18.3874 6.14851 20.5306 7.81946 21.9964C3.47934 21.8703 0 18.3384 0 13.9999C0 10.5048 2.25807 7.53321 5.40516 6.44401C7.24425 2.63241 11.1668 0 15.7088 0C18.178 0 20.4641 0.777996 22.332 2.1005Z" fill="#60C7EB"/>
<path opacity="0.5" fill-rule="evenodd" clip-rule="evenodd" d="M8.05858 22C8.14862 22 8.23832 21.9986 8.32766 21.9957V22.0001H24.447V21.9875C24.5777 21.9959 24.7096 22.0002 24.8424 22.0002C28.1808 22.0002 30.8871 19.3139 30.8871 16.0002C30.8871 13.4748 29.3153 11.3138 27.0897 10.4286C26.8164 6.99455 25.0011 3.99118 22.3308 2.1006C21.8316 2.03441 21.3222 2.00024 20.8047 2.00024C16.2632 2.00024 12.3409 4.63214 10.5016 8.44314C7.35313 9.53156 5.09375 12.5039 5.09375 16C5.09375 18.3875 6.14744 20.5308 7.81841 21.9965C7.89818 21.9989 7.97824 22 8.05858 22Z" fill="#4A56EE"/>
<path opacity="0.88" fill-rule="evenodd" clip-rule="evenodd" d="M13.4225 23.9956C13.3332 23.9985 13.2435 24 13.1534 24C8.70219 24 5.09375 20.4182 5.09375 16C5.09375 12.5039 7.35313 9.53156 10.5016 8.44314C12.341 4.63213 16.2632 2.00024 20.8047 2.00024C26.8046 2.00024 31.7235 6.59371 32.1869 12.4309C34.4093 13.3177 35.9782 15.477 35.9782 18.0001C35.9782 21.3138 33.2719 24.0001 29.9335 24.0001C29.8019 24.0001 29.6713 23.9959 29.5418 23.9877V24.0001H24.6724C24.6723 24.0001 24.6723 24.0001 24.6722 24.0001H16.9372C16.9372 24.0001 16.9371 24.0001 16.937 24.0001H13.4225V23.9956Z" fill="#4A56EE"/>
<path d="M42.668 15.0864C42.668 20.8394 45.9266 23.9999 53.5301 23.9999C60.4177 23.9999 63.8738 21.3579 64.3182 16.3456H59.8005C59.3808 19.1604 57.2084 20.2715 53.5301 20.2715C49.0371 20.2715 47.1116 18.6419 47.1116 15.0864C47.1116 11.5555 49.0124 9.95059 53.5301 9.95059C57.2331 9.95059 59.3808 11.037 59.8005 13.8271H64.3182C63.8738 8.83948 60.4177 6.22221 53.5301 6.22221C45.9266 6.22221 42.668 9.358 42.668 15.0864Z" fill="#4A56EE"/>
<path d="M66.3055 4V23.753H70.5269V4H66.3055Z" fill="#4A56EE"/>
<path d="M82.4529 23.9999C88.4517 23.9999 92.525 21.8271 92.525 16.4938C92.525 11.1358 88.4517 8.96294 82.4529 8.96294C76.4293 8.96294 72.3807 11.1358 72.3807 16.4938C72.3807 21.8271 76.4293 23.9999 82.4529 23.9999ZM82.4529 20.4691C78.5277 20.4691 76.6021 19.5061 76.6021 16.4938C76.6021 13.4567 78.5277 12.4938 82.4529 12.4938C86.3533 12.4938 88.2789 13.4567 88.2789 16.4938C88.2789 19.5061 86.3533 20.4691 82.4529 20.4691Z" fill="#4A56EE"/>
<path d="M110.376 9.20985V17.358C109.067 18.8888 106.006 20.3456 103.167 20.3456C99.6865 20.3456 98.6496 18.7407 98.6496 15.6543V9.20985H94.4035L94.3541 17.2592C94.4035 22.6172 98.0325 23.9999 101.908 23.9999C105.438 23.9999 108.302 22.8394 110.376 21.2098V23.753H114.597V9.20985H110.376Z" fill="#4A56EE"/>
<path d="M132.385 4V11.4814C130.805 9.82713 128.262 8.96294 125.127 8.96294C120.461 8.96294 116.462 10.9382 116.462 16.4938C116.462 22.0493 120.461 23.9999 125.127 23.9999C128.262 23.9999 130.805 23.1357 132.385 21.4814V23.753H136.606V4H132.385ZM126.534 20.4691C122.757 20.4691 120.708 19.358 120.708 16.4938C120.708 13.6049 122.757 12.4938 126.534 12.4938C130.311 12.4938 132.385 13.6049 132.385 16.4938C132.385 19.358 130.311 20.4691 126.534 20.4691Z" fill="#4A56EE"/>
<path d="M148.576 8.96294C145.539 8.96294 142.626 9.50615 139.664 10.4691L141.17 13.5555C144.157 12.6666 146.477 12.4938 148.378 12.4938C150.353 12.4938 153.908 12.716 153.908 15.4814C152.007 14.8395 149.711 14.4444 147.218 14.4444C142.602 14.4444 138.454 15.6296 138.454 19.4073C138.454 22.6913 140.997 23.9999 145.07 23.9999C148.502 23.9999 151.341 23.2098 153.908 21.9505V23.753H158.154V16.4197C158.105 10.9135 154.649 8.96294 148.576 8.96294ZM153.908 19.2345C151.736 20.1728 148.576 20.8888 146.28 20.8888C144.083 20.8888 142.676 20.7654 142.676 19.2345C142.676 17.753 144.576 17.2098 147.736 17.2098C150.427 17.2098 152.427 17.6296 153.908 18.0987V19.2345Z" fill="#4A56EE"/>
<path d="M159.313 23.753H164.991L170.324 18.9382L175.656 23.753H181.334L173.138 16.4938L181.334 9.20985H175.656L170.324 14.0246L164.991 9.20985H159.313L167.485 16.4938L159.313 23.753Z" fill="#4A56EE"/>
</svg>
