<svg width="182" height="24" viewBox="0 0 182 24" fill="none" xmlns="http://www.w3.org/2000/svg">
<path fill-rule="evenodd" clip-rule="evenodd" d="M22.332 2.1005C21.8328 2.03431 21.3233 2.00013 20.8058 2.00013C16.2643 2.00013 12.342 4.63202 10.5027 8.44302C7.35421 9.53145 5.09484 12.5038 5.09484 15.9999C5.09484 18.3874 6.14851 20.5306 7.81946 21.9964C3.47934 21.8703 0 18.3384 0 13.9999C0 10.5048 2.25807 7.53321 5.40516 6.44401C7.24425 2.63241 11.1668 0 15.7088 0C18.178 0 20.4641 0.777996 22.332 2.1005Z" fill="#60C7EB"/>
<path opacity="0.5" fill-rule="evenodd" clip-rule="evenodd" d="M8.05858 21.9999C8.14862 21.9999 8.23832 21.9985 8.32766 21.9956V22.0001H24.447V21.9874C24.5777 21.9958 24.7096 22.0001 24.8424 22.0001C28.1808 22.0001 30.8871 19.3138 30.8871 16.0001C30.8871 13.4747 29.3153 11.3137 27.0897 10.4285C26.8164 6.99446 25.0011 3.99109 22.3308 2.10051C21.8316 2.03432 21.3222 2.00015 20.8047 2.00015C16.2632 2.00015 12.3409 4.63204 10.5016 8.44305C7.35313 9.53147 5.09375 12.5038 5.09375 15.9999C5.09375 18.3874 6.14744 20.5307 7.81841 21.9965C7.89818 21.9988 7.97824 21.9999 8.05858 21.9999Z" fill="#4A56EE"/>
<path opacity="0.88" fill-rule="evenodd" clip-rule="evenodd" d="M13.4225 23.9955C13.3332 23.9984 13.2435 23.9998 13.1534 23.9998C8.70219 23.9998 5.09375 20.4181 5.09375 15.9999C5.09375 12.5038 7.35313 9.53144 10.5016 8.44301C12.341 4.63201 16.2632 2.00012 20.8047 2.00012C26.8046 2.00012 31.7235 6.59359 32.1869 12.4308C34.4093 13.3176 35.9782 15.4769 35.9782 18C35.9782 21.3137 33.2719 24 29.9335 24C29.8019 24 29.6713 23.9958 29.5418 23.9876V23.9999H24.6724C24.6723 24 24.6723 24 24.6722 24H16.9372C16.9372 24 16.9371 24 16.937 23.9999H13.4225V23.9955Z" fill="#4A56EE"/>
<path d="M42.668 15.0865C42.668 20.8395 45.9266 24 53.5301 24C60.4177 24 63.8738 21.358 64.3182 16.3457H59.8005C59.3808 19.1605 57.2084 20.2716 53.5301 20.2716C49.0371 20.2716 47.1116 18.642 47.1116 15.0865C47.1116 11.5556 49.0124 9.95068 53.5301 9.95068C57.2331 9.95068 59.3808 11.0371 59.8005 13.8272H64.3182C63.8738 8.83957 60.4177 6.2223 53.5301 6.2223C45.9266 6.2223 42.668 9.35809 42.668 15.0865Z" fill="#4A56EE"/>
<path d="M66.3055 4.00009V23.7531H70.5269V4.00009H66.3055Z" fill="#4A56EE"/>
<path d="M82.4529 24C88.4517 24 92.525 21.8272 92.525 16.4939C92.525 11.1359 88.4517 8.96303 82.4529 8.96303C76.4293 8.96303 72.3807 11.1359 72.3807 16.4939C72.3807 21.8272 76.4293 24 82.4529 24ZM82.4529 20.4692C78.5277 20.4692 76.6021 19.5062 76.6021 16.4939C76.6021 13.4568 78.5277 12.4939 82.4529 12.4939C86.3533 12.4939 88.2789 13.4568 88.2789 16.4939C88.2789 19.5062 86.3533 20.4692 82.4529 20.4692Z" fill="#4A56EE"/>
<path d="M110.376 9.20994V17.3581C109.067 18.8889 106.006 20.3457 103.167 20.3457C99.6865 20.3457 98.6496 18.7408 98.6496 15.6544V9.20994H94.4035L94.3541 17.2593C94.4035 22.6173 98.0325 24 101.908 24C105.438 24 108.302 22.8395 110.376 21.2099V23.7531H114.597V9.20994H110.376Z" fill="#4A56EE"/>
<path d="M132.385 4.00009V11.4815C130.805 9.82723 128.262 8.96303 125.127 8.96303C120.461 8.96303 116.462 10.9383 116.462 16.4939C116.462 22.0494 120.461 24 125.127 24C128.262 24 130.805 23.1358 132.385 21.4815V23.7531H136.606V4.00009H132.385ZM126.534 20.4692C122.757 20.4692 120.708 19.358 120.708 16.4939C120.708 13.605 122.757 12.4939 126.534 12.4939C130.311 12.4939 132.385 13.605 132.385 16.4939C132.385 19.358 130.311 20.4692 126.534 20.4692Z" fill="#4A56EE"/>
<path d="M148.576 8.96303C145.539 8.96303 142.626 9.50624 139.664 10.4692L141.17 13.5556C144.157 12.6667 146.477 12.4939 148.378 12.4939C150.353 12.4939 153.908 12.7161 153.908 15.4815C152.007 14.8395 149.711 14.4445 147.218 14.4445C142.602 14.4445 138.454 15.6297 138.454 19.4074C138.454 22.6914 140.997 24 145.07 24C148.502 24 151.341 23.2099 153.908 21.9506V23.7531H158.154V16.4198C158.105 10.9136 154.649 8.96303 148.576 8.96303ZM153.908 19.2346C151.736 20.1729 148.576 20.8889 146.28 20.8889C144.083 20.8889 142.676 20.7654 142.676 19.2346C142.676 17.7531 144.576 17.2099 147.736 17.2099C150.427 17.2099 152.427 17.6297 153.908 18.0988V19.2346Z" fill="#4A56EE"/>
<path d="M159.313 23.7531H164.991L170.324 18.9383L175.656 23.7531H181.334L173.138 16.4939L181.334 9.20994H175.656L170.324 14.0247L164.991 9.20994H159.313L167.485 16.4939L159.313 23.7531Z" fill="#4A56EE"/>
</svg>
