<svg width="226" height="226" viewBox="0 0 226 226" fill="none" xmlns="http://www.w3.org/2000/svg">
<path d="M0.128906 142.723V154.619H12.0192V142.723V130.868H0.128906V142.723Z" fill="black"/>
<path d="M12.0192 71.3828H0.128906V83.2797H12.0192V71.3828Z" fill="black"/>
<path d="M85.484 202.334H73.5938V214.231H85.484V202.334Z" fill="black"/>
<path d="M12.0192 95.1762V107.073H0.128906V118.97H12.0192V130.867H23.9094H35.7997V142.721H47.6899V130.867H59.5802V118.97V107.073H47.6899V118.97H35.7997H23.9094V107.073V95.1762V83.2793H12.0192V95.1762Z" fill="black"/>
<path d="M35.7965 71.3828H23.9062V83.2797H35.7965H47.6868V71.3828H35.7965Z" fill="black"/>
<path d="M89.3034 166.982H95.6731V155.085H89.3034H82.9336V166.982H89.3034Z" fill="black"/>
<path d="M59.5778 83.2793H47.6875V95.1762H59.5778V83.2793Z" fill="black"/>
<path d="M142.812 130.868H130.922V142.765H142.812V130.868Z" fill="black"/>
<path d="M154.699 0H142.809V11.8969H154.699V0Z" fill="black"/>
<path d="M83.3586 95.1761V83.2792H95.2489V71.3823H83.3586V59.4854H71.4684V71.3823H59.5781V83.2792H71.4684V95.1761V107.073V118.97V130.867H83.3586V118.97V107.073H95.2489V95.1761H83.3586Z" fill="black"/>
<path d="M142.812 214.102H154.702V202.205H142.812H130.922V214.102H142.812Z" fill="black"/>
<path d="M130.922 0H119.031V11.8969H130.922V0Z" fill="black"/>
<path d="M127.948 95.1766V83.2797H116.058V71.3828H104.168V83.2797V95.1766H92.2773V107.074H104.168H116.058V95.1766H127.948Z" fill="black"/>
<path d="M195.043 71.3828H183.152V83.2797H195.043V71.3828Z" fill="black"/>
<path d="M71.8082 130.868H59.918V142.765H71.8082V130.868Z" fill="black"/>
<path d="M119.031 59.487V47.5901H130.921V35.6932H142.811H154.701V23.7963H142.811V11.8994H130.921V23.7963H119.031V35.6932H107.14V47.5901H95.25V59.487H107.14H119.031Z" fill="black"/>
<path d="M119.031 142.72V130.866H130.921V118.969H119.031H107.14V130.866H95.25V142.72H107.14H119.031Z" fill="black"/>
<path d="M154.701 190.308V178.412H142.811H130.92V166.515H119.03V178.412H107.14V190.308H95.2496H83.3594V202.205H95.2496H107.14H119.03V190.308H130.92V202.205H142.811V190.308H154.701Z" fill="black"/>
<path d="M107.14 11.8969V0H95.2493H83.359V11.8969H71.4688V23.7938H83.359H95.2493V11.8969H107.14Z" fill="black"/>
<path d="M107.14 23.7959H95.25V35.6928H107.14V23.7959Z" fill="black"/>
<path d="M136.867 71.3827H124.977V83.2796V95.1765V107.073H136.867H148.757V95.1765H136.867V83.2796H148.757V71.3827H160.647V59.4858H148.757V47.5889H136.867V59.4858V71.3827Z" fill="black"/>
<path d="M95.2496 35.6924H83.3594V47.5893H95.2496V35.6924Z" fill="black"/>
<path d="M130.922 154.619V166.515H142.812H154.702V154.619H166.593H178.44V142.722H166.593H154.702H142.812V154.619H130.922Z" fill="black"/>
<path d="M195.043 107.072H183.152V118.969H195.043V107.072Z" fill="black"/>
<path d="M154.699 118.969H142.809V130.866H154.699V118.969Z" fill="black"/>
<path d="M184.383 83.2793H172.535H160.645V95.1762H172.535V107.073H184.383V95.1762V83.2793Z" fill="black"/>
<path d="M178.48 118.969H166.59V130.866H178.48V118.969Z" fill="black"/>
<path d="M47.6868 190.522H83.3575V142.722H35.5842V154.619H23.9062V166.515H35.5842V178.412H23.9062V190.309H35.5842V190.522H35.7965V202.206H23.9062V214.103V226H35.7965V214.103H47.6868V202.206V190.522ZM74.2275 151.899V181.642H44.5019V151.899H74.2275Z" fill="black"/>
<path d="M202.218 142.723H214.108V130.868H202.218H190.328H178.438V142.723H190.328H202.218Z" fill="black"/>
<path d="M202.219 95.1766H214.109V83.2797V71.3828H202.219V83.2797V95.1766Z" fill="black"/>
<path d="M107.566 155.085H95.6758V166.982V178.879H107.566V166.982V155.085Z" fill="black"/>
<path d="M226 142.722H214.109V154.619H226V142.722Z" fill="black"/>
<path d="M226 118.969V107.072H214.109V118.969V130.866H226V118.969Z" fill="black"/>
<path d="M12.0192 202.205H0.128906V214.102V225.999H12.0192V214.102V202.205Z" fill="black"/>
<path d="M225.998 59.4845V0H166.547V59.4845H225.998ZM175.507 50.5618V8.92268H217.123V50.5618H175.507Z" fill="black"/>
<path d="M208.163 17.8457H184.383V41.6395H208.163V17.8457Z" fill="black"/>
<path d="M225.998 166.515H166.547V225.999H225.998V166.515ZM175.507 217.077V175.437H217.123V217.077H175.507Z" fill="black"/>
<path d="M208.163 184.361H184.383V208.155H208.163V184.361Z" fill="black"/>
<path d="M0 0V59.4845H59.4513V0H0ZM50.5336 8.92268V50.5618H8.91769V8.92268H50.5336Z" fill="black"/>
<path d="M41.6164 17.8457H17.8359V41.6395H41.6164V17.8457Z" fill="black"/>
</svg>
