<svg width="16" height="16" viewBox="0 0 16 16" fill="none" xmlns="http://www.w3.org/2000/svg">
<circle cx="7.9987" cy="8.00016" r="6.66667" fill="white"/>
<path fill-rule="evenodd" clip-rule="evenodd" d="M14.6654 8.00016C14.6654 11.6821 11.6806 14.6668 7.9987 14.6668C4.3168 14.6668 1.33203 11.6821 1.33203 8.00016C1.33203 4.31826 4.3168 1.3335 7.9987 1.3335C11.6806 1.3335 14.6654 4.31826 14.6654 8.00016ZM11.1779 5.65707C10.9723 5.44786 10.6391 5.44786 10.4336 5.65707L6.94607 9.20683L5.56384 7.79993C5.3583 7.59072 5.02506 7.59072 4.81952 7.79993C4.61398 8.00914 4.61398 8.34833 4.81952 8.55754L6.57391 10.3433C6.77944 10.5525 7.11269 10.5525 7.31823 10.3433L11.1779 6.41468C11.3834 6.20548 11.3834 5.86628 11.1779 5.65707Z" fill="#2ECC82"/>
</svg>
