<svg width="16" height="16" viewBox="0 0 16 16" fill="none" xmlns="http://www.w3.org/2000/svg">
<circle cx="7.9987" cy="8.00016" r="6.66667" fill="white"/>
<path fill-rule="evenodd" clip-rule="evenodd" d="M14.6654 8.00016C14.6654 11.6821 11.6806 14.6668 7.9987 14.6668C4.3168 14.6668 1.33203 11.6821 1.33203 8.00016C1.33203 4.31826 4.3168 1.3335 7.9987 1.3335C11.6806 1.3335 14.6654 4.31826 14.6654 8.00016ZM10.3756 6.21746C10.5397 6.05337 10.5397 5.78733 10.3756 5.62323C10.2115 5.45914 9.94549 5.45914 9.7814 5.62323L7.9987 7.40593L6.216 5.62324C6.05191 5.45915 5.78586 5.45915 5.62177 5.62324C5.45768 5.78733 5.45768 6.05338 5.62177 6.21747L7.40446 8.00016L5.62177 9.78286C5.45768 9.94695 5.45768 10.213 5.62177 10.3771C5.78586 10.5412 6.05191 10.5412 6.216 10.3771L7.9987 8.5944L9.7814 10.3771C9.94549 10.5412 10.2115 10.5412 10.3756 10.3771C10.5397 10.213 10.5397 9.94695 10.3756 9.78286L8.59293 8.00016L10.3756 6.21746Z" fill="#E84C3D"/>
</svg>
