<svg width="16" height="16" viewBox="0 0 16 16" fill="none" xmlns="http://www.w3.org/2000/svg">
<circle cx="8.0026" cy="8" r="6.66667" fill="white"/>
<path fill-rule="evenodd" clip-rule="evenodd" d="M14.6693 8C14.6693 11.6819 11.6845 14.6667 8.0026 14.6667C4.32071 14.6667 1.33594 11.6819 1.33594 8C1.33594 4.3181 4.32071 1.33333 8.0026 1.33333C11.6845 1.33333 14.6693 4.3181 14.6693 8ZM10.3795 6.2173C10.5436 6.0532 10.5436 5.78716 10.3795 5.62306C10.2154 5.45897 9.9494 5.45897 9.7853 5.62306L8.0026 7.40576L6.21991 5.62307C6.05581 5.45898 5.78977 5.45898 5.62567 5.62307C5.46158 5.78716 5.46158 6.05321 5.62567 6.2173L7.40837 8L5.62567 9.78269C5.46158 9.94678 5.46158 10.2128 5.62567 10.3769C5.78977 10.541 6.05581 10.541 6.21991 10.3769L8.0026 8.59423L9.7853 10.3769C9.9494 10.541 10.2154 10.541 10.3795 10.3769C10.5436 10.2128 10.5436 9.94679 10.3795 9.78269L8.59683 8L10.3795 6.2173Z" fill="#E84C3D"/>
</svg>
