<svg width="16" height="16" viewBox="0 0 16 16" fill="none" xmlns="http://www.w3.org/2000/svg">
<circle cx="8.0026" cy="7.99967" r="6.66667" fill="white"/>
<path fill-rule="evenodd" clip-rule="evenodd" d="M14.6693 7.99967C14.6693 11.6816 11.6845 14.6663 8.0026 14.6663C4.32071 14.6663 1.33594 11.6816 1.33594 7.99967C1.33594 4.31778 4.32071 1.33301 8.0026 1.33301C11.6845 1.33301 14.6693 4.31778 14.6693 7.99967ZM10.3795 6.21698C10.5436 6.05288 10.5436 5.78684 10.3795 5.62274C10.2154 5.45865 9.9494 5.45865 9.7853 5.62274L8.0026 7.40544L6.21991 5.62275C6.05581 5.45866 5.78977 5.45866 5.62567 5.62275C5.46158 5.78684 5.46158 6.05289 5.62567 6.21698L7.40837 7.99967L5.62567 9.78237C5.46158 9.94646 5.46158 10.2125 5.62567 10.3766C5.78977 10.5407 6.05581 10.5407 6.21991 10.3766L8.0026 8.59391L9.7853 10.3766C9.94939 10.5407 10.2154 10.5407 10.3795 10.3766C10.5436 10.2125 10.5436 9.94647 10.3795 9.78237L8.59683 7.99967L10.3795 6.21698Z" fill="#E84C3D"/>
</svg>
