<svg width="16" height="16" viewBox="0 0 16 16" fill="none" xmlns="http://www.w3.org/2000/svg">
<circle cx="8.0026" cy="7.99967" r="6.66667" fill="white"/>
<path fill-rule="evenodd" clip-rule="evenodd" d="M14.6693 7.99967C14.6693 11.6816 11.6845 14.6663 8.0026 14.6663C4.32071 14.6663 1.33594 11.6816 1.33594 7.99967C1.33594 4.31778 4.32071 1.33301 8.0026 1.33301C11.6845 1.33301 14.6693 4.31778 14.6693 7.99967ZM11.1818 5.65658C10.9762 5.44737 10.643 5.44737 10.4375 5.65658L6.94997 9.20635L5.56775 7.79944C5.36221 7.59023 5.02896 7.59023 4.82343 7.79944C4.61789 8.00865 4.61789 8.34784 4.82343 8.55705L6.57781 10.3428C6.78335 10.552 7.1166 10.552 7.32213 10.3428L11.1818 6.4142C11.3873 6.20499 11.3873 5.86579 11.1818 5.65658Z" fill="#2ECC82"/>
</svg>
