<svg width="16" height="17" viewBox="0 0 16 17" fill="none" xmlns="http://www.w3.org/2000/svg">
<path fill-rule="evenodd" clip-rule="evenodd" d="M7.3776 2.4585C7.3776 2.11332 7.65742 1.8335 8.0026 1.8335C9.32115 1.8335 10.6101 2.22449 11.7064 2.95703C12.8027 3.68957 13.6572 4.73077 14.1618 5.94894C14.6664 7.16711 14.7984 8.50756 14.5412 9.80076C14.2839 11.094 13.649 12.2819 12.7166 13.2142C11.7843 14.1466 10.5964 14.7815 9.30321 15.0387C8.01 15.296 6.66955 15.1639 5.45138 14.6594C4.23321 14.1548 3.19202 13.3003 2.45947 12.204C1.72693 11.1076 1.33594 9.8187 1.33594 8.50016C1.33594 8.15498 1.61576 7.87516 1.96094 7.87516C2.30612 7.87516 2.58594 8.15498 2.58594 8.50016C2.58594 9.57148 2.90362 10.6187 3.49881 11.5095C4.094 12.4003 4.93997 13.0945 5.92973 13.5045C6.9195 13.9145 8.00861 14.0218 9.05934 13.8127C10.1101 13.6037 11.0752 13.0879 11.8328 12.3303C12.5903 11.5728 13.1062 10.6076 13.3152 9.5569C13.5242 8.50617 13.4169 7.41706 13.0069 6.42729C12.597 5.43753 11.9027 4.59156 11.0119 3.99637C10.1212 3.40118 9.07392 3.0835 8.0026 3.0835C7.65742 3.0835 7.3776 2.80367 7.3776 2.4585Z" fill="white"/>
</svg>
