<svg width="10" height="10" viewBox="0 0 10 10" fill="none" xmlns="http://www.w3.org/2000/svg">
<path d="M0.692744 10C0.49868 10 0.335895 9.93425 0.204388 9.80274C0.0733377 9.67169 0.0078125 9.50913 0.0078125 9.31507V3.83562C0.0078125 3.64155 0.0733377 3.47877 0.204388 3.34726C0.335895 3.21621 0.49868 3.15068 0.692744 3.15068C0.886808 3.15068 1.04959 3.21621 1.1811 3.34726C1.31215 3.47877 1.37768 3.64155 1.37768 3.83562V7.67123L8.86055 0.188356C8.98612 0.0627855 9.14023 0 9.32288 0C9.50553 0 9.66535 0.068493 9.80233 0.205479C9.9279 0.33105 9.99069 0.490868 9.99069 0.684932C9.99069 0.878995 9.9279 1.03881 9.80233 1.16438L2.33658 8.63014H6.1722C6.36626 8.63014 6.52905 8.69589 6.66055 8.8274C6.7916 8.95845 6.85713 9.12101 6.85713 9.31507C6.85713 9.50913 6.7916 9.67169 6.66055 9.80274C6.52905 9.93425 6.36626 10 6.1722 10H0.692744Z" fill="white"/>
</svg>
