<svg width="10" height="10" viewBox="0 0 10 10" fill="none" xmlns="http://www.w3.org/2000/svg">
<path d="M9.30726 0C9.50132 0 9.66411 0.065753 9.79561 0.19726C9.92666 0.32831 9.99219 0.490868 9.99219 0.684931V6.16438C9.99219 6.35845 9.92666 6.52123 9.79561 6.65274C9.66411 6.78379 9.50132 6.84932 9.30726 6.84932C9.11319 6.84932 8.95041 6.78379 8.8189 6.65274C8.68785 6.52123 8.62232 6.35845 8.62232 6.16438V2.32877L1.13945 9.81164C1.01388 9.93721 0.859768 10 0.677119 10C0.494471 10 0.334655 9.93151 0.197668 9.79452C0.0720978 9.66895 0.00931072 9.50913 0.00931072 9.31507C0.00931072 9.121 0.0720978 8.96119 0.197668 8.83562L7.66342 1.36986H3.8278C3.63374 1.36986 3.47095 1.30411 3.33945 1.1726C3.2084 1.04155 3.14287 0.878995 3.14287 0.684931C3.14287 0.490868 3.2084 0.32831 3.33945 0.19726C3.47095 0.065753 3.63374 0 3.8278 0H9.30726Z" fill="#0F94F2"/>
</svg>
