<svg width="20" height="20" viewBox="0 0 20 20" fill="none" xmlns="http://www.w3.org/2000/svg">
<path d="M14.1641 11.1668V13.6668C14.1641 17.0002 12.8307 18.3335 9.4974 18.3335H6.33073C2.9974 18.3335 1.66406 17.0002 1.66406 13.6668V10.5002C1.66406 7.16683 2.9974 5.8335 6.33073 5.8335H8.83073" stroke="#0F94F2" stroke-width="1.5" stroke-linecap="round" stroke-linejoin="round"/>
<path d="M14.1693 11.1668H11.5026C9.5026 11.1668 8.83594 10.5002 8.83594 8.50016V5.8335L14.1693 11.1668Z" stroke="#0F94F2" stroke-width="1.5" stroke-linecap="round" stroke-linejoin="round"/>
<path d="M9.66406 1.6665H12.9974" stroke="#0F94F2" stroke-width="1.5" stroke-linecap="round" stroke-linejoin="round"/>
<path d="M5.83594 4.1665C5.83594 2.78317 6.9526 1.6665 8.33594 1.6665H10.5193" stroke="#0F94F2" stroke-width="1.5" stroke-linecap="round" stroke-linejoin="round"/>
<path d="M18.3339 6.6665V11.8248C18.3339 13.1165 17.2839 14.1665 15.9922 14.1665" stroke="#0F94F2" stroke-width="1.5" stroke-linecap="round" stroke-linejoin="round"/>
<path d="M18.3359 6.6665H15.8359C13.9609 6.6665 13.3359 6.0415 13.3359 4.1665V1.6665L18.3359 6.6665Z" stroke="#0F94F2" stroke-width="1.5" stroke-linecap="round" stroke-linejoin="round"/>
</svg>
