<svg width="21" height="20" viewBox="0 0 21 20" fill="none" xmlns="http://www.w3.org/2000/svg">
<path d="M16.5841 6.59999V10.8917C16.5841 13.4583 15.1175 14.5583 12.9175 14.5583H5.59244C5.21744 14.5583 4.85911 14.525 4.52578 14.45C4.31744 14.4167 4.11745 14.3584 3.93412 14.2917C2.68412 13.825 1.92578 12.7417 1.92578 10.8917V6.59999C1.92578 4.03332 3.39244 2.93335 5.59244 2.93335H12.9175C14.7841 2.93335 16.1258 3.72501 16.4841 5.53335C16.5424 5.86668 16.5841 6.20832 16.5841 6.59999Z" stroke="#0F94F2" stroke-width="1.3" stroke-miterlimit="10" stroke-linecap="round" stroke-linejoin="round"/>
<path d="M19.0857 9.10009V13.3918C19.0857 15.9584 17.619 17.0584 15.419 17.0584H8.09401C7.47734 17.0584 6.91902 16.9751 6.43568 16.7918C5.44402 16.4251 4.76901 15.6668 4.52734 14.4501C4.86068 14.5251 5.21901 14.5584 5.59401 14.5584H12.919C15.119 14.5584 16.5857 13.4584 16.5857 10.8918V6.60009C16.5857 6.20842 16.5523 5.85845 16.4857 5.53345C18.069 5.86678 19.0857 6.98342 19.0857 9.10009Z" stroke="#0F94F2" stroke-width="1.3" stroke-miterlimit="10" stroke-linecap="round" stroke-linejoin="round"/>
<path d="M9.25079 10.95C10.4658 10.95 11.4508 9.96497 11.4508 8.74994C11.4508 7.53491 10.4658 6.54993 9.25079 6.54993C8.03577 6.54993 7.05078 7.53491 7.05078 8.74994C7.05078 9.96497 8.03577 10.95 9.25079 10.95Z" stroke="#0F94F2" stroke-width="1.3" stroke-miterlimit="10" stroke-linecap="round" stroke-linejoin="round"/>
<path d="M4.48438 6.91663V10.5833" stroke="#0F94F2" stroke-width="1.3" stroke-miterlimit="10" stroke-linecap="round" stroke-linejoin="round"/>
<path d="M14.0195 6.91687V10.5836" stroke="#0F94F2" stroke-width="1.3" stroke-miterlimit="10" stroke-linecap="round" stroke-linejoin="round"/>
</svg>
