<svg width="20" height="20" viewBox="0 0 20 20" fill="none" xmlns="http://www.w3.org/2000/svg">
<path d="M14.1641 11.1667V13.6667C14.1641 17 12.8307 18.3333 9.4974 18.3333H6.33073C2.9974 18.3333 1.66406 17 1.66406 13.6667V10.5C1.66406 7.16667 2.9974 5.83334 6.33073 5.83334H8.83073" stroke="#0F94F2" stroke-width="1.5" stroke-linecap="round" stroke-linejoin="round"/>
<path d="M14.1693 11.1667H11.5026C9.5026 11.1667 8.83594 10.5 8.83594 8.5V5.83334L14.1693 11.1667Z" stroke="#0F94F2" stroke-width="1.5" stroke-linecap="round" stroke-linejoin="round"/>
<path d="M9.66406 1.66666H12.9974" stroke="#0F94F2" stroke-width="1.5" stroke-linecap="round" stroke-linejoin="round"/>
<path d="M5.83594 4.16666C5.83594 2.78333 6.9526 1.66666 8.33594 1.66666H10.5193" stroke="#0F94F2" stroke-width="1.5" stroke-linecap="round" stroke-linejoin="round"/>
<path d="M18.3339 6.66666V11.825C18.3339 13.1167 17.2839 14.1667 15.9922 14.1667" stroke="#0F94F2" stroke-width="1.5" stroke-linecap="round" stroke-linejoin="round"/>
<path d="M18.3359 6.66666H15.8359C13.9609 6.66666 13.3359 6.04166 13.3359 4.16666V1.66666L18.3359 6.66666Z" stroke="#0F94F2" stroke-width="1.5" stroke-linecap="round" stroke-linejoin="round"/>
</svg>
