<svg width="28" height="28" viewBox="0 0 28 28" fill="none" xmlns="http://www.w3.org/2000/svg">
<path d="M22.5616 16.905L21.395 14.9684C21.15 14.5367 20.9283 13.72 20.9283 13.2417V10.29C20.9283 7.54838 19.3183 5.18004 16.9966 4.07171C16.39 2.99837 15.27 2.33337 13.9866 2.33337C12.715 2.33337 11.5716 3.02171 10.965 4.10671C8.68997 5.23837 7.11497 7.58337 7.11497 10.29V13.2417C7.11497 13.72 6.89331 14.5367 6.64831 14.9567L5.46997 16.905C5.00331 17.6867 4.89831 18.55 5.18997 19.3434C5.46997 20.125 6.13497 20.7317 6.99831 21.0234C9.26164 21.7934 11.6416 22.1667 14.0216 22.1667C16.4016 22.1667 18.7816 21.7934 21.045 21.035C21.8616 20.7667 22.4916 20.1484 22.795 19.3434C23.0983 18.5384 23.0166 17.6517 22.5616 16.905Z" fill="#2B2E32"/>
<path d="M17.3026 23.345C16.8126 24.6984 15.5176 25.6667 14.0009 25.6667C13.0793 25.6667 12.1693 25.2934 11.5276 24.6284C11.1543 24.2784 10.8743 23.8117 10.7109 23.3334C10.8626 23.3567 11.0143 23.3684 11.1776 23.3917C11.4459 23.4267 11.7259 23.4617 12.0059 23.485C12.6709 23.5434 13.3476 23.5784 14.0243 23.5784C14.6893 23.5784 15.3543 23.5434 16.0076 23.485C16.2526 23.4617 16.4976 23.45 16.7309 23.415C16.9176 23.3917 17.1043 23.3684 17.3026 23.345Z" fill="#2B2E32"/>
</svg>
