<svg width="28" height="28" viewBox="0 0 28 28" fill="none" xmlns="http://www.w3.org/2000/svg">
<path d="M22.5655 16.9052L21.3989 14.9685C21.1539 14.5368 20.9322 13.7202 20.9322 13.2418V10.2902C20.9322 7.5485 19.3222 5.18016 17.0005 4.07183C16.3939 2.9985 15.2739 2.3335 13.9905 2.3335C12.7189 2.3335 11.5755 3.02183 10.9689 4.10683C8.69388 5.2385 7.11888 7.5835 7.11888 10.2902V13.2418C7.11888 13.7202 6.89721 14.5368 6.65221 14.9568L5.47388 16.9052C5.00721 17.6868 4.90221 18.5502 5.19388 19.3435C5.47388 20.1252 6.13888 20.7318 7.00221 21.0235C9.26555 21.7935 11.6455 22.1668 14.0255 22.1668C16.4055 22.1668 18.7855 21.7935 21.0489 21.0352C21.8655 20.7668 22.4955 20.1485 22.7989 19.3435C23.1022 18.5385 23.0205 17.6518 22.5655 16.9052Z" fill="#2B2E32"/>
<path d="M17.3026 23.3452C16.8126 24.6985 15.5176 25.6668 14.0009 25.6668C13.0793 25.6668 12.1693 25.2935 11.5276 24.6285C11.1543 24.2785 10.8743 23.8118 10.7109 23.3335C10.8626 23.3568 11.0143 23.3685 11.1776 23.3918C11.4459 23.4268 11.7259 23.4618 12.0059 23.4852C12.6709 23.5435 13.3476 23.5785 14.0243 23.5785C14.6893 23.5785 15.3543 23.5435 16.0076 23.4852C16.2526 23.4618 16.4976 23.4502 16.7309 23.4152C16.9176 23.3918 17.1043 23.3685 17.3026 23.3452Z" fill="#2B2E32"/>
</svg>
