<svg width="28" height="28" viewBox="0 0 28 28" fill="none" xmlns="http://www.w3.org/2000/svg">
<path d="M22.5616 16.9049L21.395 14.9683C21.15 14.5366 20.9283 13.7199 20.9283 13.2416V10.2899C20.9283 7.54825 19.3183 5.17992 16.9966 4.07159C16.39 2.99825 15.27 2.33325 13.9866 2.33325C12.715 2.33325 11.5716 3.02159 10.965 4.10659C8.68997 5.23825 7.11497 7.58325 7.11497 10.2899V13.2416C7.11497 13.7199 6.89331 14.5366 6.64831 14.9566L5.46997 16.9049C5.00331 17.6866 4.89831 18.5499 5.18997 19.3433C5.46997 20.1249 6.13497 20.7316 6.99831 21.0233C9.26164 21.7933 11.6416 22.1666 14.0216 22.1666C16.4016 22.1666 18.7816 21.7933 21.045 21.0349C21.8616 20.7666 22.4916 20.1483 22.795 19.3433C23.0983 18.5383 23.0166 17.6516 22.5616 16.9049Z" fill="#2B2E32"/>
<path d="M17.3026 23.3449C16.8126 24.6983 15.5176 25.6666 14.0009 25.6666C13.0793 25.6666 12.1693 25.2933 11.5276 24.6283C11.1543 24.2783 10.8743 23.8116 10.7109 23.3333C10.8626 23.3566 11.0143 23.3683 11.1776 23.3916C11.4459 23.4266 11.7259 23.4616 12.0059 23.4849C12.6709 23.5433 13.3476 23.5783 14.0243 23.5783C14.6893 23.5783 15.3543 23.5433 16.0076 23.4849C16.2526 23.4616 16.4976 23.4499 16.7309 23.4149C16.9176 23.3916 17.1043 23.3683 17.3026 23.3449Z" fill="#2B2E32"/>
</svg>
