<svg width="21" height="20" viewBox="0 0 21 20" fill="none" xmlns="http://www.w3.org/2000/svg">
<path d="M16.5802 6.59999V10.8917C16.5802 13.4583 15.1135 14.5583 12.9135 14.5583H5.58854C5.21354 14.5583 4.8552 14.525 4.52187 14.45C4.31354 14.4167 4.11354 14.3584 3.93021 14.2917C2.68021 13.825 1.92188 12.7417 1.92188 10.8917V6.59999C1.92188 4.03332 3.38854 2.93335 5.58854 2.93335H12.9135C14.7802 2.93335 16.1219 3.72501 16.4802 5.53335C16.5385 5.86668 16.5802 6.20832 16.5802 6.59999Z" stroke="white" stroke-width="1.3" stroke-miterlimit="10" stroke-linecap="round" stroke-linejoin="round"/>
<path d="M19.0818 9.10009V13.3918C19.0818 15.9584 17.6151 17.0584 15.4151 17.0584H8.0901C7.47344 17.0584 6.91511 16.9751 6.43178 16.7918C5.44011 16.4251 4.7651 15.6668 4.52344 14.4501C4.85677 14.5251 5.2151 14.5584 5.5901 14.5584H12.9151C15.1151 14.5584 16.5818 13.4584 16.5818 10.8918V6.60009C16.5818 6.20842 16.5484 5.85845 16.4818 5.53345C18.0651 5.86678 19.0818 6.98342 19.0818 9.10009Z" stroke="white" stroke-width="1.3" stroke-miterlimit="10" stroke-linecap="round" stroke-linejoin="round"/>
<path d="M9.24689 10.9498C10.4619 10.9498 11.4469 9.96484 11.4469 8.74982C11.4469 7.53479 10.4619 6.5498 9.24689 6.5498C8.03186 6.5498 7.04688 7.53479 7.04688 8.74982C7.04688 9.96484 8.03186 10.9498 9.24689 10.9498Z" stroke="white" stroke-width="1.3" stroke-miterlimit="10" stroke-linecap="round" stroke-linejoin="round"/>
<path d="M4.47656 6.91675V10.5834" stroke="white" stroke-width="1.3" stroke-miterlimit="10" stroke-linecap="round" stroke-linejoin="round"/>
<path d="M14.0156 6.91699V10.5837" stroke="white" stroke-width="1.3" stroke-miterlimit="10" stroke-linecap="round" stroke-linejoin="round"/>
</svg>
