<svg width="23" height="23" viewBox="0 0 23 23" fill="none" xmlns="http://www.w3.org/2000/svg">
<path d="M20.1531 5.84293C16.9928 5.53216 13.8135 5.37207 10.6437 5.37207C8.76456 5.37207 6.88546 5.46624 5.00636 5.65458L3.07031 5.84293" stroke="#767A7F" stroke-width="1.48356" stroke-linecap="round" stroke-linejoin="round"/>
<path d="M8.29688 4.89161L8.50566 3.65797C8.65751 2.76334 8.7714 2.09473 10.3753 2.09473H12.8618C14.4656 2.09473 14.589 2.80101 14.7314 3.66738L14.9402 4.89161" stroke="#767A7F" stroke-width="1.48356" stroke-linecap="round" stroke-linejoin="round"/>
<path d="M18.1112 8.81738L17.4944 18.3004C17.39 19.7789 17.3046 20.9278 14.6567 20.9278H8.56389C5.91606 20.9278 5.83065 19.7789 5.72625 18.3004L5.10938 8.81738" stroke="#767A7F" stroke-width="1.48356" stroke-linecap="round" stroke-linejoin="round"/>
<path d="M10.0312 15.749H13.1916" stroke="#767A7F" stroke-width="1.48356" stroke-linecap="round" stroke-linejoin="round"/>
<path d="M9.24219 11.9814H13.9874" stroke="#767A7F" stroke-width="1.48356" stroke-linecap="round" stroke-linejoin="round"/>
</svg>
