<svg width="20" height="20" viewBox="0 0 20 20" fill="none" xmlns="http://www.w3.org/2000/svg">
<path d="M14.168 11.1668V13.6668C14.168 17.0002 12.8346 18.3335 9.5013 18.3335H6.33464C3.0013 18.3335 1.66797 17.0002 1.66797 13.6668V10.5002C1.66797 7.16683 3.0013 5.8335 6.33464 5.8335H8.83464" stroke="#0F94F2" stroke-width="1.5" stroke-linecap="round" stroke-linejoin="round"/>
<path d="M14.1654 11.1668H11.4987C9.4987 11.1668 8.83203 10.5002 8.83203 8.50016V5.8335L14.1654 11.1668Z" stroke="#0F94F2" stroke-width="1.5" stroke-linecap="round" stroke-linejoin="round"/>
<path d="M9.66797 1.6665H13.0013" stroke="#0F94F2" stroke-width="1.5" stroke-linecap="round" stroke-linejoin="round"/>
<path d="M5.83203 4.1665C5.83203 2.78317 6.9487 1.6665 8.33203 1.6665H10.5154" stroke="#0F94F2" stroke-width="1.5" stroke-linecap="round" stroke-linejoin="round"/>
<path d="M18.3339 6.6665V11.8248C18.3339 13.1165 17.2839 14.1665 15.9922 14.1665" stroke="#0F94F2" stroke-width="1.5" stroke-linecap="round" stroke-linejoin="round"/>
<path d="M18.332 6.6665H15.832C13.957 6.6665 13.332 6.0415 13.332 4.1665V1.6665L18.332 6.6665Z" stroke="#0F94F2" stroke-width="1.5" stroke-linecap="round" stroke-linejoin="round"/>
</svg>
