<svg width="20" height="20" viewBox="0 0 20 20" fill="none" xmlns="http://www.w3.org/2000/svg">
<path d="M14.1641 11.1667V13.6667C14.1641 17 12.8307 18.3334 9.4974 18.3334H6.33073C2.9974 18.3334 1.66406 17 1.66406 13.6667V10.5C1.66406 7.16671 2.9974 5.83337 6.33073 5.83337H8.83073" stroke="#0F94F2" stroke-width="1.5" stroke-linecap="round" stroke-linejoin="round"/>
<path d="M14.1693 11.1667H11.5026C9.5026 11.1667 8.83594 10.5 8.83594 8.50004V5.83337L14.1693 11.1667Z" stroke="#0F94F2" stroke-width="1.5" stroke-linecap="round" stroke-linejoin="round"/>
<path d="M9.66406 1.66663H12.9974" stroke="#0F94F2" stroke-width="1.5" stroke-linecap="round" stroke-linejoin="round"/>
<path d="M5.83594 4.16663C5.83594 2.78329 6.9526 1.66663 8.33594 1.66663H10.5193" stroke="#0F94F2" stroke-width="1.5" stroke-linecap="round" stroke-linejoin="round"/>
<path d="M18.3339 6.66663V11.825C18.3339 13.1166 17.2839 14.1666 15.9922 14.1666" stroke="#0F94F2" stroke-width="1.5" stroke-linecap="round" stroke-linejoin="round"/>
<path d="M18.3359 6.66663H15.8359C13.9609 6.66663 13.3359 6.04163 13.3359 4.16663V1.66663L18.3359 6.66663Z" stroke="#0F94F2" stroke-width="1.5" stroke-linecap="round" stroke-linejoin="round"/>
</svg>
