<svg width="20" height="20" viewBox="0 0 20 20" fill="none" xmlns="http://www.w3.org/2000/svg">
<path d="M14.1641 11.1666V13.6666C14.1641 16.9999 12.8307 18.3333 9.4974 18.3333H6.33073C2.9974 18.3333 1.66406 16.9999 1.66406 13.6666V10.4999C1.66406 7.16659 2.9974 5.83325 6.33073 5.83325H8.83073" stroke="#0F94F2" stroke-width="1.5" stroke-linecap="round" stroke-linejoin="round"/>
<path d="M14.1693 11.1666H11.5026C9.5026 11.1666 8.83594 10.4999 8.83594 8.49992V5.83325L14.1693 11.1666Z" stroke="#0F94F2" stroke-width="1.5" stroke-linecap="round" stroke-linejoin="round"/>
<path d="M9.66406 1.66675H12.9974" stroke="#0F94F2" stroke-width="1.5" stroke-linecap="round" stroke-linejoin="round"/>
<path d="M5.83594 4.16675C5.83594 2.78341 6.9526 1.66675 8.33594 1.66675H10.5193" stroke="#0F94F2" stroke-width="1.5" stroke-linecap="round" stroke-linejoin="round"/>
<path d="M18.3339 6.66675V11.8251C18.3339 13.1167 17.2839 14.1667 15.9922 14.1667" stroke="#0F94F2" stroke-width="1.5" stroke-linecap="round" stroke-linejoin="round"/>
<path d="M18.3359 6.66675H15.8359C13.9609 6.66675 13.3359 6.04175 13.3359 4.16675V1.66675L18.3359 6.66675Z" stroke="#0F94F2" stroke-width="1.5" stroke-linecap="round" stroke-linejoin="round"/>
</svg>
