<svg width="28" height="28" viewBox="0 0 28 28" fill="none" xmlns="http://www.w3.org/2000/svg">
<path d="M22.5616 16.9052L21.395 14.9685C21.15 14.5368 20.9283 13.7202 20.9283 13.2418V10.2902C20.9283 7.5485 19.3183 5.18016 16.9966 4.07183C16.39 2.9985 15.27 2.3335 13.9866 2.3335C12.715 2.3335 11.5716 3.02183 10.965 4.10683C8.68997 5.2385 7.11497 7.5835 7.11497 10.2902V13.2418C7.11497 13.7202 6.89331 14.5368 6.64831 14.9568L5.46997 16.9052C5.00331 17.6868 4.89831 18.5502 5.18997 19.3435C5.46997 20.1252 6.13497 20.7318 6.99831 21.0235C9.26164 21.7935 11.6416 22.1668 14.0216 22.1668C16.4016 22.1668 18.7816 21.7935 21.045 21.0352C21.8616 20.7668 22.4916 20.1485 22.795 19.3435C23.0983 18.5385 23.0166 17.6518 22.5616 16.9052Z" fill="#2B2E32"/>
<path d="M17.3026 23.3452C16.8126 24.6985 15.5176 25.6668 14.0009 25.6668C13.0793 25.6668 12.1693 25.2935 11.5276 24.6285C11.1543 24.2785 10.8743 23.8118 10.7109 23.3335C10.8626 23.3568 11.0143 23.3685 11.1776 23.3918C11.4459 23.4268 11.7259 23.4618 12.0059 23.4852C12.6709 23.5435 13.3476 23.5785 14.0243 23.5785C14.6893 23.5785 15.3543 23.5435 16.0076 23.4852C16.2526 23.4618 16.4976 23.4502 16.7309 23.4152C16.9176 23.3918 17.1043 23.3685 17.3026 23.3452Z" fill="#2B2E32"/>
</svg>
