<svg width="28" height="28" viewBox="0 0 28 28" fill="none" xmlns="http://www.w3.org/2000/svg">
<path d="M22.5616 16.9047L21.395 14.968C21.15 14.5363 20.9283 13.7197 20.9283 13.2413V10.2897C20.9283 7.54801 19.3183 5.17968 16.9966 4.07134C16.39 2.99801 15.27 2.33301 13.9866 2.33301C12.715 2.33301 11.5716 3.02134 10.965 4.10634C8.68997 5.23801 7.11497 7.58301 7.11497 10.2897V13.2413C7.11497 13.7197 6.89331 14.5363 6.64831 14.9563L5.46997 16.9047C5.00331 17.6863 4.89831 18.5497 5.18997 19.343C5.46997 20.1247 6.13497 20.7313 6.99831 21.023C9.26164 21.793 11.6416 22.1663 14.0216 22.1663C16.4016 22.1663 18.7816 21.793 21.045 21.0347C21.8616 20.7663 22.4916 20.148 22.795 19.343C23.0983 18.538 23.0166 17.6513 22.5616 16.9047Z" fill="#2B2E32"/>
<path d="M17.3026 23.3447C16.8126 24.698 15.5176 25.6663 14.0009 25.6663C13.0793 25.6663 12.1693 25.293 11.5276 24.628C11.1543 24.278 10.8743 23.8113 10.7109 23.333C10.8626 23.3563 11.0143 23.368 11.1776 23.3913C11.4459 23.4263 11.7259 23.4613 12.0059 23.4847C12.6709 23.543 13.3476 23.578 14.0243 23.578C14.6893 23.578 15.3543 23.543 16.0076 23.4847C16.2526 23.4613 16.4976 23.4497 16.7309 23.4147C16.9176 23.3913 17.1043 23.368 17.3026 23.3447Z" fill="#2B2E32"/>
</svg>
