<svg width="21" height="20" viewBox="0 0 21 20" fill="none" xmlns="http://www.w3.org/2000/svg">
<path d="M16.5841 6.60023V10.8919C16.5841 13.4586 15.1175 14.5586 12.9175 14.5586H5.59244C5.21744 14.5586 4.85911 14.5253 4.52578 14.4503C4.31744 14.4169 4.11745 14.3586 3.93412 14.2919C2.68412 13.8253 1.92578 12.7419 1.92578 10.8919V6.60023C1.92578 4.03356 3.39244 2.93359 5.59244 2.93359H12.9175C14.7841 2.93359 16.1258 3.72526 16.4841 5.53359C16.5424 5.86692 16.5841 6.20856 16.5841 6.60023Z" stroke="#0F94F2" stroke-width="1.3" stroke-miterlimit="10" stroke-linecap="round" stroke-linejoin="round"/>
<path d="M19.0857 9.10033V13.392C19.0857 15.9587 17.619 17.0587 15.419 17.0587H8.09401C7.47734 17.0587 6.91902 16.9754 6.43568 16.792C5.44402 16.4254 4.76901 15.667 4.52734 14.4504C4.86068 14.5254 5.21901 14.5587 5.59401 14.5587H12.919C15.119 14.5587 16.5857 13.4587 16.5857 10.892V6.60033C16.5857 6.20866 16.5523 5.85869 16.4857 5.53369C18.069 5.86702 19.0857 6.98366 19.0857 9.10033Z" stroke="#0F94F2" stroke-width="1.3" stroke-miterlimit="10" stroke-linecap="round" stroke-linejoin="round"/>
<path d="M9.25079 10.9503C10.4658 10.9503 11.4508 9.96533 11.4508 8.75031C11.4508 7.53528 10.4658 6.55029 9.25079 6.55029C8.03577 6.55029 7.05078 7.53528 7.05078 8.75031C7.05078 9.96533 8.03577 10.9503 9.25079 10.9503Z" stroke="#0F94F2" stroke-width="1.3" stroke-miterlimit="10" stroke-linecap="round" stroke-linejoin="round"/>
<path d="M4.48438 6.91699V10.5837" stroke="#0F94F2" stroke-width="1.3" stroke-miterlimit="10" stroke-linecap="round" stroke-linejoin="round"/>
<path d="M14.0195 6.91699V10.5837" stroke="#0F94F2" stroke-width="1.3" stroke-miterlimit="10" stroke-linecap="round" stroke-linejoin="round"/>
</svg>
