<svg width="23" height="23" viewBox="0 0 23 23" fill="none" xmlns="http://www.w3.org/2000/svg">
<path d="M20.1531 5.84241C16.9928 5.53164 13.8135 5.37155 10.6437 5.37155C8.76456 5.37155 6.88546 5.46572 5.00636 5.65407L3.07031 5.84241" stroke="#767A7F" stroke-width="1.48356" stroke-linecap="round" stroke-linejoin="round"/>
<path d="M8.29688 4.89124L8.50566 3.6576C8.65751 2.76298 8.7714 2.09436 10.3753 2.09436H12.8618C14.4656 2.09436 14.589 2.80064 14.7314 3.66702L14.9402 4.89124" stroke="#767A7F" stroke-width="1.48356" stroke-linecap="round" stroke-linejoin="round"/>
<path d="M18.1112 8.81813L17.4944 18.3012C17.39 19.7797 17.3046 20.9285 14.6567 20.9285H8.56389C5.91606 20.9285 5.83065 19.7797 5.72625 18.3012L5.10938 8.81813" stroke="#767A7F" stroke-width="1.48356" stroke-linecap="round" stroke-linejoin="round"/>
<path d="M10.0312 15.7492H13.1916" stroke="#767A7F" stroke-width="1.48356" stroke-linecap="round" stroke-linejoin="round"/>
<path d="M9.24219 11.9823H13.9874" stroke="#767A7F" stroke-width="1.48356" stroke-linecap="round" stroke-linejoin="round"/>
</svg>
