<svg width="28" height="28" viewBox="0 0 28 28" fill="none" xmlns="http://www.w3.org/2000/svg">
<path d="M22.5655 16.905L21.3989 14.9683C21.1539 14.5366 20.9322 13.72 20.9322 13.2416V10.29C20.9322 7.54831 19.3222 5.17998 17.0005 4.07165C16.3939 2.99831 15.2739 2.33331 13.9905 2.33331C12.7189 2.33331 11.5755 3.02165 10.9689 4.10665C8.69388 5.23831 7.11888 7.58331 7.11888 10.29V13.2416C7.11888 13.72 6.89721 14.5366 6.65221 14.9566L5.47388 16.905C5.00721 17.6867 4.90221 18.55 5.19388 19.3433C5.47388 20.125 6.13888 20.7317 7.00221 21.0233C9.26555 21.7933 11.6455 22.1667 14.0255 22.1667C16.4055 22.1667 18.7855 21.7933 21.0489 21.035C21.8655 20.7667 22.4955 20.1483 22.7989 19.3433C23.1022 18.5383 23.0205 17.6517 22.5655 16.905Z" fill="#2B2E32"/>
<path d="M17.3026 23.345C16.8126 24.6983 15.5176 25.6666 14.0009 25.6666C13.0793 25.6666 12.1693 25.2933 11.5276 24.6283C11.1543 24.2783 10.8743 23.8116 10.7109 23.3333C10.8626 23.3566 11.0143 23.3683 11.1776 23.3916C11.4459 23.4266 11.7259 23.4616 12.0059 23.485C12.6709 23.5433 13.3476 23.5783 14.0243 23.5783C14.6893 23.5783 15.3543 23.5433 16.0076 23.485C16.2526 23.4616 16.4976 23.45 16.7309 23.415C16.9176 23.3916 17.1043 23.3683 17.3026 23.345Z" fill="#2B2E32"/>
</svg>
