<svg width="24" height="24" viewBox="0 0 24 24" fill="none" xmlns="http://www.w3.org/2000/svg">
<path d="M21.4499 13.6396V14.6396C21.4499 14.9096 21.2399 15.1296 20.9599 15.1396H19.4999C18.9699 15.1396 18.4899 14.7496 18.4499 14.2296C18.4199 13.9196 18.5399 13.6296 18.7399 13.4296C18.9199 13.2396 19.1699 13.1396 19.4399 13.1396H20.9499C21.2399 13.1496 21.4499 13.3696 21.4499 13.6396Z" fill="#2B2E32"/>
<path d="M17.9892 12.6896C17.4892 13.1796 17.2492 13.9096 17.4492 14.6696C17.7092 15.5996 18.6192 16.1896 19.5792 16.1896H20.4492C20.9992 16.1896 21.4492 16.6396 21.4492 17.1896V17.3796C21.4492 19.4496 19.7592 21.1396 17.6892 21.1396H6.20922C4.13922 21.1396 2.44922 19.4496 2.44922 17.3796V10.6496C2.44922 9.41965 3.03922 8.32965 3.94922 7.64965C4.57922 7.16965 5.35922 6.88965 6.20922 6.88965H17.6892C19.7592 6.88965 21.4492 8.57965 21.4492 10.6496V11.0896C21.4492 11.6396 20.9992 12.0896 20.4492 12.0896H19.4292C18.8692 12.0896 18.3592 12.3096 17.9892 12.6896Z" fill="#2B2E32"/>
<path d="M16.1991 4.82C16.4691 5.09 16.2391 5.51 15.8591 5.51L8.17908 5.5C7.73908 5.5 7.50908 4.96 7.82908 4.65L9.44908 3.02C10.8191 1.66 13.0391 1.66 14.4091 3.02L16.1591 4.79C16.1691 4.8 16.1891 4.81 16.1991 4.82Z" fill="#2B2E32"/>
</svg>
