<svg width="18" height="18" viewBox="0 0 18 18" fill="none" xmlns="http://www.w3.org/2000/svg">
<path d="M14.3762 4.98063C14.0537 3.35312 12.8463 2.64062 11.1663 2.64062H4.58125C2.60125 2.64062 1.28125 3.63063 1.28125 5.94063V9.80312C1.28125 11.4681 1.96375 12.4431 3.08875 12.8631C3.25375 12.9231 3.43375 12.9756 3.62125 13.0056C3.92125 13.0731 4.24375 13.1031 4.58125 13.1031H11.1737C13.1537 13.1031 14.4738 12.1131 14.4738 9.80312V5.94063C14.4738 5.58813 14.4437 5.27313 14.3762 4.98063ZM4.14625 9.00063C4.14625 9.30813 3.89125 9.56313 3.58375 9.56313C3.27625 9.56313 3.02125 9.30813 3.02125 9.00063V6.75063C3.02125 6.44313 3.27625 6.18813 3.58375 6.18813C3.89125 6.18813 4.14625 6.44313 4.14625 6.75063V9.00063ZM7.87375 9.85563C6.77875 9.85563 5.89375 8.97063 5.89375 7.87563C5.89375 6.78063 6.77875 5.89563 7.87375 5.89563C8.96875 5.89563 9.85375 6.78063 9.85375 7.87563C9.85375 8.97063 8.96875 9.85563 7.87375 9.85563ZM12.7187 9.00063C12.7187 9.30813 12.4637 9.56313 12.1562 9.56313C11.8487 9.56313 11.5938 9.30813 11.5938 9.00063V6.75063C11.5938 6.44313 11.8487 6.18813 12.1562 6.18813C12.4637 6.18813 12.7187 6.44313 12.7187 6.75063V9.00063Z" fill="white"/>
<path d="M16.7282 8.18972V12.0522C16.7282 14.3622 15.4082 15.3597 13.4207 15.3597H6.83574C6.27324 15.3597 5.77074 15.2772 5.33574 15.1122C4.98324 14.9847 4.67574 14.7972 4.42824 14.5572C4.29324 14.4297 4.39824 14.2272 4.58574 14.2272H11.1707C13.9457 14.2272 15.5957 12.5772 15.5957 9.80972V5.93972C15.5957 5.75972 15.7982 5.64722 15.9257 5.78222C16.4357 6.32222 16.7282 7.10972 16.7282 8.18972Z" fill="white"/>
</svg>
