<svg width="23" height="23" viewBox="0 0 23 23" fill="none" xmlns="http://www.w3.org/2000/svg">
<path d="M20.1531 5.84195C16.9928 5.53118 13.8135 5.37109 10.6437 5.37109C8.76456 5.37109 6.88546 5.46527 5.00636 5.65361L3.07031 5.84195" stroke="#767A7F" stroke-width="1.48356" stroke-linecap="round" stroke-linejoin="round"/>
<path d="M8.29688 4.89063L8.50566 3.65699C8.65751 2.76237 8.7714 2.09375 10.3753 2.09375H12.8618C14.4656 2.09375 14.589 2.80003 14.7314 3.66641L14.9402 4.89063" stroke="#767A7F" stroke-width="1.48356" stroke-linecap="round" stroke-linejoin="round"/>
<path d="M18.1112 8.81836L17.4944 18.3014C17.39 19.7799 17.3046 20.9288 14.6567 20.9288H8.56389C5.91606 20.9288 5.83065 19.7799 5.72625 18.3014L5.10938 8.81836" stroke="#767A7F" stroke-width="1.48356" stroke-linecap="round" stroke-linejoin="round"/>
<path d="M10.0312 15.748H13.1916" stroke="#767A7F" stroke-width="1.48356" stroke-linecap="round" stroke-linejoin="round"/>
<path d="M9.24219 11.9824H13.9874" stroke="#767A7F" stroke-width="1.48356" stroke-linecap="round" stroke-linejoin="round"/>
</svg>
