<svg width="90" height="90" viewBox="0 0 90 90" fill="none" xmlns="http://www.w3.org/2000/svg">
<path d="M45 7.5C24.3375 7.5 7.5 24.3375 7.5 45C7.5 65.6625 24.3375 82.5 45 82.5C65.6625 82.5 82.5 65.6625 82.5 45C82.5 24.3375 65.6625 7.5 45 7.5ZM62.925 36.375L41.6625 57.6375C41.1375 58.1625 40.425 58.4625 39.675 58.4625C38.925 58.4625 38.2125 58.1625 37.6875 57.6375L27.075 47.025C25.9875 45.9375 25.9875 44.1375 27.075 43.05C28.1625 41.9625 29.9625 41.9625 31.05 43.05L39.675 51.675L58.95 32.4C60.0375 31.3125 61.8375 31.3125 62.925 32.4C64.0125 33.4875 64.0125 35.25 62.925 36.375Z" fill="#2AC769"/>
</svg>
