<svg width="28" height="28" viewBox="0 0 28 28" fill="none" xmlns="http://www.w3.org/2000/svg">
<path d="M22.5655 16.9057L21.3989 14.969C21.1539 14.5373 20.9322 13.7207 20.9322 13.2423V10.2907C20.9322 7.54899 19.3222 5.18065 17.0005 4.07232C16.3939 2.99898 15.2739 2.33398 13.9905 2.33398C12.7189 2.33398 11.5755 3.02232 10.9689 4.10732C8.69388 5.23899 7.11888 7.58399 7.11888 10.2907V13.2423C7.11888 13.7207 6.89721 14.5373 6.65221 14.9573L5.47388 16.9057C5.00721 17.6873 4.90221 18.5507 5.19388 19.344C5.47388 20.1257 6.13888 20.7323 7.00221 21.024C9.26555 21.794 11.6455 22.1673 14.0255 22.1673C16.4055 22.1673 18.7855 21.794 21.0489 21.0357C21.8655 20.7673 22.4955 20.149 22.7989 19.344C23.1022 18.539 23.0205 17.6523 22.5655 16.9057Z" fill="#2B2E32"/>
<path d="M17.3026 23.3457C16.8126 24.699 15.5176 25.6673 14.0009 25.6673C13.0793 25.6673 12.1693 25.294 11.5276 24.629C11.1543 24.279 10.8743 23.8123 10.7109 23.334C10.8626 23.3573 11.0143 23.369 11.1776 23.3923C11.4459 23.4273 11.7259 23.4623 12.0059 23.4856C12.6709 23.544 13.3476 23.579 14.0243 23.579C14.6893 23.579 15.3543 23.544 16.0076 23.4856C16.2526 23.4623 16.4976 23.4507 16.7309 23.4157C16.9176 23.3923 17.1043 23.369 17.3026 23.3457Z" fill="#2B2E32"/>
</svg>
