<svg width="20" height="20" viewBox="0 0 20 20" fill="none" xmlns="http://www.w3.org/2000/svg">
<path d="M12.1073 7.8916L7.89063 12.1083C7.34896 11.5666 7.01562 10.8249 7.01562 9.99993C7.01562 8.34993 8.34896 7.0166 9.99896 7.0166C10.824 7.0166 11.5656 7.34994 12.1073 7.8916Z" stroke="#292D32" stroke-width="1.5" stroke-linecap="round" stroke-linejoin="round"/>
<path d="M14.8518 4.8084C13.3935 3.7084 11.7268 3.1084 10.0018 3.1084C7.06016 3.1084 4.31849 4.84173 2.41016 7.84173C1.66016 9.01673 1.66016 10.9917 2.41016 12.1667C3.06849 13.2001 3.83516 14.0917 4.66849 14.8084" stroke="#292D32" stroke-width="1.5" stroke-linecap="round" stroke-linejoin="round"/>
<path d="M7.01562 16.2751C7.96562 16.6751 8.97396 16.8917 9.99896 16.8917C12.9406 16.8917 15.6823 15.1584 17.5906 12.1584C18.3406 10.9834 18.3406 9.0084 17.5906 7.8334C17.3156 7.40006 17.0156 6.99173 16.7073 6.6084" stroke="#292D32" stroke-width="1.5" stroke-linecap="round" stroke-linejoin="round"/>
<path d="M12.9242 10.5835C12.7076 11.7585 11.7492 12.7168 10.5742 12.9335" stroke="#292D32" stroke-width="1.5" stroke-linecap="round" stroke-linejoin="round"/>
<path d="M7.89297 12.1084L1.66797 18.3334" stroke="#292D32" stroke-width="1.5" stroke-linecap="round" stroke-linejoin="round"/>
<path d="M18.3344 1.6665L12.1094 7.8915" stroke="#292D32" stroke-width="1.5" stroke-linecap="round" stroke-linejoin="round"/>
</svg>
