<svg width="29" height="28" viewBox="0 0 29 28" fill="none" xmlns="http://www.w3.org/2000/svg">
<path d="M25.654 12.53L24.0673 10.6867C23.764 10.3367 23.519 9.68336 23.519 9.21669V7.23336C23.519 5.99669 22.504 4.98169 21.2673 4.98169H19.284C18.829 4.98169 18.164 4.73669 17.814 4.43336L15.9707 2.84669C15.1657 2.15836 13.8473 2.15836 13.0307 2.84669L11.199 4.44503C10.849 4.73669 10.184 4.98169 9.72901 4.98169H7.71068C6.47401 4.98169 5.45901 5.99669 5.45901 7.23336V9.22836C5.45901 9.68336 5.21401 10.3367 4.92234 10.6867L3.34734 12.5417C2.67068 13.3467 2.67068 14.6534 3.34734 15.4584L4.92234 17.3134C5.21401 17.6634 5.45901 18.3167 5.45901 18.7717V20.7667C5.45901 22.0034 6.47401 23.0184 7.71068 23.0184H9.72901C10.184 23.0184 10.849 23.2634 11.199 23.5667L13.0423 25.1534C13.8473 25.8417 15.1657 25.8417 15.9823 25.1534L17.8257 23.5667C18.1757 23.2634 18.829 23.0184 19.2957 23.0184H21.279C22.5157 23.0184 23.5307 22.0034 23.5307 20.7667V18.7834C23.5307 18.3284 23.7757 17.6634 24.079 17.3134L25.6657 15.47C26.3423 14.665 26.3423 13.335 25.654 12.53ZM19.354 11.795L13.719 17.43C13.5557 17.5934 13.334 17.6867 13.1007 17.6867C12.8673 17.6867 12.6457 17.5934 12.4823 17.43L9.65901 14.6067C9.32068 14.2684 9.32068 13.7084 9.65901 13.37C9.99734 13.0317 10.5573 13.0317 10.8957 13.37L13.1007 15.575L18.1173 10.5584C18.4557 10.22 19.0157 10.22 19.354 10.5584C19.6923 10.8967 19.6923 11.4567 19.354 11.795Z" fill="#0F94F2"/>
</svg>
