<svg width="24" height="24" viewBox="0 0 24 24" fill="none" xmlns="http://www.w3.org/2000/svg">
<path d="M21.4499 13.64V14.64C21.4499 14.91 21.2399 15.13 20.9599 15.14H19.4999C18.9699 15.14 18.4899 14.75 18.4499 14.23C18.4199 13.92 18.5399 13.63 18.7399 13.43C18.9199 13.24 19.1699 13.14 19.4399 13.14H20.9499C21.2399 13.15 21.4499 13.37 21.4499 13.64Z" fill="#2B2E32"/>
<path d="M17.9892 12.69C17.4892 13.18 17.2492 13.91 17.4492 14.67C17.7092 15.6 18.6192 16.19 19.5792 16.19H20.4492C20.9992 16.19 21.4492 16.64 21.4492 17.19V17.38C21.4492 19.45 19.7592 21.14 17.6892 21.14H6.20922C4.13922 21.14 2.44922 19.45 2.44922 17.38V10.65C2.44922 9.42 3.03922 8.33 3.94922 7.65C4.57922 7.17 5.35922 6.89 6.20922 6.89H17.6892C19.7592 6.89 21.4492 8.58 21.4492 10.65V11.09C21.4492 11.64 20.9992 12.09 20.4492 12.09H19.4292C18.8692 12.09 18.3592 12.31 17.9892 12.69Z" fill="#2B2E32"/>
<path d="M16.1991 4.82C16.4691 5.09 16.2391 5.51 15.8591 5.51L8.17908 5.5C7.73908 5.5 7.50908 4.96 7.82908 4.65L9.44908 3.02C10.8191 1.66 13.0391 1.66 14.4091 3.02L16.1591 4.79C16.1691 4.8 16.1891 4.81 16.1991 4.82Z" fill="#2B2E32"/>
</svg>
