<svg width="20" height="20" viewBox="0 0 20 20" fill="none" xmlns="http://www.w3.org/2000/svg">
<path d="M14.168 11.1663V13.6663C14.168 16.9997 12.8346 18.333 9.5013 18.333H6.33464C3.0013 18.333 1.66797 16.9997 1.66797 13.6663V10.4997C1.66797 7.16634 3.0013 5.83301 6.33464 5.83301H8.83464" stroke="#0F94F2" stroke-width="1.5" stroke-linecap="round" stroke-linejoin="round"/>
<path d="M14.1654 11.1663H11.4987C9.4987 11.1663 8.83203 10.4997 8.83203 8.49967V5.83301L14.1654 11.1663Z" stroke="#0F94F2" stroke-width="1.5" stroke-linecap="round" stroke-linejoin="round"/>
<path d="M9.66797 1.66699H13.0013" stroke="#0F94F2" stroke-width="1.5" stroke-linecap="round" stroke-linejoin="round"/>
<path d="M5.83203 4.16699C5.83203 2.78366 6.9487 1.66699 8.33203 1.66699H10.5154" stroke="#0F94F2" stroke-width="1.5" stroke-linecap="round" stroke-linejoin="round"/>
<path d="M18.3339 6.66699V11.8253C18.3339 13.117 17.2839 14.167 15.9922 14.167" stroke="#0F94F2" stroke-width="1.5" stroke-linecap="round" stroke-linejoin="round"/>
<path d="M18.332 6.66699H15.832C13.957 6.66699 13.332 6.04199 13.332 4.16699V1.66699L18.332 6.66699Z" stroke="#0F94F2" stroke-width="1.5" stroke-linecap="round" stroke-linejoin="round"/>
</svg>
