<svg width="20" height="20" viewBox="0 0 20 20" fill="none" xmlns="http://www.w3.org/2000/svg">
<path d="M14.168 11.1667V13.6667C14.168 17 12.8346 18.3333 9.5013 18.3333H6.33464C3.0013 18.3333 1.66797 17 1.66797 13.6667V10.5C1.66797 7.16668 3.0013 5.83334 6.33464 5.83334H8.83464" stroke="#0F94F2" stroke-width="1.5" stroke-linecap="round" stroke-linejoin="round"/>
<path d="M14.1654 11.1667H11.4987C9.4987 11.1667 8.83203 10.5 8.83203 8.50001V5.83334L14.1654 11.1667Z" stroke="#0F94F2" stroke-width="1.5" stroke-linecap="round" stroke-linejoin="round"/>
<path d="M9.66797 1.66666H13.0013" stroke="#0F94F2" stroke-width="1.5" stroke-linecap="round" stroke-linejoin="round"/>
<path d="M5.83203 4.16666C5.83203 2.78332 6.9487 1.66666 8.33203 1.66666H10.5154" stroke="#0F94F2" stroke-width="1.5" stroke-linecap="round" stroke-linejoin="round"/>
<path d="M18.3339 6.66666V11.825C18.3339 13.1167 17.2839 14.1667 15.9922 14.1667" stroke="#0F94F2" stroke-width="1.5" stroke-linecap="round" stroke-linejoin="round"/>
<path d="M18.332 6.66666H15.832C13.957 6.66666 13.332 6.04166 13.332 4.16666V1.66666L18.332 6.66666Z" stroke="#0F94F2" stroke-width="1.5" stroke-linecap="round" stroke-linejoin="round"/>
</svg>
