<svg width="24" height="24" viewBox="0 0 24 24" fill="none" xmlns="http://www.w3.org/2000/svg">
<path d="M21.4499 13.6401V14.6401C21.4499 14.9101 21.2399 15.1301 20.9599 15.1401H19.4999C18.9699 15.1401 18.4899 14.7501 18.4499 14.2301C18.4199 13.9201 18.5399 13.6301 18.7399 13.4301C18.9199 13.2401 19.1699 13.1401 19.4399 13.1401H20.9499C21.2399 13.1501 21.4499 13.3701 21.4499 13.6401Z" fill="#2B2E32"/>
<path d="M17.9892 12.6901C17.4892 13.1801 17.2492 13.9101 17.4492 14.6701C17.7092 15.6001 18.6192 16.1901 19.5792 16.1901H20.4492C20.9992 16.1901 21.4492 16.6401 21.4492 17.1901V17.3801C21.4492 19.4501 19.7592 21.1401 17.6892 21.1401H6.20922C4.13922 21.1401 2.44922 19.4501 2.44922 17.3801V10.6501C2.44922 9.42014 3.03922 8.33014 3.94922 7.65014C4.57922 7.17014 5.35922 6.89014 6.20922 6.89014H17.6892C19.7592 6.89014 21.4492 8.58014 21.4492 10.6501V11.0901C21.4492 11.6401 20.9992 12.0901 20.4492 12.0901H19.4292C18.8692 12.0901 18.3592 12.3101 17.9892 12.6901Z" fill="#2B2E32"/>
<path d="M16.1991 4.82C16.4691 5.09 16.2391 5.51 15.8591 5.51L8.17908 5.5C7.73908 5.5 7.50908 4.96 7.82908 4.65L9.44908 3.02C10.8191 1.66 13.0391 1.66 14.4091 3.02L16.1591 4.79C16.1691 4.8 16.1891 4.81 16.1991 4.82Z" fill="#2B2E32"/>
</svg>
