<svg width="61" height="60" viewBox="0 0 61 60" fill="none" xmlns="http://www.w3.org/2000/svg">
<path d="M30.375 5C16.6 5 5.375 16.225 5.375 30C5.375 43.775 16.6 55 30.375 55C44.15 55 55.375 43.775 55.375 30C55.375 16.225 44.15 5 30.375 5ZM42.325 24.25L28.15 38.425C27.8 38.775 27.325 38.975 26.825 38.975C26.325 38.975 25.85 38.775 25.5 38.425L18.425 31.35C17.7 30.625 17.7 29.425 18.425 28.7C19.15 27.975 20.35 27.975 21.075 28.7L26.825 34.45L39.675 21.6C40.4 20.875 41.6 20.875 42.325 21.6C43.05 22.325 43.05 23.5 42.325 24.25Z" fill="#2AC769"/>
</svg>
